<svg xmlns="http://www.w3.org/2000/svg" viewBox="0 0 415.175 96.625">
  <defs>
    <style>
      .a, .c {
        font-size: 25px;
      }

      .a, .e {
        font-family: TimesNewRomanPS-ItalicMT, Times New Roman;
        font-style: italic;
      }

      .b, .e {
        font-size: 18px;
      }

      .c {
        font-family: TimesNewRomanPSMT, Times New Roman;
      }

      .d {
        letter-spacing: -0.037em;
      }
    </style>
  </defs>
  <title>02_x_srednee</title>
  <text class="a" transform="translate(1.675 74.084)">X<tspan class="b" x="15.271" y="0">i</tspan><tspan x="20.272" y="0">=</tspan></text>
  <text class="c" transform="translate(145.675 28.959)">1+2+3+4+5+6+<tspan x="0" y="30">7+8+9+10+</tspan><tspan class="d" x="118.896" y="30">1</tspan><tspan x="130.469" y="30">1</tspan></text>
  <text class="a" transform="translate(115.675 74.084)">=</text>
  <text class="a" transform="translate(311.675 73.959)">=</text>
  <text class="a" transform="translate(379.675 73.959)">=</text>
  <text class="a" transform="translate(85.675 38.959)">X<tspan class="b" x="15.271" y="0">i</tspan></text>
  <text class="a" transform="translate(72.675 81.959)">n</text>
  <text class="c" transform="translate(203.675 88.959)"><tspan class="d">1</tspan><tspan x="11.572" y="0">1</tspan></text>
  <text class="c" transform="translate(402.675 71.959)">6</text>
  <text class="c" transform="translate(342.675 88.959)"><tspan class="d">1</tspan><tspan x="11.572" y="0">1</tspan></text>
  <text class="c" transform="translate(343.675 59.959)">66</text>
  <text class="c" transform="translate(141.675 60.959)">_____________</text>
  <text class="c" transform="translate(336.675 60.959)">___</text>
  <text class="c" transform="translate(46.675 60.959)">_____</text>
  <text class="c" transform="translate(6.675 47.959)">_</text>
  <text class="e" transform="translate(64.675 14.959)">n</text>
  <text class="e" transform="translate(54.675 60.959)">i=1</text>
  <path d="M82.7,35.03,80.89,41.3H61.139l9.083-14.881L60.227,12.9H80.89L82.7,19.173l-.378.134L79.742,13.3H62.274l9.092,12.045L62.393,40.022H80.12l2.2-5.126Z" transform="translate(-2.403 4.529)"/>
</svg>
