<svg xmlns="http://www.w3.org/2000/svg" viewBox="0 0 426.18 100.442">
  <defs>
    <style>
      .a, .c {
        font-size: 25px;
      }

      .a, .d {
        font-family: TimesNewRomanPS-ItalicMT, Times New Roman;
        font-style: italic;
      }

      .b, .d, .e {
        font-size: 18px;
      }

      .c, .e, .f {
        font-family: TimesNewRomanPSMT, Times New Roman;
      }

      .f {
        font-size: 25.135px;
      }
    </style>
  </defs>
  <title>04_dispersiia_x</title>
  <text class="a" transform="translate(0.756 82.776)">D<tspan class="b" x="18.054" y="0">x</tspan><tspan x="26.043" y="0">=</tspan></text>
  <text class="a" transform="translate(181.756 82.776)">=</text>
  <text class="c" transform="translate(280.756 82.776)">=</text>
  <text class="a" transform="translate(90.756 45.776)">(X<tspan class="b" x="23.596" y="0">i </tspan><tspan x="33.097" y="0">-X)</tspan></text>
  <text class="a" transform="translate(111.756 92.776)">n</text>
  <text class="a" transform="translate(205.756 81.776)">X - (X)</text>
  <text class="c" transform="translate(303.756 80.776)">46 - 36 = 10</text>
  <text class="d" transform="translate(67.756 21.776)">n</text>
  <text class="e" transform="translate(157.756 30.776)">2</text>
  <text class="e" transform="translate(229.756 62.776)">2</text>
  <text class="e" transform="translate(274.756 62.776)">2</text>
  <text class="d" transform="translate(57.756 69.776)">i=1</text>
  <path d="M84.7,37.03,82.89,43.3H63.139l9.083-14.881L62.227,14.9H82.89L84.7,21.173l-.378.134L81.742,15.3H64.274l9.092,12.045L64.393,42.022H82.12l2.2-5.126Z" transform="translate(-2.322 10.347)"/>
  <text class="f" transform="translate(52.752 69.735) scale(0.974 1)">__________</text>
  <text class="c" transform="translate(136.756 20.776)">_</text>
  <text class="c" transform="translate(210.756 55.776)">_</text>
  <text class="c" transform="translate(254.756 55.776)">_</text>
</svg>
