<svg xmlns="http://www.w3.org/2000/svg" viewBox="0 0 282.37 31.815">
  <defs>
    <style>
      .a, .c {
        font-size: 25px;
      }

      .a, .d {
        font-family: TimesNewRomanPS-ItalicMT, Times New Roman;
        font-style: italic;
      }

      .b, .d {
        font-size: 18px;
      }

      .c {
        font-family: TimesNewRomanPSMT, Times New Roman;
      }

      .e {
        fill: none;
        stroke: #000;
        stroke-miterlimit: 10;
        stroke-width: 1.25px;
      }
    </style>
  </defs>
  <title>07_standartnoe_otclonenie_y</title>
  <text class="a" transform="translate(71.271 23.055)">D<tspan class="b" x="18.054" y="0">y </tspan><tspan x="30.543" y="0">=</tspan></text>
  <text class="c" transform="translate(32.271 22.68)">=</text>
  <text class="d" transform="translate(18.271 23.055)">y</text>
  <path d="M17.655,12.461v2.3H12.821a6.978,6.978,0,0,1,.959,1.875,6.752,6.752,0,0,1,.3,2.066,6.916,6.916,0,0,1-1.795,4.929,6.02,6.02,0,0,1-4.592,1.911,6.07,6.07,0,0,1-4.563-1.9,6.643,6.643,0,0,1-1.824-4.8A6.682,6.682,0,0,1,3.094,14.08a5.8,5.8,0,0,1,4.395-1.9,7.068,7.068,0,0,1,1.347.139c.479.093.747.139.806.139ZM4.325,18.848A8.833,8.833,0,0,0,5.189,23.2a2.74,2.74,0,0,0,2.505,1.494A2.7,2.7,0,0,0,10.169,23.2a8.952,8.952,0,0,0,.85-4.351,8.863,8.863,0,0,0-.85-4.336,2.7,2.7,0,0,0-2.475-1.479,2.74,2.74,0,0,0-2.5,1.487A8.747,8.747,0,0,0,4.325,18.848Z" transform="translate(-1.307 -2.375)"/>
  <text class="c" transform="translate(143.271 24.149)">444298 = 667</text>
  <polyline class="e" points="52.693 16.625 58.193 16.625 61.193 27.625 70.193 0.625 95.693 0.625"/>
  <polyline class="e" points="124.693 16.625 130.193 16.625 133.193 27.625 142.193 0.625 219.193 0.625"/>
</svg>
