<svg xmlns="http://www.w3.org/2000/svg" viewBox="0 0 443.75 58.442">
  <defs>
    <style>
      .a, .b, .c {
        font-size: 25px;
      }

      .a, .c {
        font-family: TimesNewRomanPS-ItalicMT, Times New Roman;
        font-style: italic;
      }

      .a {
        letter-spacing: -0.018em;
      }

      .b {
        font-family: TimesNewRomanPSMT, Times New Roman;
      }
    </style>
  </defs>
  <title>08_variatciia</title>
  <text class="a" transform="translate(0 34.776)">V</text>
  <text class="b" transform="translate(36 34.776)">=</text>
  <text class="b" transform="translate(177 34.776)">=</text>
  <text class="c" transform="translate(92 37.776)">* 100%</text>
  <text class="b" transform="translate(288 37.776)">* 100% = 1.7%</text>
  <text class="c" transform="translate(63 50.776)">Y</text>
  <text class="c" transform="translate(61 21.776)">__</text>
  <text class="c" transform="translate(202 21.776)">______</text>
  <text class="c" transform="translate(67 25.776)">_</text>
  <path d="M24.864,24.7v1.533H21.641a4.65,4.65,0,0,1,.64,1.25,4.5,4.5,0,0,1,.2,1.377,4.611,4.611,0,0,1-1.2,3.286,4.013,4.013,0,0,1-3.062,1.274,4.046,4.046,0,0,1-3.042-1.264,4.43,4.43,0,0,1-1.216-3.2,4.451,4.451,0,0,1,1.192-3.179,3.867,3.867,0,0,1,2.929-1.265,4.727,4.727,0,0,1,.9.093q.478.093.537.093Zm-8.887,4.258a5.887,5.887,0,0,0,.576,2.9,1.828,1.828,0,0,0,1.67,1,1.8,1.8,0,0,0,1.651-1,5.978,5.978,0,0,0,.566-2.9,5.921,5.921,0,0,0-.566-2.891,1.8,1.8,0,0,0-1.651-.986,1.829,1.829,0,0,0-1.67.991A5.829,5.829,0,0,0,15.977,28.958Z" transform="translate(1.922 1.347)"/>
  <path d="M81.655,8.461v2.3H76.821a6.978,6.978,0,0,1,.959,1.875,6.752,6.752,0,0,1,.3,2.066,6.916,6.916,0,0,1-1.8,4.929,6.456,6.456,0,0,1-9.155.015,6.643,6.643,0,0,1-1.824-4.8,6.682,6.682,0,0,1,1.787-4.768,5.8,5.8,0,0,1,4.4-1.9,7.068,7.068,0,0,1,1.347.139c.479.093.747.139.806.139Zm-13.33,6.387a8.833,8.833,0,0,0,.864,4.351,2.74,2.74,0,0,0,2.505,1.494A2.7,2.7,0,0,0,74.169,19.2a8.952,8.952,0,0,0,.85-4.351,8.863,8.863,0,0,0-.85-4.336,2.7,2.7,0,0,0-2.475-1.479,2.74,2.74,0,0,0-2.505,1.487A8.747,8.747,0,0,0,68.325,14.848Z" transform="translate(1.922 1.347)"/>
  <text class="b" transform="translate(208 48.776)">38945</text>
  <text class="b" transform="translate(220 20.776)">667</text>
</svg>
