<svg xmlns="http://www.w3.org/2000/svg" viewBox="0 0 320.599 57.442">
  <defs>
    <style>
      .a, .b {
        font-size: 25px;
      }

      .a, .d {
        font-family: TimesNewRomanPS-ItalicMT, Times New Roman;
        font-style: italic;
      }

      .b {
        font-family: TimesNewRomanPSMT, Times New Roman;
      }

      .c, .d {
        font-size: 18px;
      }
    </style>
  </defs>
  <title>17_korreliatciia</title>
  <text class="a" transform="translate(0 34.776)">r =</text>
  <text class="b" transform="translate(137 34.776)">=</text>
  <text class="b" transform="translate(269 34.776)">= 0.9</text>
  <text class="a" transform="translate(52 20.776)">COV<tspan class="c" x="50" y="0">xy</tspan></text>
  <text class="d" transform="translate(64 45.776)">x</text>
  <text class="b" transform="translate(163 49.776)">3.2 * 667</text>
  <text class="a" transform="translate(76 47.776)">*</text>
  <text class="b" transform="translate(182 21.776)">1948</text>
  <text class="b" transform="translate(41 21.776)">_______</text>
  <text class="b" transform="translate(159 21.776)">________</text>
  <path d="M65.655,32.461v2.3H60.821a6.978,6.978,0,0,1,.959,1.875,6.752,6.752,0,0,1,.3,2.066,6.916,6.916,0,0,1-1.8,4.929,6.456,6.456,0,0,1-9.155.015,6.643,6.643,0,0,1-1.824-4.8,6.682,6.682,0,0,1,1.787-4.768,5.8,5.8,0,0,1,4.395-1.9,7.068,7.068,0,0,1,1.347.139c.479.093.747.139.806.139Zm-13.33,6.387a8.833,8.833,0,0,0,.864,4.351,2.74,2.74,0,0,0,2.505,1.494A2.7,2.7,0,0,0,58.169,43.2a8.952,8.952,0,0,0,.85-4.351,8.863,8.863,0,0,0-.85-4.336,2.7,2.7,0,0,0-2.475-1.479,2.74,2.74,0,0,0-2.505,1.487A8.747,8.747,0,0,0,52.325,38.848Z" transform="translate(-2.078 0.847)"/>
  <text class="d" transform="translate(114 45.776)">y</text>
  <path d="M114.655,32.461v2.3h-4.834a6.978,6.978,0,0,1,.959,1.875,6.752,6.752,0,0,1,.3,2.066,6.916,6.916,0,0,1-1.8,4.929,6.456,6.456,0,0,1-9.155.015,6.643,6.643,0,0,1-1.824-4.8,6.682,6.682,0,0,1,1.787-4.768,5.8,5.8,0,0,1,4.4-1.9,7.068,7.068,0,0,1,1.347.139c.479.093.747.139.806.139Zm-13.33,6.387a8.833,8.833,0,0,0,.864,4.351,2.74,2.74,0,0,0,2.505,1.494,2.7,2.7,0,0,0,2.475-1.494,8.952,8.952,0,0,0,.85-4.351,8.863,8.863,0,0,0-.85-4.336,2.7,2.7,0,0,0-2.475-1.479,2.74,2.74,0,0,0-2.505,1.487A8.747,8.747,0,0,0,101.325,38.848Z" transform="translate(-2.078 0.847)"/>
</svg>
