<?xml version="1.0" encoding="utf-8"?>
<!-- Generator: Adobe Illustrator 23.0.0, SVG Export Plug-In . SVG Version: 6.00 Build 0)  -->
<svg version="1.1" id="Слой_1" xmlns="http://www.w3.org/2000/svg" xmlns:xlink="http://www.w3.org/1999/xlink" x="0px" y="0px"
	 viewBox="0 0 500 143" style="enable-background:new 0 0 500 143;" xml:space="preserve">
<style type="text/css">
	.st0{fill:url(#SVGID_1_);}
	.st1{fill:url(#SVGID_2_);}
	.st2{fill:#190091;}
	.st3{fill:url(#SVGID_3_);}
	.st4{fill:url(#SVGID_4_);}
	.st5{fill:url(#SVGID_5_);}
	.st6{fill:url(#SVGID_6_);}
	.st7{fill:url(#SVGID_7_);}
	.st8{fill:url(#SVGID_8_);}
	.st9{fill:url(#SVGID_9_);}
	.st10{fill:url(#SVGID_10_);}
	.st11{fill:url(#SVGID_11_);}
	.st12{fill:url(#SVGID_12_);}
	.st13{fill:url(#SVGID_13_);}
	.st14{fill:url(#SVGID_14_);}
	.st15{fill:url(#SVGID_15_);}
	.st16{font-family:'TimesNewRomanPSMT';}
	.st17{font-size:24px;}
	.st18{font-size:13px;}
</style>
<linearGradient id="SVGID_1_" gradientUnits="userSpaceOnUse" x1="245.2369" y1="49" x2="266.6698" y2="49" gradientTransform="matrix(6.123234e-17 -1 1 6.123234e-17 198.988 342.2693)">
	<stop  offset="0" style="stop-color:#CBCBCB"/>
	<stop  offset="0.2049" style="stop-color:#F1F1F1"/>
	<stop  offset="0.3707" style="stop-color:#F1F1F1"/>
	<stop  offset="0.5632" style="stop-color:#D1D1D1"/>
	<stop  offset="0.7268" style="stop-color:#B2B2B2"/>
	<stop  offset="1" style="stop-color:#CBCBCB"/>
</linearGradient>
<path class="st0" d="M23.24,75.62c-1.4,0.42-5.25,2.35-5.25,10.65s3.85,10.22,5.25,10.65v0.12h0.51h453.22h0.5v-0.12
	c1.4-0.42-0.47-2.35-0.47-10.65s1.88-10.22,0.47-10.65v-0.12h-0.5H23.74h-0.51V75.62z"/>
<g>
	
		<linearGradient id="SVGID_2_" gradientUnits="userSpaceOnUse" x1="1531.9609" y1="278" x2="1577.2606" y2="278" gradientTransform="matrix(-6.123234e-17 1 1 6.123234e-17 198.988 -1497.6917)">
		<stop  offset="0" style="stop-color:#3F9CC5"/>
		<stop  offset="0.446" style="stop-color:#3F9AC4"/>
		<stop  offset="0.6067" style="stop-color:#3F93C2"/>
		<stop  offset="0.7212" style="stop-color:#4088BE"/>
		<stop  offset="0.8137" style="stop-color:#4077B8"/>
		<stop  offset="0.8921" style="stop-color:#4161B1"/>
		<stop  offset="0.936" style="stop-color:#4251AB"/>
	</linearGradient>
	<path class="st1" d="M474.99,76.46V36.25c0-1.09,0.27-1.98,0.59-1.98h2.81c0.33,0,0.59,0.89,0.59,1.98v40.21H474.99z"/>
	<g>
		<g>
			<path class="st2" d="M478.99,97.03c-1.27-0.46-2.66-0.47-3.94-0.03c0-7.18,0-14.35,0-21.53c1.28-0.44,2.67-0.42,3.94,0.03
				C478.99,82.68,478.99,89.86,478.99,97.03z"/>
			
				<linearGradient id="SVGID_3_" gradientUnits="userSpaceOnUse" x1="1572.8455" y1="277.9402" x2="1594.6292" y2="277.9402" gradientTransform="matrix(-6.123234e-17 1 1 6.123234e-17 198.988 -1497.6917)">
				<stop  offset="0" style="stop-color:#3F9CC5"/>
				<stop  offset="0.3024" style="stop-color:#465DBA"/>
				<stop  offset="0.496" style="stop-color:#2F93D1"/>
				<stop  offset="0.6293" style="stop-color:#21B3DF"/>
				<stop  offset="0.7951" style="stop-color:#62C0DF"/>
				<stop  offset="1" style="stop-color:#3F9CC5"/>
			</linearGradient>
			<path class="st3" d="M478.91,97c-1.28-0.44-2.68-0.43-3.96,0.03c0-7.18,0-14.35,0-21.53c1.28-0.46,2.67-0.47,3.96-0.03
				C478.91,82.65,478.91,89.83,478.91,97z"/>
		</g>
	</g>
</g>
<g>
	
		<linearGradient id="SVGID_4_" gradientUnits="userSpaceOnUse" x1="1531.9609" y1="49.019" x2="1577.2606" y2="49.019" gradientTransform="matrix(-6.123234e-17 1 1 6.123234e-17 198.988 -1497.6917)">
		<stop  offset="0" style="stop-color:#3F9CC5"/>
		<stop  offset="0.446" style="stop-color:#3F9AC4"/>
		<stop  offset="0.6067" style="stop-color:#3F93C2"/>
		<stop  offset="0.7212" style="stop-color:#4088BE"/>
		<stop  offset="0.8137" style="stop-color:#4077B8"/>
		<stop  offset="0.8921" style="stop-color:#4161B1"/>
		<stop  offset="0.936" style="stop-color:#4251AB"/>
	</linearGradient>
	<path class="st4" d="M246.01,76.46V36.25c0-1.09,0.27-1.98,0.59-1.98h2.81c0.33,0,0.59,0.89,0.59,1.98v40.21H246.01z"/>
	<g>
		<g>
			<path class="st2" d="M250.01,97.03c-1.27-0.46-2.66-0.47-3.94-0.03c0-7.18,0-14.35,0-21.53c1.28-0.44,2.67-0.42,3.94,0.03
				C250.01,82.68,250.01,89.86,250.01,97.03z"/>
			
				<linearGradient id="SVGID_5_" gradientUnits="userSpaceOnUse" x1="1572.8455" y1="48.9593" x2="1594.6292" y2="48.9593" gradientTransform="matrix(-6.123234e-17 1 1 6.123234e-17 198.988 -1497.6917)">
				<stop  offset="0" style="stop-color:#3F9CC5"/>
				<stop  offset="0.3024" style="stop-color:#465DBA"/>
				<stop  offset="0.496" style="stop-color:#2F93D1"/>
				<stop  offset="0.6293" style="stop-color:#21B3DF"/>
				<stop  offset="0.7951" style="stop-color:#62C0DF"/>
				<stop  offset="1" style="stop-color:#3F9CC5"/>
			</linearGradient>
			<path class="st5" d="M249.93,97c-1.28-0.44-2.68-0.43-3.96,0.03c0-7.18,0-14.35,0-21.53c1.28-0.46,2.67-0.47,3.96-0.03
				C249.93,82.65,249.93,89.83,249.93,97z"/>
		</g>
	</g>
</g>
<g>
	
		<linearGradient id="SVGID_6_" gradientUnits="userSpaceOnUse" x1="1552.9609" y1="117" x2="1575.7148" y2="117" gradientTransform="matrix(-6.123234e-17 1 1 6.123234e-17 198.988 -1497.6917)">
		<stop  offset="0" style="stop-color:#82E84F"/>
		<stop  offset="0.3875" style="stop-color:#81E650"/>
		<stop  offset="0.5271" style="stop-color:#7EDF54"/>
		<stop  offset="0.6266" style="stop-color:#79D45B"/>
		<stop  offset="0.7071" style="stop-color:#72C366"/>
		<stop  offset="0.776" style="stop-color:#69AD73"/>
		<stop  offset="0.837" style="stop-color:#5D9184"/>
		<stop  offset="0.8908" style="stop-color:#507297"/>
		<stop  offset="0.936" style="stop-color:#4251AB"/>
	</linearGradient>
	<path class="st6" d="M313.99,76.46v-20.2c0-0.55,0.27-0.99,0.59-0.99h2.81c0.33,0,0.59,0.45,0.59,0.99v20.2H313.99z"/>
	<g>
		<g>
			<path class="st2" d="M317.99,97.03c-1.27-0.46-2.66-0.47-3.94-0.03c0-7.18,0-14.35,0-21.53c1.28-0.44,2.67-0.42,3.94,0.03
				C317.99,82.68,317.99,89.86,317.99,97.03z"/>
			
				<linearGradient id="SVGID_7_" gradientUnits="userSpaceOnUse" x1="1572.8455" y1="116.9402" x2="1594.6292" y2="116.9402" gradientTransform="matrix(-6.123234e-17 1 1 6.123234e-17 198.988 -1497.6917)">
				<stop  offset="0" style="stop-color:#82E84F"/>
				<stop  offset="0.3024" style="stop-color:#465DBA"/>
				<stop  offset="0.3382" style="stop-color:#486CB1"/>
				<stop  offset="0.538" style="stop-color:#51BF81"/>
				<stop  offset="0.6293" style="stop-color:#55DF6E"/>
				<stop  offset="0.7951" style="stop-color:#19FF79"/>
				<stop  offset="1" style="stop-color:#82E84F"/>
			</linearGradient>
			<path class="st7" d="M317.91,97c-1.28-0.44-2.68-0.43-3.96,0.03c0-7.18,0-14.35,0-21.53c1.28-0.46,2.67-0.47,3.96-0.03
				C317.91,82.65,317.91,89.83,317.91,97z"/>
		</g>
	</g>
</g>
<g>
	
		<linearGradient id="SVGID_8_" gradientUnits="userSpaceOnUse" x1="1552.9609" y1="194" x2="1575.7148" y2="194" gradientTransform="matrix(-6.123234e-17 1 1 6.123234e-17 198.988 -1497.6917)">
		<stop  offset="0" style="stop-color:#82E84F"/>
		<stop  offset="0.3875" style="stop-color:#81E650"/>
		<stop  offset="0.5271" style="stop-color:#7EDF54"/>
		<stop  offset="0.6266" style="stop-color:#79D45B"/>
		<stop  offset="0.7071" style="stop-color:#72C366"/>
		<stop  offset="0.776" style="stop-color:#69AD73"/>
		<stop  offset="0.837" style="stop-color:#5D9184"/>
		<stop  offset="0.8908" style="stop-color:#507297"/>
		<stop  offset="0.936" style="stop-color:#4251AB"/>
	</linearGradient>
	<path class="st8" d="M390.99,76.46v-20.2c0-0.55,0.27-0.99,0.59-0.99h2.81c0.33,0,0.59,0.45,0.59,0.99v20.2H390.99z"/>
	<g>
		<g>
			<path class="st2" d="M394.99,97.03c-1.27-0.46-2.66-0.47-3.94-0.03c0-7.18,0-14.35,0-21.53c1.28-0.44,2.67-0.42,3.94,0.03
				C394.99,82.68,394.99,89.86,394.99,97.03z"/>
			
				<linearGradient id="SVGID_9_" gradientUnits="userSpaceOnUse" x1="1572.8455" y1="193.9402" x2="1594.6292" y2="193.9402" gradientTransform="matrix(-6.123234e-17 1 1 6.123234e-17 198.988 -1497.6917)">
				<stop  offset="0" style="stop-color:#82E84F"/>
				<stop  offset="0.3024" style="stop-color:#465DBA"/>
				<stop  offset="0.3382" style="stop-color:#486CB1"/>
				<stop  offset="0.538" style="stop-color:#51BF81"/>
				<stop  offset="0.6293" style="stop-color:#55DF6E"/>
				<stop  offset="0.7951" style="stop-color:#19FF79"/>
				<stop  offset="1" style="stop-color:#82E84F"/>
			</linearGradient>
			<path class="st9" d="M394.91,97c-1.28-0.44-2.68-0.43-3.96,0.03c0-7.18,0-14.35,0-21.53c1.28-0.46,2.67-0.47,3.96-0.03
				C394.91,82.65,394.91,89.83,394.91,97z"/>
		</g>
	</g>
</g>
<g>
	
		<linearGradient id="SVGID_10_" gradientUnits="userSpaceOnUse" x1="1531.9609" y1="-177" x2="1577.2606" y2="-177" gradientTransform="matrix(-6.123234e-17 1 1 6.123234e-17 198.988 -1497.6917)">
		<stop  offset="0" style="stop-color:#3F9CC5"/>
		<stop  offset="0.446" style="stop-color:#3F9AC4"/>
		<stop  offset="0.6067" style="stop-color:#3F93C2"/>
		<stop  offset="0.7212" style="stop-color:#4088BE"/>
		<stop  offset="0.8137" style="stop-color:#4077B8"/>
		<stop  offset="0.8921" style="stop-color:#4161B1"/>
		<stop  offset="0.936" style="stop-color:#4251AB"/>
	</linearGradient>
	<path class="st10" d="M19.99,76.46V36.25c0-1.09,0.27-1.98,0.59-1.98h2.81c0.33,0,0.59,0.89,0.59,1.98v40.21H19.99z"/>
	<g>
		<g>
			<path class="st2" d="M23.99,97.03c-1.27-0.46-2.66-0.47-3.94-0.03c0-7.18,0-14.35,0-21.53c1.28-0.44,2.67-0.42,3.94,0.03
				C23.99,82.68,23.99,89.86,23.99,97.03z"/>
			
				<linearGradient id="SVGID_11_" gradientUnits="userSpaceOnUse" x1="1572.8455" y1="-177.0598" x2="1594.6292" y2="-177.0598" gradientTransform="matrix(-6.123234e-17 1 1 6.123234e-17 198.988 -1497.6917)">
				<stop  offset="0" style="stop-color:#3F9CC5"/>
				<stop  offset="0.3024" style="stop-color:#465DBA"/>
				<stop  offset="0.496" style="stop-color:#2F93D1"/>
				<stop  offset="0.6293" style="stop-color:#21B3DF"/>
				<stop  offset="0.7951" style="stop-color:#62C0DF"/>
				<stop  offset="1" style="stop-color:#3F9CC5"/>
			</linearGradient>
			<path class="st11" d="M23.91,97c-1.28-0.44-2.68-0.43-3.96,0.03c0-7.18,0-14.35,0-21.53c1.28-0.46,2.67-0.47,3.96-0.03
				C23.91,82.65,23.91,89.83,23.91,97z"/>
		</g>
	</g>
</g>
<g>
	
		<linearGradient id="SVGID_12_" gradientUnits="userSpaceOnUse" x1="1552.9609" y1="-103" x2="1575.7148" y2="-103" gradientTransform="matrix(-6.123234e-17 1 1 6.123234e-17 198.988 -1497.6917)">
		<stop  offset="0" style="stop-color:#82E84F"/>
		<stop  offset="0.3875" style="stop-color:#81E650"/>
		<stop  offset="0.5271" style="stop-color:#7EDF54"/>
		<stop  offset="0.6266" style="stop-color:#79D45B"/>
		<stop  offset="0.7071" style="stop-color:#72C366"/>
		<stop  offset="0.776" style="stop-color:#69AD73"/>
		<stop  offset="0.837" style="stop-color:#5D9184"/>
		<stop  offset="0.8908" style="stop-color:#507297"/>
		<stop  offset="0.936" style="stop-color:#4251AB"/>
	</linearGradient>
	<path class="st12" d="M93.99,76.46v-20.2c0-0.55,0.27-0.99,0.59-0.99h2.81c0.33,0,0.59,0.45,0.59,0.99v20.2H93.99z"/>
	<g>
		<g>
			<path class="st2" d="M97.99,97.03c-1.27-0.46-2.66-0.47-3.94-0.03c0-7.18,0-14.35,0-21.53c1.28-0.44,2.67-0.42,3.94,0.03
				C97.99,82.68,97.99,89.86,97.99,97.03z"/>
			
				<linearGradient id="SVGID_13_" gradientUnits="userSpaceOnUse" x1="1572.8455" y1="-103.0598" x2="1594.6292" y2="-103.0598" gradientTransform="matrix(-6.123234e-17 1 1 6.123234e-17 198.988 -1497.6917)">
				<stop  offset="0" style="stop-color:#82E84F"/>
				<stop  offset="0.3024" style="stop-color:#465DBA"/>
				<stop  offset="0.3382" style="stop-color:#486CB1"/>
				<stop  offset="0.538" style="stop-color:#51BF81"/>
				<stop  offset="0.6293" style="stop-color:#55DF6E"/>
				<stop  offset="0.7951" style="stop-color:#19FF79"/>
				<stop  offset="1" style="stop-color:#82E84F"/>
			</linearGradient>
			<path class="st13" d="M97.91,97c-1.28-0.44-2.68-0.43-3.96,0.03c0-7.18,0-14.35,0-21.53c1.28-0.46,2.67-0.47,3.96-0.03
				C97.91,82.65,97.91,89.83,97.91,97z"/>
		</g>
	</g>
</g>
<g>
	
		<linearGradient id="SVGID_14_" gradientUnits="userSpaceOnUse" x1="1552.9609" y1="-25" x2="1575.7148" y2="-25" gradientTransform="matrix(-6.123234e-17 1 1 6.123234e-17 198.988 -1497.6917)">
		<stop  offset="0" style="stop-color:#82E84F"/>
		<stop  offset="0.3875" style="stop-color:#81E650"/>
		<stop  offset="0.5271" style="stop-color:#7EDF54"/>
		<stop  offset="0.6266" style="stop-color:#79D45B"/>
		<stop  offset="0.7071" style="stop-color:#72C366"/>
		<stop  offset="0.776" style="stop-color:#69AD73"/>
		<stop  offset="0.837" style="stop-color:#5D9184"/>
		<stop  offset="0.8908" style="stop-color:#507297"/>
		<stop  offset="0.936" style="stop-color:#4251AB"/>
	</linearGradient>
	<path class="st14" d="M171.99,76.46v-20.2c0-0.55,0.27-0.99,0.59-0.99h2.81c0.33,0,0.59,0.45,0.59,0.99v20.2H171.99z"/>
	<g>
		<g>
			<path class="st2" d="M175.99,97.03c-1.27-0.46-2.66-0.47-3.94-0.03c0-7.18,0-14.35,0-21.53c1.28-0.44,2.67-0.42,3.94,0.03
				C175.99,82.68,175.99,89.86,175.99,97.03z"/>
			
				<linearGradient id="SVGID_15_" gradientUnits="userSpaceOnUse" x1="1572.8455" y1="-25.0598" x2="1594.6292" y2="-25.0598" gradientTransform="matrix(-6.123234e-17 1 1 6.123234e-17 198.988 -1497.6917)">
				<stop  offset="0" style="stop-color:#82E84F"/>
				<stop  offset="0.3024" style="stop-color:#465DBA"/>
				<stop  offset="0.3382" style="stop-color:#486CB1"/>
				<stop  offset="0.538" style="stop-color:#51BF81"/>
				<stop  offset="0.6293" style="stop-color:#55DF6E"/>
				<stop  offset="0.7951" style="stop-color:#19FF79"/>
				<stop  offset="1" style="stop-color:#82E84F"/>
			</linearGradient>
			<path class="st15" d="M175.91,97c-1.28-0.44-2.68-0.43-3.96,0.03c0-7.18,0-14.35,0-21.53c1.28-0.46,2.67-0.47,3.96-0.03
				C175.91,82.65,175.91,89.83,175.91,97z"/>
		</g>
	</g>
</g>
<text transform="matrix(1 0 0 1 2.8612 18.8201)" class="st16 st17">-1.0</text>
<text transform="matrix(1 0 0 1 240.8612 18.8201)" class="st16 st17">0</text>
<text transform="matrix(1 0 0 1 76.8612 40.8201)" class="st16 st17">-0.7</text>
<text transform="matrix(1 0 0 1 370.8612 40.8201)" class="st16 st17">+0.7</text>
<text transform="matrix(1 0 0 1 155.8612 40.8201)" class="st16 st17">-0.3</text>
<text transform="matrix(1 0 0 1 293.8612 40.8201)" class="st16 st17">+0.3</text>
<text transform="matrix(1 0 0 1 454.8612 18.8201)" class="st16 st17">+1.0</text>
<text transform="matrix(1 0 0 1 414.4857 124.8201)"><tspan x="0" y="0" class="st16 st18">Сильная</tspan><tspan x="-11.04" y="15.6" class="st16 st18">зависимость</tspan></text>
<text transform="matrix(1 0 0 1 340.2152 124.8201)"><tspan x="0" y="0" class="st16 st18">Слабая</tspan><tspan x="-14.77" y="15.6" class="st16 st18">зависимость</tspan></text>
<text transform="matrix(1 0 0 1 245.7552 124.8201)"><tspan x="0" y="0" class="st16 st18">Зависимость</tspan><tspan x="2.27" y="15.6" class="st16 st18">отсутствует</tspan></text>
</svg>
