<?xml version="1.0" encoding="utf-8"?>
<!-- Generator: Adobe Illustrator 23.0.3, SVG Export Plug-In . SVG Version: 6.00 Build 0)  -->
<svg version="1.1" xmlns="http://www.w3.org/2000/svg" xmlns:xlink="http://www.w3.org/1999/xlink" x="0px" y="0px"
	 viewBox="0 0 740 450" style="enable-background:new 0 0 740 450;" xml:space="preserve">
<style type="text/css">
	.st0{display:none;}
	.st1{fill:none;stroke:#B3B3B3;stroke-width:0.75;stroke-miterlimit:10;}
	.st2{fill:none;stroke:#B3B3B3;stroke-miterlimit:10;}
	.st3{fill:#666666;}
	.st4{font-family:'Verdana';}
	.st5{font-size:14px;}
	.st6{letter-spacing:1;}
	.st7{fill:#333333;}
	.st8{font-family:'TimesNewRomanPSMT';}
	.st9{font-size:20px;}
	.st10{fill:#4D4D4D;}
	.st11{font-family:'ArialMT';}
	.st12{font-size:25px;}
	.st13{opacity:0.3;fill:none;stroke:#808080;stroke-width:7;stroke-miterlimit:10;}
	.st14{fill:#D3FFFF;stroke:#808080;stroke-width:2;stroke-miterlimit:10;}
</style>
<g id="Растр" class="st0">
	
		<image style="display:inline;overflow:visible;" width="750" height="422" xlink:href="../../../../../../Работа/IrkStat/01 Webflow/04 Blog/02 Применение линейной регрессии для анализа рынка недвижимости/img/График линейная регрессия/Blog_Vtorichka_Leen_Zavisimost.jpg"  transform="matrix(0.9853 0 0 1.0002 3 23.9601)">
	</image>
</g>
<g id="Шкала">
	<line class="st1" x1="85" y1="353.5" x2="722.5" y2="353.5"/>
	<line class="st1" x1="85" y1="409.5" x2="722.5" y2="409.5"/>
	<line class="st1" x1="85" y1="298.5" x2="722.5" y2="298.5"/>
	<line class="st2" x1="84.8" y1="410" x2="84.8" y2="76.5"/>
	<line class="st1" x1="191.8" y1="410" x2="191.8" y2="76.5"/>
	<line class="st1" x1="297.8" y1="410" x2="297.8" y2="76.5"/>
	<line class="st1" x1="403.8" y1="410" x2="403.8" y2="76.5"/>
	<line class="st1" x1="509.8" y1="410" x2="509.8" y2="76.5"/>
	<line class="st1" x1="616.8" y1="410" x2="616.8" y2="76.5"/>
	<line class="st1" x1="722.8" y1="410" x2="722.8" y2="76.5"/>
	<line class="st1" x1="85" y1="187.5" x2="722.5" y2="187.5"/>
	<line class="st1" x1="85" y1="242.5" x2="722.5" y2="242.5"/>
	<line class="st1" x1="85" y1="132.5" x2="722.5" y2="132.5"/>
	<line class="st1" x1="85" y1="76.5" x2="722.5" y2="76.5"/>
	<text transform="matrix(1 0 0 1 16.3335 413.333)" class="st3 st4 st5">37 500 ₽</text>
	<text transform="matrix(1 0 0 1 16.3335 357.333)" class="st3 st4 st5">38 000 ₽</text>
	<text transform="matrix(1 0 0 1 16.3335 302.333)" class="st3 st4 st5">38 500 ₽</text>
	<text transform="matrix(1 0 0 1 79.3335 435.333)" class="st3 st4 st5 st6">0</text>
	<text transform="matrix(1 0 0 1 186.3335 435.333)" class="st3 st4 st5 st6">2</text>
	<text transform="matrix(1 0 0 1 292.3335 435.333)" class="st3 st4 st5 st6">4</text>
	<text transform="matrix(1 0 0 1 398.3335 435.333)" class="st3 st4 st5 st6">6</text>
	<text transform="matrix(1 0 0 1 504.3335 435.333)" class="st3 st4 st5 st6">8</text>
	<text transform="matrix(1 0 0 1 607.3335 435.333)" class="st3 st4 st5 st6">10</text>
	<text transform="matrix(1 0 0 1 713.3335 435.333)" class="st3 st4 st5 st6">12</text>
	<text transform="matrix(1 0 0 1 16.3335 246.333)" class="st3 st4 st5">39 000 ₽</text>
	<text transform="matrix(1 0 0 1 16.3335 191.333)" class="st3 st4 st5">39 500 ₽</text>
	<text transform="matrix(1 0 0 1 16.3335 136.333)" class="st3 st4 st5">40 000 ₽</text>
	<text transform="matrix(1 0 0 1 16.3335 80.333)" class="st3 st4 st5">40 500 ₽</text>
</g>
<g id="Линия_тренда">
</g>
<g id="Круги">
	<text transform="matrix(1 0 0 1 93.604 103.7358)"><tspan x="0" y="0" class="st7 st8 st9">Yi=Xi*195+37775</tspan><tspan x="0" y="24" class="st7 st8 st9">r=0.9</tspan></text>
	<text transform="matrix(1 0 0 1 292.2244 46.8867)" class="st10 st11 st12">Линейная регрессия</text>
	<line class="st13" x1="141.5" y1="357.5" x2="671.5" y2="140.5"/>
	<circle class="st14" cx="140.5" cy="357.5" r="5.5"/>
	<circle class="st14" cx="191.5" cy="378.5" r="5.5"/>
	<circle class="st14" cx="244.5" cy="310.5" r="5.5"/>
	<circle class="st14" cx="296.5" cy="243.5" r="5.5"/>
	<circle class="st14" cx="406.5" cy="299.5" r="5.5"/>
	<circle class="st14" cx="352.5" cy="255.5" r="5.5"/>
	<circle class="st14" cx="459.5" cy="188.5" r="5.5"/>
	<circle class="st14" cx="513.5" cy="211.5" r="5.5"/>
	<circle class="st14" cx="566.5" cy="200.5" r="5.5"/>
	<circle class="st14" cx="616.5" cy="176.5" r="5.5"/>
	<circle class="st14" cx="672.5" cy="133.5" r="5.5"/>
</g>
</svg>
