<?xml version="1.0" encoding="utf-8"?>
<!-- Generator: Adobe Illustrator 23.0.3, SVG Export Plug-In . SVG Version: 6.00 Build 0)  -->
<svg version="1.1" id="Layer_1" xmlns="http://www.w3.org/2000/svg" xmlns:xlink="http://www.w3.org/1999/xlink" x="0px" y="0px"
	 viewBox="0 0 512 512" style="enable-background:new 0 0 512 512;" xml:space="preserve">
<style type="text/css">
	.st0{fill:none;stroke:#000000;stroke-width:40;stroke-miterlimit:10;}
</style>
<rect y="3" class="st0" width="512" height="509"/>
<path d="M274.7,256.8c0,33.5,0,66.5,0,99.8c-1,0.1-1.9,0.2-2.8,0.2c-13.2,0-26.4-0.1-39.6,0.1c-2.5,0-2.9-0.8-2.9-3.1
	c0.1-31.1,0.1-62.2,0.1-93.4c0-1.1,0-2.2,0-3.5c-7.4,0-14.5,0-21.8,0c0-11.3,0-22.4,0-33.7c7.2,0,14.4,0,21.8,0c0-1.2,0-2.2,0-3.1
	c0-8.6-0.1-17.3,0.1-26c0.2-11.3,3.8-21,13-28.1c6.5-5,14.1-7.8,22.1-8.2c14.3-0.7,28.6-0.7,42.9-0.9c1.2,0,2,0.3,1.9,1.7
	c-0.1,10.9-0.1,21.8-0.1,32.7c0,0.2-0.1,0.3-0.4,0.8c-0.8,0-1.6,0-2.6,0c-7,0-14,0-21.1,0c-6.4,0.1-10.4,4.1-10.4,10.4
	c0,6.7,0,13.5,0,20.6c11.5,0,22.8,0,34.7,0c-1.4,11.5-2.8,22.5-4.3,33.8C294.9,256.8,284.9,256.8,274.7,256.8z"/>
</svg>
