<?xml version="1.0" encoding="utf-8"?>
<!-- Generator: Adobe Illustrator 23.0.3, SVG Export Plug-In . SVG Version: 6.00 Build 0)  -->
<svg version="1.1" id="Layer_1" xmlns="http://www.w3.org/2000/svg" xmlns:xlink="http://www.w3.org/1999/xlink" x="0px" y="0px"
	 viewBox="0 0 512 512" style="enable-background:new 0 0 512 512;" xml:space="preserve">
<style type="text/css">
	.st0{fill:none;stroke:#000000;stroke-width:40;stroke-miterlimit:10;}
</style>
<path d="M170.8,292.7c7,0,13.5,0,20,0c0.1-0.3,0.2-0.6,0.2-0.9c-23.1-7.3-35.7-22.7-37.3-46.8c7.1,2,13.9,3.9,20.6,5.8
	c0.1-0.3,0.2-0.5,0.3-0.8c-20.8-17.6-25.8-38.6-14.1-64c26.3,30.7,58.8,47.5,98.9,50.3c-0.3-2.1-0.5-3.8-0.7-5.5
	c-4.1-33.9,28.8-61.3,61.4-51.4c7.7,2.4,14.3,6.3,20.1,11.8c0.7,0.7,2.1,1,3.1,0.8c9-1.9,17.5-5.2,25.5-9.5c0.7-0.4,1.4-0.7,2.6-1.3
	c-1.5,5.8-4.2,10.5-7.6,14.5c-3.5,4-7.5,7.5-11.3,11.3c8.6-1,16.8-3.5,24.9-6.7c0.2,0.2,0.4,0.4,0.5,0.7c-3.9,4.5-7.6,9.2-11.7,13.5
	c-3.1,3.3-6.9,6-10.2,9c-0.8,0.7-1.4,2-1.4,3c0.5,28.3-6.9,54.4-21.8,78.3c-15.8,25.3-37.7,43.7-65.8,54.1
	c-22.6,8.3-46,10.5-69.8,6.8c-17.9-2.7-34.6-8.8-50-18.4c-0.4-0.2-0.7-0.5-1-1c12.4,1.1,24.6-0.1,36.4-3.5
	c11.8-3.3,22.6-8.8,32.8-16.8c-12.7-0.8-23.3-5-32.1-13.4C177.6,307.2,173.5,300.8,170.8,292.7z"/>
<rect y="1.5" class="st0" width="512" height="509"/>
</svg>
