<?xml version="1.0" encoding="utf-8"?>
<!-- Generator: Adobe Illustrator 23.0.3, SVG Export Plug-In . SVG Version: 6.00 Build 0)  -->
<svg version="1.1" id="Layer_1" xmlns="http://www.w3.org/2000/svg" xmlns:xlink="http://www.w3.org/1999/xlink" x="0px" y="0px"
	 viewBox="0 0 512 512" style="enable-background:new 0 0 512 512;" xml:space="preserve">
<style type="text/css">
	.st0{fill:none;stroke:#000000;stroke-width:40;stroke-miterlimit:10;}
</style>
<g>
	<path d="M232.8,230.1l-42.3,85.6c-2.6,5.3-5,8.9-7.4,10.9c-2.3,2-5.3,3-8.8,3c-2.9,0-5.6-0.6-7.9-1.9c-1.8-1-3.2-2.1-4.2-3.5
		c-1-1.3-2.3-3.7-3.8-7.1l-37.7-83c-2.1-4.7-4-7.8-5.7-9.5c-1.7-1.7-4.1-2.8-7.2-3.4c-3.7-0.7-5.5-2.9-5.5-6.8
		c0-4.7,3.2-8.4,9.7-10.9c6.4-2.5,15.7-3.8,27.7-3.8c12.5,0,21.7,1,27.6,2.9c5.9,1.9,8.8,4.9,8.8,8.8c0,2.6-1.6,5-4.8,7.2
		c-2.5,1.7-3.7,3.2-3.7,4.7c0,1.4,0.6,3.3,1.7,5.8l11.5,26c1.7,3.8,3.5,5.7,5.6,5.7c2,0,3.8-1,5.4-3c1.6-2,3.7-6,6.4-12
		c4.9-10.7,7.7-17,8.5-18.9c0.8-1.9,1.2-3.4,1.2-4.5c0-2.1-1.4-3.9-4.3-5.3c-3.2-1.7-4.8-3.8-4.8-6.4c0-7.3,9.8-11,29.4-11
		c9.8,0,16.7,0.8,20.7,2.3c4,1.6,6,4.3,6,8.1c0,4.5-2.6,7.2-7.9,7.8c-3.7,0.4-6.2,1-7.3,1.8C237.8,221.1,235.5,224.6,232.8,230.1z"
		/>
	<path d="M363.9,226.7l-9.9,9.5c-3.6,3.4-5.4,6.6-5.4,9.4c0,1.5,0.4,3.1,1.2,4.6c0.8,1.5,2.4,3.6,4.7,6.3l34.5,39.9
		c3.1,3.6,5.2,5.8,6.4,6.8c1.2,1,2.9,2,5.3,3c3.3,1.4,5.7,3,7,4.7c1.4,1.7,2.1,4,2.1,6.7c0,6.5-4.6,9.8-13.9,9.8h-34.9
		c-2.4,0-4.3-0.5-5.7-1.6c-1.4-1-3.6-3.6-6.6-7.7c-4.8-6.6-11.1-14.1-19-22.7c-3.4-3.7-5.9-6.1-7.2-7.2c-1.4-1.1-2.7-1.7-3.8-1.7
		c-3.6,0-5.3,3.3-5.3,10c0,5.5,1.2,9.2,3.5,11.3c0.4,0.3,1.4,1,2.9,2c3.3,2.2,5,4.8,5,8c0,4.1-2.7,7-8.1,8.7
		c-5.4,1.8-14.5,2.6-27.3,2.6c-11.4,0-19.7-0.7-24.9-2c-2.2-0.6-4-1.7-5.4-3.4c-1.4-1.6-2.1-3.5-2.1-5.5c0-3.3,1.8-6,5.5-8.4
		c1.7-1.1,2.8-2.3,3.5-3.6c0.7-1.3,1.4-3.5,2-6.7c1.2-6.9,1.8-17.6,1.8-32.1c0-17.2-0.6-29.4-1.9-36.6c-0.5-2.9-1.2-5.1-2-6.4
		c-0.9-1.3-2.4-2.5-4.5-3.8c-3.4-2-5.2-4.7-5.2-8.2c0-2.9,1.1-5.3,3.2-7.1c2.1-1.8,5.6-3.1,10.3-4.1c6.3-1.2,14.1-1.8,23.6-1.8
		c9.6,0,16.8,0.9,21.5,2.8c4.2,1.7,6.3,4.8,6.3,9.2c0,1.8-0.3,3.3-1,4.3c-0.6,1-2.3,2.6-5,4.7c-1,0.9-1.9,2.9-2.7,6.2
		c-0.8,3.3-1.2,6.4-1.2,9.6c0,5.2,1.2,7.7,3.5,7.7c1.4,0,2.8-0.6,4.1-1.8c1.3-1.2,4-4.3,8-9.2c4.6-5.7,6.9-9.6,6.9-11.7
		c0-1.1-0.6-2.8-1.8-5c-0.8-1.5-1.2-2.9-1.2-4.2c0-4.5,2.5-7.8,7.4-9.6c4.9-1.9,13.3-2.8,25.2-2.8c9.5,0,16.5,0.6,21,1.8
		c5.6,1.5,8.4,4.8,8.4,9.8c0,2-0.6,3.8-1.8,5.5c-1.2,1.7-2.6,2.8-4.3,3.3c-1.3,0.4-4.3,0.7-8.9,0.7c-3.3,0.1-5.7,0.4-7.3,1.2
		C368.6,222.7,366.4,224.2,363.9,226.7z"/>
</g>
<rect y="1.5" class="st0" width="512" height="509"/>
</svg>
