<svg id="logo" xmlns="http://www.w3.org/2000/svg" viewBox="0 0 395.572 400.512">
  <defs>
    <style>
      .cls-1, .cls-2 {
        fill: #d31c1a;
      }

      .cls-1 {
        stroke: #d31c1a;
        stroke-miterlimit: 10;
        stroke-width: 0.25px;
      }
    </style>
  </defs>
  <title>etazhi</title>
  <path class="cls-1" d="M8,305.5c0-2,28-196,28-196L221,3.5l163,184,1.5,8.5L221,22.5v20L386.5,203l1.3,8L221,61.5v23L389.4,221l1.1,7L221,102.5v23L391.9,236l1.2,8L221,142.5v22L394.5,251l1,7L221,181.5v23l175.8,62,1.2,8-177-51v23l178.5,37,1.3,8L221,265.5v22l181,12,1.3,8Z" transform="translate(-7.875 -3.341)"/>
  <g>
    <path class="cls-2" d="M58.577,342.212a28.089,28.089,0,0,1,7.763,10.459,37.867,37.867,0,0,1,2.9,15.557,41.336,41.336,0,0,1-2.725,15.585,29.248,29.248,0,0,1-7.881,11.25,32.983,32.983,0,0,1-11.748,6.563,49.279,49.279,0,0,1-15.322,2.227,45.251,45.251,0,0,1-12.041-1.524,54.7,54.7,0,0,1-9.17-3.281v-16.7h2.7q.879.821,2.549,2.2a23.173,23.173,0,0,0,3.721,2.49,27.122,27.122,0,0,0,5.42,2.051,27.789,27.789,0,0,0,7.353.879,23.473,23.473,0,0,0,6.446-.85,14.79,14.79,0,0,0,5.156-2.549,15.764,15.764,0,0,0,3.9-4.629,19.034,19.034,0,0,0,2.08-7.031h-27.3V361.489h27.07q-1.055-6.561-5.654-9.814a17.957,17.957,0,0,0-10.635-3.252,24.407,24.407,0,0,0-6.68.82,32.269,32.269,0,0,0-5.273,1.992,22.881,22.881,0,0,0-4.043,2.549L14.1,356.157H11.409v-16.7a75.876,75.876,0,0,1,8.789-3.076,46.585,46.585,0,0,1,13.594-1.9,48.778,48.778,0,0,1,13.535,1.787A30.944,30.944,0,0,1,58.577,342.212Z" transform="translate(-7.875 -3.341)"/>
    <path class="cls-2" d="M138.482,350.591h-20.39v51.5H97.584v-51.5H77.193v-14.3h61.289Z" transform="translate(-7.875 -3.341)"/>
    <path class="cls-2" d="M187.51,395.122q-2.109,1.758-3.78,3.164a22.926,22.926,0,0,1-4.482,2.813,29.97,29.97,0,0,1-5.361,2.05,29.4,29.4,0,0,1-7.295.7,19.512,19.512,0,0,1-14.5-5.86,20.175,20.175,0,0,1-5.772-14.765q0-7.324,2.93-11.836a20.109,20.109,0,0,1,8.438-7.149,44.185,44.185,0,0,1,13.3-3.75q7.736-1.054,16.641-1.64V358.5q0-5.449-4.014-7.529t-12.041-2.08a33.076,33.076,0,0,0-8.5,1.318,66.048,66.048,0,0,0-9.492,3.369h-1.758V337.7q3.045-.879,9.844-2.08a78.7,78.7,0,0,1,13.711-1.2q16.992,0,24.756,5.654t7.763,17.256V402.1H187.51Zm0-10.195V371.216q-5.217.526-8.438.908a28.8,28.8,0,0,0-6.328,1.494,8.86,8.86,0,0,0-4.189,2.842,7.984,7.984,0,0,0-1.494,5.068q0,4.629,2.49,6.358t7.353,1.728a13.69,13.69,0,0,0,5.508-1.23A17.079,17.079,0,0,0,187.51,384.927Z" transform="translate(-7.875 -3.341)"/>
    <path class="cls-2" d="M325.482,402.1H302.4l-14.531-25.84h-4.98V402.1H262.494v-25.84h-4.98L242.689,402.1H220.131l19.394-33.223a7.5,7.5,0,0,1-2.255-2.607,33.842,33.842,0,0,1-2.022-4.541,15.53,15.53,0,0,0-3.34-5.8,6.551,6.551,0,0,0-4.746-1.817h-4.394V336.294q1.054,0,3.4-.059t4.805-.058a22.891,22.891,0,0,1,11.074,2.431q4.452,2.431,7.207,8.7.585,1.349,1.494,3.6t1.67,4.072q2.226,4.923,3.955,6.5t6.123,1.582V336.294h20.391v26.777q4.394-.057,6.094-1.552t3.984-6.534q.585-1.406,1.553-3.779t1.611-3.9q2.754-6.21,7.266-8.672a22.721,22.721,0,0,1,11.015-2.461q2.227,0,4.776.058t3.427.059v17.578h-4.394a6.874,6.874,0,0,0-4.541,1.582,13.441,13.441,0,0,0-3.428,5.332q-.937,2.52-1.9,4.512a9.277,9.277,0,0,1-2.49,3.223Z" transform="translate(-7.875 -3.341)"/>
    <path class="cls-2" d="M400.524,402.1H380.368V362.134L355.173,402.1H338.005v-65.8h20.156v35.742l23.086-35.742h19.277Z" transform="translate(-7.875 -3.341)"/>
  </g>
</svg>
