<svg id="logo" xmlns="http://www.w3.org/2000/svg" viewBox="0 0 253.176 230.472">
  <defs>
    <style>
      .cls-1 {
        fill: none;
        stroke: #e6e6e6;
        stroke-width: 18px;
      }

      .cls-1, .cls-2, .cls-3 {
        stroke-miterlimit: 10;
      }

      .cls-2, .cls-3 {
        fill: #f6002b;
        stroke: #f6002b;
      }

      .cls-2 {
        stroke-width: 0.75px;
      }

      .cls-4 {
        font-size: 43px;
        font-family: Tahoma-Bold, Tahoma;
        letter-spacing: 0.037em;
      }

      .cls-4, .cls-5 {
        fill: #1a1a1a;
        font-weight: 700;
      }

      .cls-5 {
        font-size: 14px;
        font-family: Verdana-Bold, Verdana;
        letter-spacing: 0.262em;
      }
    </style>
  </defs>
  <title>sakura</title>
  <rect class="cls-1" x="48.076" y="9" width="158" height="158"/>
  <path class="cls-2" d="M122.5,22c12.582,9.07,27.461,14.434,41,22,7.885,4.407,14.313,7.966,23.5,11.5,6.139,2.361,10.759,3.574,20,6,8.853,2.324,10.513,2.261,12,2s3.16-.781,5,0c2.851,1.21,3.891,4.622,4,5,1.752,6.049-4.129,15.067-12,18-4.47,1.665-8.493.962-14,0a53.581,53.581,0,0,1-15-5c-15.348-7.747-30.7-19.645-35-23,0,0-19.541-16.734-29-28-2.91-3.466-6.234-6.141-6-8a2.663,2.663,0,0,1,1-2C119.393,19.7,121.792,21.49,122.5,22Z" transform="translate(-3.424 -19)"/>
  <path class="cls-2" d="M32,98.5c.412-3.36,7.752-3.732,19-8,7.255-2.753,11.837-5.5,21-11a191,191,0,0,0,26-19c27.944-23.565,43.565-41.189,45-40,1.1.909-7.221,12.231-15,22-13.528,16.988-42.069,44.716-50,52a70.658,70.658,0,0,1-16,11c-4.024,2.008-6.484,2.721-9,3a22.811,22.811,0,0,1-12-2C39.609,105.857,31.555,102.13,32,98.5Z" transform="translate(-3.424 -19)"/>
  <path class="cls-2" d="M168,72.5c7,43,16,73,19,89,.31,1.651-5.658,2.447-10,1-3-1-18-51-15-63,.195-.779,2.634-2.777,3-6a9.372,9.372,0,0,0-3-8,9.64,9.64,0,0,0-6-2c-16.071-.626-27,0-43,0-1.458,0-3.889,1.56-6,4-2.172,2.511-4.617,7.32-3,11,1.056,2.4,3.454,3.436,3,5-.258.887-1.131.907-2,2-1.387,1.745-4,23-4,36a8.443,8.443,0,0,0,4,7c2.217,1.4,4.676,1,6,1h30c2.013,0,3.807,1.724,7,2s6.172.534,9-1a4.912,4.912,0,0,1,3-1,4.027,4.027,0,0,1,3,2,20.542,20.542,0,0,1,0,11c-1.193,3.579-3,4-8,4l-57,1c-5,0-7.857-5.665-8-7-3-28,14-88,14-88Z" transform="translate(-3.424 -19)"/>
  <path class="cls-2" d="M193,138.5c0-4.911,7.514,8.5,18,9,21,1,35-7,43-6,3.15.394,2.047,6.109,2,7-.266,5.062-4.214,9.272-8,11-5.507,2.513-10.529-.289-17-2-21.188-5.6-42,4-40,0C195.243,149.015,193,145.5,193,138.5Z" transform="translate(-3.424 -19)"/>
  <path class="cls-3" d="M222,165.5c2.279-3.994,12.308-2.677,19,0,5.622,2.249,10.446,6.079,10,7-.362.748-3.837-1.175-10-2-10.647-1.425-16.965,2.082-19-1A4.038,4.038,0,0,1,222,165.5Z" transform="translate(-3.424 -19)"/>
  <path class="cls-2" d="M4,221.5c30-20,64-39,100-43,5.307-.59,21.371-4.351,41-1,7.632,1.3,17.165,3.838,17,5-.186,1.308-12.566.117-22,0-25.522-.316-49.436,6.989-65,15-33.5,17.243-40,23-56,40Z" transform="translate(-3.424 -19)"/>
  <text class="cls-4" transform="translate(36.378 211.962)">САКУРА</text>
  <text class="cls-5" transform="translate(39.831 226.227)">НЕДВИЖИМОСТЬ</text>
</svg>
