<svg id="logo" xmlns="http://www.w3.org/2000/svg" viewBox="0 0 500 500">
  <defs>
    <style>
      .cls-1 {
        fill: #cdcdcd;
      }

      .cls-1, .cls-4, .cls-5, .cls-8 {
        stroke: #000;
      }

      .cls-1, .cls-2, .cls-3, .cls-4, .cls-5, .cls-6, .cls-8 {
        stroke-miterlimit: 10;
      }

      .cls-2, .cls-6, .cls-8 {
        fill: #285d9f;
      }

      .cls-2, .cls-6 {
        stroke: #285d9f;
      }

      .cls-3, .cls-7 {
        fill: #fff;
      }

      .cls-3 {
        stroke: #fff;
      }

      .cls-4 {
        fill: none;
      }

      .cls-6 {
        stroke-width: 0.25px;
      }

      .cls-8 {
        stroke-width: 0.5px;
      }
    </style>
  </defs>
  <title>tysyacheletiye</title>
  <polygon class="cls-1" points="245.5 234.5 426.5 234.5 417.5 185.5 245.5 92.774 73.5 185.5 64.5 234.5 245.5 234.5"/>
  <polygon class="cls-2" points="245.5 196.5 387.5 196.5 391.5 190.5 245.5 111.792 99.5 190.5 103.5 196.5 245.5 196.5"/>
  <polygon class="cls-3" points="245.5 186.5 341.5 186.5 245.5 133.528 149.5 186.5 245.5 186.5"/>
  <polygon class="cls-4" points="245.5 416.5 463.5 416.5 445.5 358.472 245.5 358.472 45.5 358.472 27.5 416.5 245.5 416.5"/>
  <polyline class="cls-5" points="438.236 358.472 418.5 235 73.5 235 53.764 358.472 436.406 358.472"/>
  <path class="cls-6" d="M77.5,244H121l-5,36a31.17,31.17,0,0,1,5,0,11.328,11.328,0,0,1,7,6l6-42h14.5c-2.249,17.757-2.643,21.98-2.5,22a49.8,49.8,0,0,1,4-13c1.671-3.431,3.323-7.714,7-10a13.177,13.177,0,0,1,10-1c5.617,1.835,7.473,8.974,8,11,1.128,4.34.517,7.956,1,8,.525.047.728-4.273,3-9a33.543,33.543,0,0,1,6-8H366.358L370,267l1.623-23H413l5,26H404l1.5,9H419l6,28H410l2,11h15l6,29H385l-4-24-1,24H365l-9-73h-6l9,73H341l-7-73H315l.5,6H327l3,27H316l1,13h15l3,27H287l-1-13h-2s1,8-5,13H222l1-30a8.766,8.766,0,0,1-10,2c-3.056-1.415-7.02-8.554-7-12l-2,40H164s-11,11-21,0H90l12-73H96L83,347H67l14-74H72Z"/>
  <g>
    <path class="cls-7" d="M80.4,246.665h25.822c-1.53,9.7-2.3,14.544-3.826,24.24H93.5Q87.3,307.87,81.106,344.834H71.669L84.77,270.9h-8.9C77.682,261.209,78.589,256.361,80.4,246.665Z"/>
    <path class="cls-7" d="M113.139,284.5h4.732c4.342,0,7.207,2.622,8.651,7.868s1.5,13.405.118,24.476q-1.7,13.594-5.647,20.791c-2.647,4.8-5.91,7.2-9.743,7.2H95.042q7.531-49.084,15.064-98.169h8.477Q115.861,265.583,113.139,284.5Zm-5.646,39.241h4.729q4.343,0,5.729-10.312,1.217-9.04-3.039-9.041h-4.634Zm29.993-77.076H146l-11.085,98.169h-9.458Q131.472,295.75,137.486,246.665Z"/>
    <path class="cls-7" d="M164.95,304.656c2.9,3.214,4.359,4.821,7.31,8.036a124.4,124.4,0,0,1-4.037,18.683q-2.369,7.5-5.345,11.316a8.792,8.792,0,0,1-7.095,3.817,8.442,8.442,0,0,1-7.685-4.651c-1.789-3.1-3.037-8.557-3.708-16.36-.86-10-.062-20.249.982-29.982,1.336-12.457,3.2-25.481,7.708-37.442,3.27-8.683,7.186-13.082,11.6-13.082,3.456,0,5.95,2.5,7.531,7.5s2.465,12.679,2.654,23.034c-3.284,2.385-4.936,3.577-8.26,5.961a60.82,60.82,0,0,0-.286-6.563A18.248,18.248,0,0,0,165,269.566q-.891-1.873-2.195-1.875c-1.971,0-3.732,2.778-5.333,8.294-1.189,4.1-2.235,10.546-3.1,19.329q-1.6,16.323-.695,22.374t3.656,6.053q2.651,0,4.436-4.888A77.792,77.792,0,0,0,164.95,304.656Z"/>
    <path class="cls-7" d="M191.875,344.834l2.192-39.843h-.8c-.826,0-1.625.765-2.352,2.277a43.562,43.562,0,0,0-2.1,7.567q-3.34,15.017-6.844,30H171.311q3.369-14.207,6.6-28.446.477-2.143,1.711-6.1a47.367,47.367,0,0,1,1.809-5.161,14.246,14.246,0,0,1,2.6-3.62,9.778,9.778,0,0,1-2.9-3.883,33.916,33.916,0,0,1-2.142-9.61,82.974,82.974,0,0,1,.013-14.1,86.223,86.223,0,0,1,2.459-15.9q1.761-6.529,4.009-8.939a8.047,8.047,0,0,1,6.185-2.411h14.16l-4.455,98.169Zm4.31-78.349h-3.816a3.516,3.516,0,0,0-3.4,2.545,24.567,24.567,0,0,0-1.331,7.3,25.806,25.806,0,0,0,.193,5.691q.4,2.478,1.244,3.081a5.185,5.185,0,0,0,2.269,1.34h3.743C195.526,278.459,195.746,274.468,196.185,266.485Z"/>
    <path class="cls-7" d="M235.688,344.834H226.25q.366-18.248.733-36.494c-2.885,5.134-5.622,7.7-8.143,7.7-3.021,0-5.419-2.957-7.141-8.873s-2.354-14.03-1.948-24.342l1.422-36.16h8.5q-.448,15.066-.9,30.133a46.313,46.313,0,0,0,.672,11.049q.89,3.885,2.786,3.885c2.339,0,4.089-2.366,5.228-7.1l.762-37.968h8.5Z"/>
    <path class="cls-7" d="M242.325,246.665h22.769c.181,8.383.271,12.575.452,20.959H250.954l.085,15.6h13.768c.163,8.01.245,12.014.408,20.023H251.149l.106,19.353h15.923c.2,8.893.294,13.34.489,22.232h-25.75Z"/>
    <path class="cls-7" d="M300.815,344.834h-9.437q-1.709-37.032-3.416-74.063h-6.82l1.166,30.2q.72,18.617.452,27.355t-2.377,12.823q-2.109,4.084-7.162,4.084a7.857,7.857,0,0,1-3.569-1.071c-.191-7.954-.287-11.932-.478-19.887h1.387q1.877,0,2.575-2.712t.484-9.945l-1.887-64.955h23.612Q298.08,295.749,300.815,344.834Z"/>
    <path class="cls-7" d="M300.953,246.665h22.769c.735,8.383,1.1,12.575,1.839,20.959H310.97c.447,6.241.671,9.361,1.118,15.6h13.767c.694,8.01,1.041,12.014,1.734,20.023H313.523c.555,7.742.832,11.612,1.387,19.353h15.923c.785,8.893,1.177,13.34,1.962,22.232h-25.75Q304,295.75,300.953,246.665Z"/>
    <path class="cls-7" d="M326.778,246.665H352.6c1.167,9.7,1.751,14.544,2.918,24.24h-8.9l8.176,73.929h-9.438L337.89,270.9h-8.9C328.105,261.209,327.662,256.361,326.778,246.665Z"/>
    <path class="cls-7" d="M382.759,246.665q7.579,49.084,15.16,98.169h-8.875q-3.919-26.954-7.838-53.906-1.551,26.973-3.588,53.906h-8.906q-6.123-49.084-12.245-98.169h8.007l7.266,54.308q1.783-27.144,3.073-54.308Z"/>
    <path class="cls-7" d="M388.421,246.665h22.766l3.91,20.959h-14.59c1.064,6.241,1.6,9.361,2.659,15.6h13.766c1.485,8.01,2.227,12.014,3.712,20.023H406.579c1.319,7.742,1.979,11.612,3.3,19.353H425.8c1.663,8.893,2.494,13.34,4.157,22.232H404.209Q396.315,295.75,388.421,246.665Z"/>
  </g>
  <g>
    <path class="cls-8" d="M69.213,401.717H65.231l-1.594-5.026H56.353l-1.5,5.026H50.943l7.086-22.191H61.92Zm-6.758-8.779L59.942,384.7l-2.465,8.235Z"/>
    <path class="cls-8" d="M71.211,401.717V379.708H84.017v3.754H74.875v18.255Z"/>
    <path class="cls-8" d="M86.439,401.717V379.526h13.5v3.754H90.1V388.2h9.143v3.739H90.1v6.025h10.172v3.754Z"/>
    <path class="cls-8" d="M103.392,401.717V379.526h3.663v8.734h7.22v-8.734h3.663v22.191h-3.663v-9.7h-7.22v9.7Z"/>
    <path class="cls-8" d="M125.825,401.717V383.28h-5.4v-3.754h14.455v3.754h-5.388v18.437Z"/>
    <path class="cls-8" d="M148.908,393.559l3.557,1.377a9.968,9.968,0,0,1-2.77,5.441,6.931,6.931,0,0,1-4.768,1.719,7.058,7.058,0,0,1-5.767-2.741q-2.542-3.164-2.543-8.537,0-5.676,2.561-8.884a7.263,7.263,0,0,1,5.985-2.786,6.906,6.906,0,0,1,5.121,2.088,9.078,9.078,0,0,1,2.151,4.406L148.8,386.7a4.921,4.921,0,0,0-1.387-2.763,3.491,3.491,0,0,0-2.449-.96,3.9,3.9,0,0,0-3.291,1.755q-1.274,1.757-1.274,5.8,0,4.193,1.242,5.963a3.776,3.776,0,0,0,3.224,1.772,3.334,3.334,0,0,0,2.512-1.128A7.151,7.151,0,0,0,148.908,393.559Z"/>
    <path class="cls-8" d="M159.7,401.717V383.28h-5.4v-3.754h14.455v3.754h-5.388v18.437Z"/>
    <path class="cls-8" d="M171.129,379.526h7.288a11.3,11.3,0,0,1,4.2.545,4.649,4.649,0,0,1,2.045,1.923,6.24,6.24,0,0,1,.119,6.017,4.684,4.684,0,0,1-1.854,1.915,4.91,4.91,0,0,1,2.532,1.967,6.037,6.037,0,0,1,.915,3.39,6.983,6.983,0,0,1-1.166,4.095,4.781,4.781,0,0,1-2.755,2.066,28.461,28.461,0,0,1-5.131.273h-6.191Zm3.663,3.694v5.132h2.422a26.514,26.514,0,0,0,2.694-.077,2.287,2.287,0,0,0,1.468-.795,2.666,2.666,0,0,0,.53-1.748,2.708,2.708,0,0,0-.431-1.6,1.8,1.8,0,0,0-1.044-.765,22.428,22.428,0,0,0-3.52-.151Zm0,8.825v5.918h3.413a10.69,10.69,0,0,0,2.881-.234,2.14,2.14,0,0,0,1.069-.921,3.715,3.715,0,0,0-.03-3.533,2.36,2.36,0,0,0-1.229-.966,11.7,11.7,0,0,0-3.131-.264Z"/>
    <path class="cls-8" d="M188.733,390.758a15.756,15.756,0,0,1,1.173-6.531,8.838,8.838,0,0,1,3.065-3.823,8.1,8.1,0,0,1,4.587-1.256,7.87,7.87,0,0,1,6.365,2.982q2.46,2.982,2.459,8.491,0,5.571-2.6,8.7a8.4,8.4,0,0,1-12.443.03Q188.734,396.223,188.733,390.758Zm3.784-.152a9.432,9.432,0,0,0,1.455,5.745,4.38,4.38,0,0,0,3.608,1.915,4.325,4.325,0,0,0,3.593-1.9q1.425-1.9,1.425-5.835,0-3.861-1.387-5.707a4.332,4.332,0,0,0-3.631-1.846,4.378,4.378,0,0,0-3.653,1.862Q192.517,386.7,192.517,390.606Z"/>
    <path class="cls-8" d="M216.342,401.717V379.526h3.663v8.734h7.221v-8.734h3.663v22.191h-3.663v-9.7h-7.221v9.7Z"/>
    <path class="cls-8" d="M234.688,401.717V379.526h13.5v3.754h-9.837V388.2h9.142v3.739h-9.142v6.025h10.171v3.754Z"/>
    <path class="cls-8" d="M265.658,397.963h1.574v8.582H264.22v-4.828H252.73v4.828h-3.011v-8.582h1.513a26.633,26.633,0,0,0,1.377-5.631,73.319,73.319,0,0,0,.485-9.839v-2.967h12.564Zm-3.664-14.683h-5.418q0,9.813-1.5,14.683h6.917Z"/>
    <path class="cls-8" d="M269.729,379.526h7.289a11.3,11.3,0,0,1,4.2.545,4.651,4.651,0,0,1,2.046,1.923,6.247,6.247,0,0,1,.119,6.017,4.692,4.692,0,0,1-1.855,1.915,4.909,4.909,0,0,1,2.533,1.967,6.045,6.045,0,0,1,.915,3.39,6.983,6.983,0,0,1-1.166,4.095,4.787,4.787,0,0,1-2.755,2.066,28.475,28.475,0,0,1-5.132.273h-6.191Zm3.664,3.694v5.132h2.421a26.525,26.525,0,0,0,2.695-.077,2.287,2.287,0,0,0,1.468-.795,2.666,2.666,0,0,0,.53-1.748,2.709,2.709,0,0,0-.432-1.6,1.8,1.8,0,0,0-1.044-.765,22.412,22.412,0,0,0-3.519-.151Zm0,8.825v5.918h3.412a10.7,10.7,0,0,0,2.882-.234,2.144,2.144,0,0,0,1.069-.921,3.715,3.715,0,0,0-.03-3.533,2.36,2.36,0,0,0-1.229-.966,11.71,11.71,0,0,0-3.132-.264Z"/>
    <path class="cls-8" d="M288.09,401.717V379.526h3.5v14.788l7.372-14.788h3.678v22.191h-3.5V387.246l-7.364,14.471Z"/>
    <path class="cls-8" d="M314.246,379.526h3.5v9.446a1.834,1.834,0,0,0,1.468-.886,21.966,21.966,0,0,0,1.393-3.762,8.852,8.852,0,0,1,2.058-3.965q1.137-.984,4.359-1v3.33h-.531a2.533,2.533,0,0,0-2.109.718,10.073,10.073,0,0,0-1.186,2.96,9.909,9.909,0,0,1-1.107,2.839,4.929,4.929,0,0,1-1.182,1.067,4.465,4.465,0,0,1,1.848,1.461,18.434,18.434,0,0,1,1.967,3.912l2.482,6.071h-4.315l-2.2-5.735A19.1,19.1,0,0,0,319.314,393a1.693,1.693,0,0,0-1.571-.985v9.7h-3.5v-9.7a1.683,1.683,0,0,0-1.443.81,15.02,15.02,0,0,0-1.489,3.157l-2.214,5.736h-4.314l2.483-6.071a22.415,22.415,0,0,1,1.854-3.753,4.382,4.382,0,0,1,1.96-1.62,4.856,4.856,0,0,1-1.324-1.316,13.726,13.726,0,0,1-1.03-2.816,8.339,8.339,0,0,0-1.226-2.853,3.156,3.156,0,0,0-2.521-.6v-3.33q3.214-.029,4.359,1.006a9.187,9.187,0,0,1,2.063,3.989,22.332,22.332,0,0,0,1.389,3.74,1.783,1.783,0,0,0,1.453.878Z"/>
    <path class="cls-8" d="M329.353,401.717V379.526h3.5v14.788l7.372-14.788H343.9v22.191h-3.5V387.246l-7.363,14.471Z"/>
    <path class="cls-8" d="M347.577,401.717V379.526h5.494l3.309,15.152,3.282-15.152h5.52v22.191h-3.421V384.234l-3.627,17.483H354.6L351,384.234v17.483Z"/>
    <path class="cls-8" d="M368.059,390.758a15.757,15.757,0,0,1,1.172-6.531A8.84,8.84,0,0,1,372.3,380.4a8.1,8.1,0,0,1,4.586-1.256,7.871,7.871,0,0,1,6.365,2.982q2.46,2.982,2.459,8.491,0,5.571-2.6,8.7a8.4,8.4,0,0,1-12.442.03Q368.058,396.223,368.059,390.758Zm3.783-.152a9.425,9.425,0,0,0,1.456,5.745,4.38,4.38,0,0,0,3.607,1.915,4.324,4.324,0,0,0,3.593-1.9q1.425-1.9,1.426-5.835,0-3.861-1.388-5.707a4.332,4.332,0,0,0-3.631-1.846,4.379,4.379,0,0,0-3.653,1.862Q371.843,386.7,371.842,390.606Z"/>
    <path class="cls-8" d="M400.238,393.559l3.557,1.377a9.968,9.968,0,0,1-2.77,5.441,6.929,6.929,0,0,1-4.767,1.719,7.06,7.06,0,0,1-5.768-2.741q-2.543-3.164-2.543-8.537,0-5.676,2.561-8.884a7.261,7.261,0,0,1,5.984-2.786,6.9,6.9,0,0,1,5.121,2.088,9.071,9.071,0,0,1,2.153,4.406l-3.633,1.059a4.921,4.921,0,0,0-1.388-2.763,3.491,3.491,0,0,0-2.449-.96,3.9,3.9,0,0,0-3.291,1.755q-1.274,1.757-1.274,5.8,0,4.193,1.242,5.963a3.777,3.777,0,0,0,3.224,1.772,3.332,3.332,0,0,0,2.512-1.128A7.133,7.133,0,0,0,400.238,393.559Z"/>
    <path class="cls-8" d="M411.031,401.717V383.28h-5.4v-3.754h14.455v3.754h-5.389v18.437Z"/>
    <path class="cls-8" d="M422.474,401.717V379.526h3.5v14.788l7.372-14.788h3.678v22.191h-3.5V387.246l-7.363,14.471Z"/>
  </g>
  <g>
    <path d="M114.293,225.208l-6.908-15.043v11.944a3.651,3.651,0,0,0,.356,2.057,1.954,1.954,0,0,0,1.542.554h.633v.488h-6.223v-.488h.633a1.818,1.818,0,0,0,1.609-.686,4.005,4.005,0,0,0,.29-1.925v-11.68a4.079,4.079,0,0,0-.264-1.714,1.463,1.463,0,0,0-.679-.639,3.632,3.632,0,0,0-1.589-.258v-.487h5.063l6.486,13.987,6.381-13.987h5.063v.487h-.62a1.833,1.833,0,0,0-1.622.686,4.005,4.005,0,0,0-.29,1.925v11.68a3.548,3.548,0,0,0,.369,2.057,1.957,1.957,0,0,0,1.543.554h.62v.488h-7.594v-.488h.633a1.8,1.8,0,0,0,1.608-.686,4.005,4.005,0,0,0,.29-1.925V210.165l-6.9,15.043Z"/>
    <path d="M151.785,224.72v.488h-7.66v-.488h.633a1.91,1.91,0,0,0,1.608-.646,4.016,4.016,0,0,0,.317-2.031V210.5a5.919,5.919,0,0,0-.172-1.793,1.187,1.187,0,0,0-.54-.567,2.5,2.5,0,0,0-1.213-.317h-.633v-.487h7.66v.487h-.646a1.9,1.9,0,0,0-1.6.646,3.888,3.888,0,0,0-.329,2.031v11.548a5.929,5.929,0,0,0,.171,1.793,1.181,1.181,0,0,0,.554.567,2.426,2.426,0,0,0,1.2.317Z"/>
    <path d="M184.121,220.264l.435.092-1.529,4.852H169.184v-.488h.672a1.8,1.8,0,0,0,1.622-.739,4.246,4.246,0,0,0,.277-1.951V210.5a3.7,3.7,0,0,0-.369-2.1,1.941,1.941,0,0,0-1.53-.58h-.672v-.487h8.095v.487a4.951,4.951,0,0,0-2,.264,1.618,1.618,0,0,0-.784.7,5.739,5.739,0,0,0-.211,2.017V222.03a3.645,3.645,0,0,0,.211,1.5.943.943,0,0,0,.488.409,8.55,8.55,0,0,0,2.057.132h1.305a9.463,9.463,0,0,0,2.887-.3,3.768,3.768,0,0,0,1.516-1.075A8.807,8.807,0,0,0,184.121,220.264Z"/>
    <path d="M216.814,220.264l.434.092-1.529,4.852H201.877v-.488h.672a1.794,1.794,0,0,0,1.621-.739,4.246,4.246,0,0,0,.277-1.951V210.5a3.7,3.7,0,0,0-.369-2.1,1.936,1.936,0,0,0-1.529-.58h-.672v-.487h8.094v.487a4.933,4.933,0,0,0-2,.264,1.619,1.619,0,0,0-.786.7,5.773,5.773,0,0,0-.21,2.017V222.03a3.666,3.666,0,0,0,.21,1.5.941.941,0,0,0,.489.409,8.527,8.527,0,0,0,2.056.132h1.3a9.459,9.459,0,0,0,2.887-.3,3.771,3.771,0,0,0,1.517-1.075A8.807,8.807,0,0,0,216.814,220.264Z"/>
    <path d="M239.672,208.306v7.067H243.6a3.2,3.2,0,0,0,2.044-.462,2.974,2.974,0,0,0,.763-2.136h.488V219h-.488a6.8,6.8,0,0,0-.369-1.674,1.643,1.643,0,0,0-.777-.725,3.969,3.969,0,0,0-1.661-.264h-3.929v5.893a5.49,5.49,0,0,0,.1,1.443.84.84,0,0,0,.369.41,2.246,2.246,0,0,0,1,.151h3.033a8.21,8.21,0,0,0,2.2-.211,3.286,3.286,0,0,0,1.318-.831,10.134,10.134,0,0,0,1.674-2.465h.527l-1.543,4.483H234.583v-.488h.633a2.513,2.513,0,0,0,1.2-.3,1.114,1.114,0,0,0,.573-.633,6.206,6.206,0,0,0,.152-1.727V210.442a3.846,3.846,0,0,0-.343-2.1,2.042,2.042,0,0,0-1.582-.528h-.633v-.487h13.776l.2,3.915h-.515a6.206,6.206,0,0,0-.612-1.938,2.115,2.115,0,0,0-1-.8,5.978,5.978,0,0,0-1.86-.2Z"/>
    <path d="M266.366,207.331h4.852l10.928,13.407V210.429a3.551,3.551,0,0,0-.369-2.057,1.954,1.954,0,0,0-1.542-.554h-.62v-.487h6.223v.487h-.633a1.815,1.815,0,0,0-1.608.686,3.993,3.993,0,0,0-.29,1.925V225.5h-.475l-11.786-14.4v11.008a3.672,3.672,0,0,0,.355,2.057,1.982,1.982,0,0,0,1.543.554h.633v.488h-6.223v-.488h.62a1.833,1.833,0,0,0,1.622-.686,4.005,4.005,0,0,0,.29-1.925V209.677a8.162,8.162,0,0,0-1.18-1.2,4.32,4.32,0,0,0-1.18-.541,4.206,4.206,0,0,0-1.16-.119Z"/>
    <path d="M310.753,224.72v.488h-7.66v-.488h.633a1.914,1.914,0,0,0,1.609-.646,4.019,4.019,0,0,0,.316-2.031V210.5a5.885,5.885,0,0,0-.172-1.793,1.181,1.181,0,0,0-.541-.567,2.5,2.5,0,0,0-1.212-.317h-.633v-.487h7.66v.487h-.647a1.893,1.893,0,0,0-1.594.646,3.877,3.877,0,0,0-.329,2.031v11.548a5.9,5.9,0,0,0,.171,1.793,1.174,1.174,0,0,0,.553.567,2.425,2.425,0,0,0,1.2.317Z"/>
    <path d="M340.493,207.818v-.487h6.328v.487h-.673a1.817,1.817,0,0,0-1.622.884,4.055,4.055,0,0,0-.276,1.9v7.251a12.817,12.817,0,0,1-.534,4.173,5.241,5.241,0,0,1-2.1,2.544,7.476,7.476,0,0,1-4.252,1.061,8.006,8.006,0,0,1-4.443-1.015,5.492,5.492,0,0,1-2.149-2.729,15.154,15.154,0,0,1-.422-4.4V210.5a3.493,3.493,0,0,0-.455-2.162,1.867,1.867,0,0,0-1.469-.515h-.673v-.487h7.726v.487H334.8a1.772,1.772,0,0,0-1.582.7,3.888,3.888,0,0,0-.33,1.978v7.791a17.078,17.078,0,0,0,.191,2.386,5.074,5.074,0,0,0,.692,2.1,3.76,3.76,0,0,0,1.444,1.239,4.989,4.989,0,0,0,2.313.488,6.379,6.379,0,0,0,3.138-.765,4.094,4.094,0,0,0,1.892-1.958,11.326,11.326,0,0,0,.507-4.041V210.5a3.7,3.7,0,0,0-.369-2.1,1.937,1.937,0,0,0-1.529-.58Z"/>
    <path d="M374.358,225.208l-6.908-15.043v11.944a3.639,3.639,0,0,0,.357,2.057,1.952,1.952,0,0,0,1.542.554h.632v.488h-6.222v-.488h.633a1.816,1.816,0,0,0,1.608-.686,4.005,4.005,0,0,0,.29-1.925v-11.68a4.079,4.079,0,0,0-.264-1.714,1.46,1.46,0,0,0-.678-.639,3.635,3.635,0,0,0-1.589-.258v-.487h5.062l6.487,13.987,6.38-13.987h5.063v.487h-.62a1.831,1.831,0,0,0-1.621.686,3.993,3.993,0,0,0-.29,1.925v11.68a3.548,3.548,0,0,0,.369,2.057,1.954,1.954,0,0,0,1.542.554h.62v.488h-7.594v-.488h.633a1.794,1.794,0,0,0,1.608-.686,3.993,3.993,0,0,0,.29-1.925V210.165l-6.895,15.043Z"/>
  </g>
</svg>
