<?xml version="1.0" encoding="utf-8"?>
<!-- Generator: Adobe Illustrator 23.0.3, SVG Export Plug-In . SVG Version: 6.00 Build 0)  -->
<svg version="1.1" id="Слой_1" xmlns="http://www.w3.org/2000/svg" xmlns:xlink="http://www.w3.org/1999/xlink" x="0px" y="0px"
	 viewBox="0 0 310 104.1" style="enable-background:new 0 0 310 104.1;" xml:space="preserve">
<style type="text/css">
	.st0{clip-path:url(#SVGID_2_);}
	.st1{fill-rule:evenodd;clip-rule:evenodd;fill:url(#SVGID_3_);}
	.st2{fill-rule:evenodd;clip-rule:evenodd;}
	.st3{fill-rule:evenodd;clip-rule:evenodd;fill:#BA7D25;}
</style>
<g>
	<g>
		<defs>
			<rect id="SVGID_1_" x="-28" y="4.4" width="360" height="96.9"/>
		</defs>
		<clipPath id="SVGID_2_">
			<use xlink:href="#SVGID_1_"  style="overflow:visible;"/>
		</clipPath>
		<g class="st0">
			
				<linearGradient id="SVGID_3_" gradientUnits="userSpaceOnUse" x1="182.0732" y1="273.0649" x2="143.496" y2="214.3437" gradientTransform="matrix(1 0 0 1 0 -189.6631)">
				<stop  offset="0" style="stop-color:#774327"/>
				<stop  offset="0.35" style="stop-color:#B1843B"/>
				<stop  offset="0.7" style="stop-color:#D7B46A"/>
				<stop  offset="1" style="stop-color:#D7B46A"/>
			</linearGradient>
			<path class="st1" d="M191.4,9.5c-0.4,0.1-0.6,0-0.6,0.4c0.5,0,1.3,0.1,1.7-0.3V9.4L191.4,9.5L191.4,9.5z M112.3,65.4h0.7v0.1
				L112.3,65.4L112.3,65.4z M110.9,65.3h0.6v0.1L110.9,65.3L110.9,65.3L110.9,65.3z M110.1,65.1v0.2h-0.3v0.3h3.4l0,0h0.4v-0.4
				l-3.3-0.3L110.1,65.1L110.1,65.1z M151.1,52.7l0.1-1.6h0.1v2.1h-0.2L151.1,52.7L151.1,52.7z M145.9,51.9l0.1-0.3v1.5l-0.2,0.1
				L145.9,51.9z M149.6,52.5c0.3-0.7,0.2-1.3,0.2-2h0.1v2.6l-0.2,0.1L149.6,52.5L149.6,52.5z M147.1,53.2H147l0.1-1.3h0.2
				L147.1,53.2z M148.3,52.5l0.1-1.3h0.1v2h-0.2L148.3,52.5L148.3,52.5z M144.6,53.2l-0.2,0.1l0.2-1.2v-1.6h0.1L144.6,53.2
				L144.6,53.2z M143.2,52.5l0.1-0.9h0.1l-0.1,1.4L143.2,52.5z M143.2,49.9h0.2v0.2h-0.2V49.9L143.2,49.9z M144.5,49.9
				c0.1-0.1,0.4,0.1,0.1,0C144.6,49.9,144.4,49.9,144.5,49.9z M144.6,49.4l-2.9,0.1c0,0.3,0,0.5,0.3,0.7l0.2,4.1l0.2,0.2h0.4
				c0.1-0.1,0.2-0.2,0.3-0.4h0.1l0.1,0.3c0.5,0.2,1.1,0.2,1.1-0.4h0.2l0.1,0.4h0.6c0.2-0.2,0.4-0.4,0.5-0.6v0.5l0.3,0.2h0.5
				c0.2-0.1,0.2-0.4,0.3-0.5h0.1l0.2,0.4l0.5-0.1v-0.4l0.6-0.2v0.5l0.6,0.1c0.3-0.2,0.2-0.5,0.6-0.5l0.1,0.4c0.2,0.2,0.6,0.1,0.8,0
				l0.2-0.3h0.2l0.2,0.4h0.5l0.1-1l0.3-0.2l0.1-4L144.6,49.4L144.6,49.4z M161,53.1h0.1v0.5H161V53.1z M157.3,52.4l0.1-0.1v-1.8h0.1
				v2.7l-0.2-0.1L157.3,52.4L157.3,52.4z M155.9,50.5l0.1,2.6l-0.2,0.1L155.9,50.5L155.9,50.5z M158.9,52.4l0.2-0.6v1.4l-0.2-0.1
				V52.4L158.9,52.4z M157.4,49.7h0.2v0.2h-0.2V49.7z M155.8,49.7h0.2v0.2h-0.2V49.7z M154.3,53.3l0.1,0.4c-0.2,0.2-0.2,0.4-0.2,0.6
				h0.3v0.4c0.6,0,1.2-0.1,1.4-0.6l0.2,0.4h1.1l0.2-0.4l0.2-0.1v0.4l1.1,0.1l0.2-0.4h0.1c0.1,0.1,0.2,0.3,0.3,0.4h0.8v-0.4L160,54
				l0.1-3.5l0.2-0.1l0.1,3.5c0.2,0.2,0.7,0,1-0.1l0.1-0.3v-4.1l-0.1-0.1h-7.1L154.3,53.3L154.3,53.3z M171.8,51.5l0.1,1.4h0.4v-1.5
				h-0.4L171.8,51.5z M124.9,51.6c0,0.3,0,0.7,0.1,1h0.5l0.2-0.2c0.3-0.1,0.6-0.1,0.6-0.4l0.4-0.1v-0.3
				C126.6,51.4,125.1,51.4,124.9,51.6L124.9,51.6z M124.6,52.4h0.3v0.4h-0.3V52.4z M161.1,48.7h0.4v-0.4h-0.4V48.7z M186.6,47.1v0.3
				l2.4,0.1l2.8-0.1v-0.3l-1.1-0.1L186.6,47.1L186.6,47.1z M129,42.7l-3.4,0.2c-0.3,0.2,0,0.5,0.2,0.7l0.5-0.1v2.1
				c-0.3,1.3-0.2,2.7-0.2,4h0.2l0.1-0.1v-1.3h0.1l-0.1,2.8c0.4,0.3,0.7,0.2,1.1,0l0.1-0.7l0.5-0.1v0.7c0.6,0,0.9-0.2,1.2-0.6h0.4
				l0.2-0.2v-0.4h-2.8l0.1-0.2c0.4,0,1.8,0.2,2.1,0v-0.2h-0.5l0.3-6.1h1.3l0.1-0.5l-0.1-0.1L129,42.7L129,42.7z M181.5,46.5v-0.4
				h3.4v0.3l-1.9,0.2l0.1,0.6l0.6,0.1v0.4h-1.2v0.5h1.2c0.1,0.3,0.6,0.3,0.7,0h0.4l0.1,0.5c-0.6,0-1.2,0-1.8,0.1
				c0,0.2,0,0.3-0.1,0.5h6.8v0.3c-1.6,0.2-3.2,0.1-4.8,0.1l-0.2,0.6h-0.3l-0.1-0.6h-1.9l-0.1,0.7h0.4v0.2h1v0.2l-1.3,0.2v0.5
				l6.8,0.1v0.3c-0.2,0.1-0.4,0.2-0.6,0l-3.5,0.1l-0.1,1h-0.4l-0.1-1h-2l0.1,0.5h0.2c0.1,0.2,0.2,0.5,0,0.6h-0.3l0.1,0.8h-0.6
				c-0.1-0.7-0.1-1.3-0.1-2l-0.1-0.1v-2.1l-0.3-0.1v-0.3h0.3v-0.6h-0.3v-0.4h0.3v-1.9L181.5,46.5z M171.8,45.9v0.3l0.4,0.1v-0.4
				L171.8,45.9L171.8,45.9L171.8,45.9z M164.8,38.2c-1.1,0.2-2.1,0.8-2.7,1.7l-0.2,0.1v0.4h-0.2c-0.1,0.2-0.2,0.3-0.3,0.4l-0.2,1.5
				c0.1,0.1,0.2,0.1,0.3,0.1s0.2,0,0.3-0.1c0.3-1.3,0.7-2.5,2.2-3.1V39h0.3v-0.2l0.7-0.2h1.9c0.3,0.1,0.6,0.2,0.8,0.2V39
				c0.5,0.2,0.8,0.5,1.2,0.8c0.2,0.3,0.4,1.1,0.8,1.1v0.9c0.2,0.1,0.2,0.2,0.4,0.2c0.2-0.2,0.2-0.8,0-1c-0.1-0.5-0.8-2-1.5-2v-0.2
				c-0.3-0.1-0.5-0.3-0.9-0.4C166.9,38.2,165.7,38,164.8,38.2L164.8,38.2z M124.7,39.7h1.4v-0.3h-1.4V39.7z M187.6,38.7l1.2,0.1
				v-0.3h-1.2V38.7L187.6,38.7z M175.7,38.2c-0.3,0.1-0.6,0.3-1,0.4v0.2h-0.3c-0.5,0.4-1.1,0.8-1.3,1.4c-0.5,0.4-0.4,1.2-0.4,1.8
				l0.4,0.1c0.1-0.5,0.2-1,0.3-1.5c0.3-0.2,0.4-0.4,0.4-0.7h0.2c0.3-0.3,0.6-0.5,1.1-0.7c0.4-0.7,2.3-0.4,3-0.4
				c0.2,0.2,0.4,0.2,0.6,0.2v0.2c0.3,0.2,0.8,0.6,1.2,0.6V40h0.2c0,0.3,0.3,0.5,0.5,0.7l0.1,0.4c0.4,0.4,0.1,1.4,0.7,1.4v-1.3
				c-0.2-0.2-0.3-0.5-0.4-0.7c-0.1-0.2-0.3-0.3-0.4-0.5c-0.2-0.4-0.6-0.8-1.1-1c-0.4-0.4-1.2-0.5-1.8-0.7L175.7,38.2L175.7,38.2z
				 M129.6,36.5c0.4,0.3,1.3,0,1.8-0.1v-0.2h-1.8V36.5L129.6,36.5z M134.4,36v0.2l1.9-0.1v-0.2h-1.8L134.4,36L134.4,36z M142.4,35.7
				l1.5-0.1v-0.3h-1.5V35.7L142.4,35.7z M159.4,35.2c1.1,0.1,2.2,0.2,3.3,0.2l1.9-0.2v-0.3h-5.2V35.2z M146.8,35l-1.1,0.1v0.3
				l2.9-0.2v-0.3L146.8,35L146.8,35L146.8,35z M179.6,35.2c2.1,0.3,4.1,0.3,6.2,0v-0.3l-2.7,0.1l-3.5-0.1V35.2L179.6,35.2z
				 M134.5,34.5l-0.3,0.3v0.5c0.3,0.3,0.4,0.6,1,0.4v-0.3c0.3,0,0.6,0,0.8-0.2l-0.1-0.7l-0.6,0.1c0.1-0.5,0.3-1,0.3-1.5
				c-0.3-0.2-0.6-0.4-1-0.4L134.5,34.5L134.5,34.5z M167.3,34.7l-1,0.1v0.3c0.9,0,2,0.1,2.9-0.2v-0.3L167.3,34.7L167.3,34.7
				L167.3,34.7z M188,34.7l-0.4,0.1v0.3l2.9-0.1l0.1-0.4L188,34.7L188,34.7z M174.3,34.8l1,0.2h2.3v-0.3l-3.3-0.2V34.8L174.3,34.8z
				 M154,34.8c0.3,0.3,0.8,0.2,1.2,0.3h2.1v-0.3l-1.7-0.2H154V34.8z M151.4,34.7l-0.7,0.1v0.3h1.6l0.8-0.2v-0.3L151.4,34.7z
				 M170.7,34.8h1.4v-0.4h-1.4V34.8z M153.4,34.2l0.1-0.1l0.6,0.1c0,0.2,0,0.2-0.2,0.4h-0.3l-0.2-0.2L153.4,34.2L153.4,34.2z
				 M157.7,34.4l0.1,0.2h0.3v-0.4l-0.4-0.1L157.7,34.4L157.7,34.4z M148.5,33.1l-0.2,1l0.4,0.5h0.3l-0.1-0.7c0.3-0.3,0.2-0.7,0.2-1
				l-0.2-0.2h-0.3L148.5,33.1z M129.9,34.9v0.2h-0.2V34h0.2v-1.3h0.1v2.1L129.9,34.9L129.9,34.9z M131.8,34.3
				c0.3-0.4,0.3-0.9,0.3-1.4c0.1,0.6,0.3,1.5,0,2h-0.2L131.8,34.3L131.8,34.3z M138.1,34.2v0.2h-0.3v-0.9h0.2l0.1-1.6h0.1
				L138.1,34.2z M144.2,34H144v-0.6c0.1-0.3,0.2-0.6,0.3-0.9v-1.1h0.1L144.2,34L144.2,34z M141.8,34v0.2l-0.2-0.1v-0.6
				c0.2-0.6,0.1-1.3,0.3-2L141.8,34z M147.1,33.7H147l0.1-2.6l0.1,2.5L147.1,33.7z M131.2,33.9l-0.1,1.2l-0.2-0.1l0.2-2.5h0.2
				L131.2,33.9L131.2,33.9z M139.2,32.2v-0.4h0.3l-0.1,2.4c-0.1,0.1-0.3,0.2-0.4,0.3C139,33.7,139.2,32.9,139.2,32.2z M132.1,31.8
				l0.1-0.1l0.1,0.2L132,32L132.1,31.8L132.1,31.8z M138,31.2h0.2v0.2H138V31.2z M141.1,30.5l-0.5,0.1l-0.1-0.1v-3.4l-0.1-0.1v-0.2
				c0.9-0.8,2-1.3,3.2-1.6c0.3-0.1,0.7-0.1,1-0.3l0.1-0.4h0.3V25h0.7c0.7,0.1,1.3,0.3,2,0.5c0.2,0.1,0.3,0.2,0.5,0.2
				c0.1-0.2,0.3-0.4,0.4-0.5l0.4,0.1c0,0.3-0.1,0.4-0.3,0.7h-0.2l-0.1,1.3c-0.3,0.3-0.9,0.2-1.4,0.2v-1h-0.1c0,1.1-0.1,2.2-0.2,3.3
				c-0.7,0-1.4,0-2.1,0.2v0.2c0.4,0,1.1,0,1.4-0.3l1,0.2l0.1,0.3h0.1v-0.3l0.2-0.2h2c0,0.4,0,0.7-0.4,1h-0.7v3.8
				c-0.2,0.2-0.6,0.3-0.8,0.1l-0.1-0.4l-0.3-0.1l-0.2,0.6c-0.5,0-0.6,0-0.7-0.4v-3.8l-0.8-0.1l-0.2,4L145,35h-0.3
				c-0.4-0.3-0.3-0.1-0.6,0.2h-0.5l-0.5-0.4v-0.6l0.2-0.1l0.1-0.3l-0.1-2.4l-0.3-0.1l-0.1,3.9h-0.5l-0.1-0.3h-0.2l-0.2,0.4h-0.6
				c-0.2-0.2-0.3-0.4-0.5-0.6v-0.4l0.2-0.1l0.1-2.6h-0.4v-0.3c0,0.5,0,1-0.2,1.5l0.4,0.1v0.4l-0.4,0.1l0.1,0.9
				c-0.2,0.3-0.1,0.7-0.1,1h-0.4l-0.2-0.4c-0.4,0-0.3,0.2-0.5,0.4l-0.6-0.1v-0.3h-0.3v0.4H137l-0.2-4.2l-0.6,0.1l-0.2,0.6h-0.5
				l-0.1-0.4c-0.2,0.5-0.7,0.6-1.2,0.3v-0.2l0.3-0.1v-0.2c-0.5,0.2-0.2,0.5-0.5,0.7h-0.7c0.3,0.6,0.3,0.9-0.2,1.3l0.1,1.2l0.2,0.1
				v-0.2h0.2v-2.2h0.3l0.5,0.4l-0.1,1H134l0.1,1.1l-0.1,0.1v0.9l-0.6-0.1v-0.4c-0.1,0.2-0.3,0.4-0.4,0.5h-0.5l-0.1-0.4l-0.4,0.1
				l-0.1,0.4h-0.4l-0.2-0.4l-0.5,0.4H130v-0.4l-0.3,0.1l-0.2,0.4h-0.4v-4l-1-0.1v-0.3c0.5-0.1,0.9-0.2,1.4-0.2
				c0.3,0.1,0.5,0.1,0.8,0h0.6v0.4h0.3l-0.2-0.4c0.6-0.3,1.4-0.2,2.1-0.2v0.4h0.3v-0.2h-0.2V31c0.6-0.2,1.3-0.1,1.8-0.4h1.1v-0.2h3
				v0.3h0.2l0.1-0.3h0.2v-0.2l1.9-0.2l0.2,0.6l-0.1-0.6l1.1,0.1v0.4h0.2l-0.1-0.4c0.5-0.2,1-0.2,1.5-0.2v0.3h-1.5v-2.1h1.5V28h-1.8
				l0.2,0.4v1.8l-0.3,0.1v0.2L141.1,30.5L141.1,30.5z M148.3,30.2v0.2h0.2v-0.2H148.3z M146.3,27.8h-1.6v0.1h1.7L146.3,27.8z
				 M160.6,34.1l0.1-0.8l0.3-0.2v-1.2l-1.1-0.1v1.6h-0.2V32l-0.4-0.1c-0.4,0.3-0.4,0.8-0.4,1.3l0.3,0.2l-0.1,1.2
				c0.2,0.1,0.2,0.2,0.4,0.2l0.1-0.5l0.3-0.1v0.5c0.1,0.1,0.2,0.1,0.3,0.1s0.2,0,0.3-0.1v-0.5l-0.2-0.1H160.6L160.6,34.1z
				 M158.6,33.3c0.8,0,0.5,0.4,0.4,0.9h-0.4V34H158c-0.1-0.3-0.4-0.9-0.1-1.2c0.4,0,0.4,0.3,0.5,0.6L158.6,33.3z M156.4,33.7
				l0.3,0.1V34h0.6c0.3-0.2,0.2-0.6,0.2-0.9h-0.2c-0.4,0.7-0.6-0.2-0.6-0.5h-0.3V33.7L156.4,33.7z M183.4,32.7l0.1,0.3h0.2v-0.6
				h-0.3V32.7z M129.3,30.6h0.1C129.7,30.7,129.4,30.5,129.3,30.6z M130.1,27.4c-0.5,0.2-1.1,0.4-1.1,1h-0.2v0.4l0.2,0.1v0.3h-0.4
				l-0.4,0.2V30h0.4l0.1-0.3l0.3-0.1l-0.1,1.6h0.3l0.2,0.3c0.8,0,2.1,0.1,2.7-0.4v-0.7l-0.2-0.3h0.2l0.1-0.9h0.3l-0.1,1.9
				c0.5,0,0.7,0,1.1-0.3v-0.3l-0.3-0.1l0.1-0.8c0.3-0.1,0.3-0.3,0.5-0.4v-1c-0.3-0.2-0.3-0.6-0.6-0.8h-0.3c0,0.5,0.1,0.9,0.1,1.4
				h-0.7c-0.1-0.4-0.3-0.9-0.9-1.2v-0.3l-0.1-0.1L130.1,27.4L130.1,27.4z M163.6,29.2h0.4l0.1-0.4l-0.2-0.2h-0.3V29.2z M147,27.7
				l-0.1,2.1l1.1,0.1l0.3-0.2v-2.1h-1.2L147,27.7L147,27.7z M163.6,28v0.4l0.4,0.1l0.1-0.5l-0.4-0.1L163.6,28z M116.8,65.1h0.2v0.1
				L116.8,65.1L116.8,65.1z M129.5,64.7l0.1-0.1l0.1,0.2L129.5,64.7L129.5,64.7z M131.7,64.5c0.1-0.1,0.4,0.1,0.1,0
				C131.8,64.6,131.7,64.5,131.7,64.5z M134.2,61.1l0.1-0.1l0.1,0.1l-0.1,0.1L134.2,61.1z M118.8,60.5h0.2l0.2,0.4h-0.4L118.8,60.5
				L118.8,60.5z M131.4,60.1l0.1,0.4L131.4,60.1z M122,60l-0.3,0.1L122,60z M115.4,59.9l0.1-1.4h0.1l-0.1,2.9h-0.4v-0.9
				c0.3-0.2,0.3-0.3,0.1-0.6H115.4z M120.4,59.9c0.2-0.1,0.2-0.2,0.4-0.2l0.1,0.4l-0.7-0.1L120.4,59.9L120.4,59.9z M133.6,59.1
				l-0.1,0.7L133.6,59.1z M117.3,60.3l-0.4,0.1v-0.7h0.2V59h0.2l0.2-0.8L117.3,60.3L117.3,60.3z M132.3,59.3l0.1-0.3v0.4L132.3,59.3
				z M122.4,58.8L122.4,58.8l0.3,0.3l-0.4,0.1L122.4,58.8L122.4,58.8z M118.8,58.9c0.1-0.4,0.3-0.7,0.4-1.1v-1h0.1l-0.1,2.8h-0.4
				V58.9L118.8,58.9z M134.3,58.3l0.1-0.4l-0.1,0.7V58.3z M120.9,58.6l-0.2,0.1l-0.1-0.1v-0.7c0.5-0.4,0.1-1.3,0.4-1.9L120.9,58.6
				L120.9,58.6z M135,57.8l-0.1-0.5h0.2L135,57.8L135,57.8z M122.4,57.5l0.3-1l-0.2,1.3l-0.1-0.1L122.4,57.5L122.4,57.5z
				 M137.4,57.6c0.1-0.1,0.4,0.1,0.1,0C137.5,57.6,137.3,57.6,137.4,57.6z M125.6,57.1l0.2-0.1l0.2,0.4h-0.5L125.6,57.1L125.6,57.1z
				 M137.6,56.3l0.1,0.3h-0.2L137.6,56.3L137.6,56.3z M127.2,56.3v-0.2c0.3,0.1,0.3,0.2,0.4,0.5H127v-0.3H127.2z M136.7,55.3
				l0.1,0.6h-0.2L136.7,55.3L136.7,55.3z M138.7,55.5h0.2v0.2h0.3v0.2l-0.7-0.1v-0.4L138.7,55.5L138.7,55.5z M137.5,54.5l0.1-0.2
				h0.1v0.9h-0.2L137.5,54.5L137.5,54.5z M139.5,54.6h0.2v0.2h-0.2V54.6L139.5,54.6z M129.6,54.6h0.2v0.2h-0.2V54.6L129.6,54.6z
				 M138.5,53.6l0.3-0.6l-0.1,1.3h-0.3L138.5,53.6L138.5,53.6z M139.5,52.8l0.2-0.4l-0.1,1.1h-0.1L139.5,52.8L139.5,52.8z M129.6,53
				l0.2-0.4v1l-0.2,0.1V53L129.6,53z M128,52.5l0.1,0.8h-0.2L128,52.5L128,52.5z M126.9,53c0.2-0.1,0.2-0.2,0.2-0.4l0.3,0.4l0.1,2.3
				h-0.2l-0.2-0.4h-0.3c0-0.4,0.2-0.8,0.3-1.3V53H126.9L126.9,53z M128.9,53l-0.1,1.3h-0.2l-0.1-0.1c0.1-0.2,0.1-0.6,0.3-0.8
				l0.1-1.4C129.5,51.9,129.2,52.7,128.9,53z M134.6,49.5l0.1-0.5h2v2c-0.3,0.2,0,0.6-0.3,0.9h-0.2l-0.1-0.1h-0.3v-0.4h0.3
				c0.3-0.2,0.1-1.2-0.1-1.3c-0.2-0.1-0.4-0.2-0.5-0.4L134.6,49.5L134.6,49.5L134.6,49.5z M197,47.2h0.1v1.6H197V47.2L197,47.2z
				 M205,45.8l0.4-2.9l0.2,0.3l-0.3,0.4l-0.2,2.4h-0.2L205,45.8L205,45.8z M196.8,46.5v-0.7l-0.2,0.1l0.1-0.5l-0.1-0.1v-1.4h0.2
				v-0.2h-0.2V43h-0.1v1.2h-0.2l0.2,0.3l0.2,4v3.6l-0.8-0.1l-0.2-7.8l-0.2-0.1v-3h-0.3l-0.1,1.7c0.2,3.2,0.3,6.4,0.3,9.7l3.4,0.1
				c-0.3-1.8-0.3-3.5-0.3-5.3l-0.2-0.4v-3.8H198c0.1,0.6,0.1,1.2,0.1,1.9l0.1,0.1v4.3l0.1,0.2v2.8l-0.1,0.1l-1.2-0.1l-0.2-1.4v-3.8
				h0.2v-0.4L196.8,46.5z M204.2,44.2v-0.8h-0.1c0.2,3,0.3,6.1,0.5,9.1h0.6v-0.3l-0.5,0.1l-0.2-3.5
				C204.5,47.3,204.5,45.8,204.2,44.2L204.2,44.2z M133.1,44.6L133,45l0.2-1.9L133.1,44.6L133.1,44.6z M168,44.1h0.6v0.1L168,44.1
				L168,44.1z M162.6,44.1l0.2-0.4c0,2.7,0,5.3,0,8c-0.4-1.4-0.1-3-0.1-4.4L162.6,44.1z M133.6,42.1l-0.1,0.4l-1,0.1v-1.1h1.3
				L133.6,42.1L133.6,42.1z M133.8,40.6l-1.2,0.1v-0.4h2.2v0.2L133.8,40.6L133.8,40.6z M130.2,39.5l1.1,0.1c0.1,0.1,0.2,0.2,0.3,0.4
				v5.4c-0.2,2.8-0.2,5.7-0.2,8.5l-0.2,0.2c0,0.2,0,0.3,0.1,0.5s0.2,0.3,0.3,0.4h-1.1l0.1-2.9l0.2-0.8c0.2-0.2,0.2-0.5,0.3-0.7
				c0.3-0.2,0.2-0.5,0.2-0.8l-0.6,0.1v0.2c-0.4,0-0.7,0.4-1.1,0.5v0.2h-0.3l-0.1,0.2c-0.4,0.2-0.7,0.5-1.2,0.7v0.2
				c-0.7,0-0.8,0.3-1.4,0.5c-0.2,0.1-0.4,0.2-0.6,0.4V53h-0.4c-0.3,0.2-0.3,0.3-0.1,0.6h0.2l0.2,2.3l-0.1,0.4h-0.2V55h-1l0.2-0.5
				v-0.8h-0.3l-0.1,0.4H124v0.5l0.3,0.3l0.1,2.2c-0.1,0.1-0.2,0.2-0.3,0.2c-0.2-0.2-0.1-0.4,0-0.6l0.2-1.1l-0.1-0.5h-0.7v-0.4
				c-0.1-0.1-0.2-0.1-0.3-0.1s-0.2,0-0.3,0.1h-0.4l-0.2,0.3c-0.3,0.1-0.4,0.1-0.4,0.4h-0.5l-0.2,0.4h-0.5v0.3l-0.6,0.1l-0.4,0.4
				l-0.7,0.2c-0.4,0.3-1.1,0.1-1.1,0.6h-0.5c-0.2,0.1-0.2,0.2-0.2,0.4c-0.3,0-0.5,0.1-0.7,0.3c-0.3,0.1-0.4,0.1-0.5,0.4
				c-0.4,0-0.6,0-0.8,0.2c-0.4,0.1-1.1,0.3-1.3,0.7H113l-0.6,0.3v0.2H112l-0.1,0.2c-0.4,0.1-1.3,0.3-1.3,0.7l-1.4,0.2v-0.2
				c0.4,0,0.6-0.2,0.7-0.5c0.3-0.1,0.6-0.2,0.8-0.4c0.4-0.2,1-0.3,1.3-0.5c0.8-0.3,1.6-0.8,2.4-1c0.6-0.5,1.7-0.5,2.3-1v-0.2
				c0.3,0,0.6-0.1,0.8-0.3c0.5-0.2,1.2-0.4,1.6-0.7l0.4-0.1c0.3-0.2,0.6-0.2,0.9-0.4c0.2-0.1,0.4-0.1,0.5-0.3
				c0.4-0.3,1.5-0.4,1.5-0.9h0.4v-0.2h0.2v-0.2h0.4l0.3-0.2v-0.7l0.4-0.1v-0.2H124v0.2h-0.4l-0.4,0.2v0.2c-0.4,0-0.8,0.2-1.2,0.4
				c-0.2,0.1-0.4,0.1-0.5,0.3l0.4-7.2v-4h0.2v-0.9c1.1,0,2.3-0.1,3.4-0.2c1.6-0.1,3.1-0.2,4.7-0.4v0.4h0.4l0.1-1l-0.1-0.1
				c-3.1,0.2-6.2,0.3-9.4,0.4l0.1-0.3c3.2-0.1,6.3-0.4,9.4-0.5l-0.1-0.8h-1.1v-0.1L130.2,39.5z M195.6,39.3l0.3,0.3l1,0.1l0.3,0.3
				l0.1,0.4l0.3,0.3c0.3,0.1,0.5,0.2,0.7,0.4l0.1,0.5c-0.7-0.3-1.3-0.7-2-0.9c-0.2-0.2-0.6-0.4-1-0.4v-0.8h0.2V39.3z M209.1,35.1
				l1.5,13.4l3.4-1.6l2.9,6.4l3.7-1.2l2.9-1.9l1.5,3.3h2.5c0.5,0.8,1.3,1.5,2.2,2s2-1.3,2.9-0.9c1.1,0.6,1.5,3.9,2.4,4.5
				c1.2,0.8,7.8-2.3,7.5-2.1c0,1.6,1.4,4.3,0.8,6.4c-2.4,0.8-2.8,0.5-6.2,2H126.9c0.5-0.1,1-0.4,1.5-0.5h1.3v-0.1l-0.7-0.1v-0.2
				l0.3-0.3l-0.6,0.1l-0.3-0.2c0,0.3-0.3,0.3-0.5,0.5h-0.6l-0.3-0.3c-0.3,0.3-0.6,0.4-1.1,0.4v0.2h-0.7l-0.2-0.2h-0.5v0.2L123,65
				c-0.2-0.2-0.3-0.3-0.5-0.1c-0.5,0.4-1.6,0.2-2.2,0v0.2l-3-0.1l0.3,0.2v0.1h-3.5v-0.2h2.5c-0.2-0.1-0.3-0.3-0.4-0.4
				c-1.2-0.1-2.4-0.2-3.6-0.3l-0.4-0.1c-0.1-0.2-0.3-0.3-0.4-0.5c-0.2,0.1-0.5,0.2-0.7,0c0-0.3,0.2-0.4,0.4-0.6
				c0.1-0.3,0.1-0.5,0.3-0.7h0.3v0.7l-0.2,0.4h0.5c1.3,0.4,2.5,0.4,3.8,0.4l0.3,0.2l0.7,0.1v0.2l1.4-0.2c0.4,0.4,1.5,0.1,2,0.1
				c0.5,0.2,1.3,0.2,1.7-0.2h0.5l0.2,0.2c0.6,0,1.2,0,1.7-0.4h0.3v0.2c0.6,0,1.4,0.1,1.7-0.4h0.3c0.7,0.6,0.6,0,1.2,0v-0.2l0.7,0.1
				v-0.3c0.2-0.2,0.6-0.3,0.8-0.1v0.3h0.2v0.6c0.3-0.1,0.4-0.3,0.5-0.5l-0.1-1.8l-0.4-0.1c-3-0.2-6.1-0.2-9.1-0.2l-0.2,0.2
				c-0.8,0-1.6,0-2.4,0.1l12,0.5v0.2l-0.3,0.3h-1v-0.2h-4.2c-0.1-0.3-0.6-0.3-0.7,0l-5.2-0.2v0.2h-0.7v-0.2h-0.5l-0.2,0.2h-1.7v-0.4
				h-0.2v-0.2H115v0.4l-0.4,0.1c0.3,0,0.5,0.1,0.6,0.2l1.5,0.1l0.2,0.2v0.2c-0.3,0.2-0.6,0.3-0.7,0.5h-0.4v-0.3l-0.2,0.1v0.2h-2
				l-0.1-0.1v-0.6c-0.2,0-0.3,0-0.4-0.2v-0.2l-0.4-0.1v-0.4h0.7l0.2-0.3v-2.3l0.1-0.1h0.4l-0.4-0.1l-0.1-0.2l-0.2,0.3l-0.1,0.7
				l-0.2,0.2h-0.6v0.2c-0.3,0.1-0.7,0.3-1,0.1v-0.5l-0.2,0.4V61c-0.4,0.3-1.1,0.5-1.6,0.7c-0.3,0.3-0.9,0.2-1.2,0.4
				c-0.4,0.2-0.9,0.3-1.2,0.5l-0.4,0.1c-0.3,0.2-0.7,0.2-1,0.4l-1.8,0.1v0.3l-0.6-0.1l-0.1,0.3l-11.7,0.1l-3-4.1
				c3.6-0.7,12.1-6.8,10.3-8c1-0.6,3.8-1.9,4.3-2.7c0.8-0.7,1.4-1.8,1.5-2.8c0.2-0.4,0.2-0.8,0.2-1.2c0.1-0.1,0.1-0.2,0.2-0.3
				c0.2,0,0.4,0.1,0.7,0c0.5,0.3,1.1,0.5,1.8,0.4v0.5c-0.6,0.1-0.5,0.2-0.7,0.7l1.2-0.1l0.2,0.2v0.4l0.2-0.1l0.1-0.3l0.4-0.1V46
				l0.4-0.4h0.3h-0.5v-0.4l0.2-0.5c0.3-0.3,0.5-0.7,0.6-1.1c0.1,0,0.2-0.1,0.2-0.1l0.1-0.5l0.3-0.2c0.7,0,1.3-0.1,2-0.1v0.4
				c0.5,0,0.7,0,0.8,0.4l0.6-0.1V43c-0.3-0.1-0.7-0.2-1-0.4c0-0.3,0-0.3,0.3-0.4l0.1-0.4h0.3l0.1-0.6h0.3V41
				c0.2-0.1,0.5-0.1,0.6-0.3l0.7-0.1c-0.3-0.3-0.7-0.4-1.2-0.4v-0.4h-0.2v-0.4l0.3-0.1l0.1-0.6h0.4v-0.3h-0.2v-0.2h0.2v-0.3h-0.2
				v-0.4h0.2v-0.2l0.3-0.1v-0.5l0.3-0.1v-0.2c0.2-0.2,0.4-0.1,0.6-0.3c0.4-0.1,0.6-0.1,1-0.4h0.4l-0.3-0.1l0.1-0.3
				c0.6,0.1,1.1,0.2,1.7,0.2v0.4h-0.3l0.3,0.2l0.1-0.4h0.8l-0.1,0.4c0.2,0.2,0.7,0.3,1,0.4v0.2l1.1,0.1v1.1l-0.6,0.1l0.1,0.5
				l0.3,0.3v1c-0.4,0.3-1,0.2-1.5,0.2v0.3c0.8,0,1.5-0.1,2.2-0.2l3-0.1c0.9-0.1,1.8-0.2,2.8-0.2v-0.2h0.6v-0.1h-0.5v-0.3l1.1-0.1
				l-0.1-0.1v-0.2h-0.5l-0.1,0.3h-0.3l-0.1-0.4l-0.8-0.2c-0.4,0-1.2,0-1.5-0.3l0,0c1-0.1,2.1-0.2,3.1-0.2v-0.1
				c-1.2,0.1-2.5,0.2-3.7,0.2l-0.6-0.5v-0.4l0.1-0.1c3.1-0.1,6.2-0.3,9.2-0.5l0.1-0.1c2.7-0.1,5.4-0.2,8.1-0.5
				c2.7-0.1,5.3-0.3,8-0.4l0.1-0.2h6.9v0.2l4.2,0.1l4.2-0.1l0.5-0.2h3.3v-0.2c1.2-0.1,2.4-0.1,3.6,0v0.2h4v0.2l3.5,0.1
				c1,0.1,2,0.2,3,0l3.7-0.1v-0.2h3.6v-0.2c0.9-0.1,1.7-0.2,2.5-0.2v-0.2h-1.6v-0.4l1.8-0.1c-0.5-0.2-1.2,0.1-1.5-0.2
				c0-2-0.3-3.9-0.3-5.9c-0.1-0.2-0.2-0.4,0-0.6c-0.1-3.7-0.4-7.4-0.4-11.1c-0.6,0.1-1.1,0.1-1.7,0.3c-0.8,0.2-1.6,0.2-2.3,0.2v0.2
				h-1.5v0.2l-2,0.3c-0.5,0.2-1,0.2-1.6,0.2V18h0.9l-0.1,0.3c-0.5,0.1-1.1,0.4-1.6,0.4v0.5l0.7,0.1v0.3l-0.6,0.1l-0.1,0.4l0.7,0.1
				v0.4l-0.5,0.1v0.5l0.5,0.1v0.2l-0.5,0.1l-0.1,0.6h0.9v0.3l-0.6,0.1l-0.1,0.4l0.1,0.1v0.3l-0.1,0.1V24l0.1,0.1v0.3h-0.2l0.2,0.7
				c0,0.3-0.1,0.5-0.1,0.8l0.1,0.1v0.2l-0.1,0.1V27c0.4,0.4,0.1,1.9,0.1,2.3l-0.5,0.1l-0.2-0.4c-0.1-3.2-0.1-6.4-0.3-9.7l-0.1-0.1
				l0.1-1.8h-0.6v0.2l-0.3,0.3l-1.3,0.2c-0.6,0.2-1.3,0.1-1.9,0.3c-0.9,0.1-1.8,0.2-2.7,0.3c-0.5,0.1-1,0.2-1.5,0.2
				c-0.5-0.2-1-0.3-1.5-0.1H170v-0.7c-0.2-0.1-0.3-0.2-0.4-0.3l-0.4-0.1v-0.5h-0.5V17l-0.6-0.1c-0.2-0.2-0.4-0.4-0.7-0.4
				c-0.1,0.1-0.3,0.2-0.5,0.3l-0.4,0.4h-0.4v0.2l-0.5,0.4c-0.2,0-0.4,0.1-0.5,0.3v0.4l-0.5,0.1l-1,0.5l0.9-0.1v0.3l-0.4,0.1v0.2
				h-1.2v0.2l-0.3,0.3c-0.4,0.3-1,0.3-1.6,0.4l-2,0.4h-1c0,0.4,0.1,1.6-0.3,1.9l-2.3,0.3l-0.1,0.4l0.5,0.1c0,0.2-0.1,0.4-0.2,0.6
				h-0.4v4.5h0.3v0.4h-0.2v0.4l-0.5,0.1l0.2,0.2l2.7,0.1c0.9,0.1,1.7,0.2,2.5,0.3l0.1,0.5l0.1-0.5c0.8-0.1,1.5-0.3,2.3-0.3h2.2v0.4
				l0.2,0.1c-0.2-0.6,0.1-0.6,0.7-0.6c1.1-0.2,2.2-0.2,3.3-0.3c0.2-0.2,0.5-0.2,0.8-0.2l-0.5-0.1v-5l1-0.1V24h-0.7l-0.1-0.1
				l-0.4,0.1v0.2h0.2v5.1c-0.8,0.3-2.2,0.3-3.1,0.3v-5.5l-0.2,5.5h-0.3l-0.2-4l-0.6-0.4h-0.8l-0.1,0.4c-0.6,0-0.4-0.2-0.5-0.6
				l-0.3-0.1l-0.2,4.6l-0.1,0.1l-2.2-0.2l-0.1-3.7c-0.1-0.1-0.2-0.2-0.3-0.4l-0.3-0.1l-0.1,0.4h-0.5c-0.3-0.3-0.4-0.7-0.4-1.1
				l0.2-0.2c0.7-0.1,1.4-0.1,2.1-0.3c1.2-0.1,2.4-0.2,3.6-0.4c0.1-0.6,0.2-1.1,0.5-1.6c0.2-0.5,0.8-0.9,1.3-1.3h0.3v-0.2l0.4-0.1
				l0.3-0.3h2.1c0.2,0.1,0.5,0.1,0.6,0.3c0.4,0.2,0.6,0.5,1,0.6v0.3c0.3,0,0.3,0.1,0.4,0.3c0.4,0.3,0.3,0.8,0.3,1.3
				c2-0.1,4-0.4,6.1-0.6c0-0.3,0.1-0.7,0.2-1l0.4,0.1v0.8c-0.1,0.2-0.2,1.5-0.7,1.1l-0.5,0.1l-0.1,0.3v5.5l-2.7-0.2v-4.9
				c-0.3,0-0.5-0.1-0.7-0.3c0,0.6-0.9,0.5-1.5,0.5l-0.1,4.5l-0.1,0.1l-1.2-0.1l-1.5,0.1c2.8,0,5.6,0.3,8.4,0.5
				c0.3,0.1,0.7,0.1,1,0.3l-0.1,0.4h0.3v-0.4l2.2-0.2c0.4,0,1-0.1,1.3,0.2V30l-0.1,0.1l0.1,0.9l-0.2,0.1v0.4l0.4,0.1l-0.1,0.3h-0.3
				v0.5l0.5,0.1v0.3l-0.4,0.2v0.4l0.3,0.1v0.2l-0.3,0.2l-0.1,0.4l0.2,0.2v0.4h-0.4l-0.1-0.1l-0.4,0.4c-0.3,0-0.7,0-1-0.2v-0.3
				l0.2-0.2l0.8-0.1l-0.1-1.4c-0.1-0.9,0-1.9-0.3-2.9l-1,0.2l-0.2,3.9l-0.2,0.4h-0.6l-0.2-0.4H179l-0.2,0.4h-0.6
				c-0.2-0.2-0.2-0.4-0.5-0.5c0,0.2,0,0.4-0.2,0.5c-0.5,0-0.8,0-0.8-0.5l-0.3,0.1l-0.2,0.3c-0.5,0-0.6,0-1-0.3V34l-0.2,0.1l-0.2,0.4
				H174l-0.2-0.2v-0.4H173c0.1,0.2,0.2,0.3,0,0.4h-0.4v-2.1l0.1-0.1v-0.9l-0.1-0.1c0.2-0.5,0.2-1.1,0-1.6h-0.1V34h-0.8
				c-0.1-0.1-0.2-0.2-0.3-0.4v-1.5h-0.2l-0.1-2.8h-1v4.1l-0.2,0.6h-0.6l-0.2-0.4l-0.1,0.1h-0.2V34l-0.7,0.1l-0.2-0.3h-0.3
				c-0.2,0.1-0.2,0.3-0.3,0.4h-0.5c-0.4-0.3-0.6-0.9-0.9-0.1c-0.2,0.1-0.6,0.1-0.7,0v-0.4l-0.4,0.1c-0.1,0.1-0.2,0.3-0.3,0.4H164
				c-0.2-0.4-0.4-0.4-0.8-0.4c0.1,0.2,0.1,0.4,0,0.6h-0.7v-0.2h-0.2v-4.4l-0.4,0.2h-0.7c0,0.3-0.2,0.4-0.4,0.6h-0.6l-0.4-0.4
				c-0.2,0-0.4,0.2-0.5,0.4h-0.5l-0.3-0.3v-0.1h-0.4v0.4h-0.5V31l-0.7,0.1v-0.2c0.3-0.1,0.4-0.1,0.5-0.4h-0.2l-0.1-0.4l-0.2-0.1v0.3
				c-0.3,0.1-0.3,0.3-0.6,0.3l-0.1,0.8h-0.3l-0.3-0.3v0.5l0.5,0.1l0.1,1.6h0.2c0-0.2,0.1-0.6,0.4-0.3v0.6h-0.2v0.2h-0.7
				c-0.2-0.2-0.2-0.6-0.2-0.8h-0.2l0.2,0.8l0.2,0.1v0.3h-0.6l-0.2-0.2v-0.6l-0.2-0.1v-0.8l0.1-0.1l-0.1-0.1v-0.1h-0.2l-0.2-2.4
				l-0.7,0.1l-0.2,1.8h-0.2v-1h-0.2l-0.1,2.4l0.1,0.2l0.1-0.2h0.2l0.1,0.7c-0.1,0.1-0.3,0.2-0.5,0.3c-0.1,0.1-0.2,0.2-0.3,0.4h-0.6
				c-0.1-0.2-0.2-0.3-0.3-0.4v-0.4l0.2-0.2v-2.7h-0.4l-0.1-0.4h-0.2v0.4c-0.2,0.2-0.3,0.4-0.1,0.6l0.1,2.6c-0.4,0.4-0.5,0.4-1,0
				v-0.3l0.3-0.2c0.5-0.4,0.1-2,0-2.5l-0.2-0.2v-0.4l0.3-0.1v-0.4c0.8-0.2,1.7-0.2,2.5-0.4c0.5-0.2,1.2-0.3,1.7-0.3V29h-0.2
				l-0.3-0.3l0.1-3.3l-0.6,0.2v0.2l0.5,0.1v0.5h-1.1l0.1,1.2l0.8,0.1v0.2l-1,0.1c0,0.3,0.1,1.1-0.2,1.3l-1.2,0.1v-8.5
				c-0.2-0.1-0.4-0.1-0.5-0.3l-0.1-0.4h-0.6c-0.3-0.3-0.2-0.9-0.1-1.3c0.3-0.3,0.3-0.4,0.4-0.8c0.2-0.2,0.2-0.4,0.3-0.6l-1.8,0.1
				c-0.4,0.1-1.7,0.4-2,0.1v-1.5l0.2-0.7c-0.4-0.2-0.6-0.5-0.6-1c0.5-0.2,1-0.2,1.5-0.4c1.7-0.2,3.4-0.4,5.1-0.6
				c0.2-0.3,0.1-0.6,0-1l-0.4-0.4c-0.5-0.1-1.1-0.1-1.5-0.4c-0.5-0.1-1-0.3-1.5-0.4c-0.2-0.2-0.6-0.1-0.8-0.4
				c-0.3-0.1-0.6-0.2-0.8-0.3v-0.2H147v-0.2c-0.6-0.2-1.1-0.4-1.7-0.5c-0.3-0.2-0.7-0.4-1.1-0.4c-0.6-0.1-2.1-0.9-2.5-0.5
				c-0.6,0.3-1,0.9-1.7,1.1c-0.2,0.2-0.5,0.4-0.6,0.6h-0.3v0.2c-0.4,0.3-0.8,0.7-1.3,0.9c-0.4,0.2-0.7,0.5-1.1,0.8
				c-0.3,0.1-0.3,0.4-0.6,0.4V13c-0.3,0.2-0.6,0.4-1,0.4v0.2c-0.7,0.3-1.2,1-1.9,1.3c-0.2,0.3-0.4,0.3-0.7,0.4l0.3,0.1v0.4l-1.1,0.3
				c-0.1,0.3-0.1,0.5-0.1,0.8h-0.3l0.1-0.8h-0.3l-0.3-0.2v-0.4c0.4-0.3,0.9-0.6,1.3-1c0.4-0.3,0.9-0.5,1.3-0.8h0.2l0.1-0.4
				c0.2-0.1,0.3-0.2,0.4-0.3c0.5-0.4,1.2-0.7,1.7-1.2h0.2v-0.2c0.3-0.1,0.3-0.3,0.6-0.3v-0.2h0.2v-0.2l0.5-0.4
				c0.5-0.2,0.7-0.6,1.3-0.8c0.2-0.2,0.4-0.4,0.7-0.5V8.9h0.2V8.7c0.5-0.2,1.1-0.8,1.6-0.8V7.7c0.3-0.1,0.3-0.3,0.5-0.4
				c0.7,0,1.4,0.4,2.1,0.6c0.2,0.1,0.3,0.2,0.4,0.3c0.5,0.1,1.1,0.3,1.6,0.5v0.2h0.7l0.2,0.3c0.5,0.1,1,0.3,1.5,0.4
				c0.2,0.2,0.7,0.2,1,0.4c0.2,0.2,0.5,0.3,0.7,0.4c0.5,0.4,1.4,0.2,1.9,0.6v0.2h0.5v0.2c1.2,0,2,1,3,1.4V7.5l0.2-0.2l-0.3-0.2V6.4
				c0.2-0.2,0.2-0.4,0.2-0.7c-0.5-0.2-0.4-0.5-0.4-1h0.5V4.5c0.4-0.2,0.9-0.1,1.4-0.3h1.7v1c0.8,0.3,1.3,1.2,2.1,1.5v0.2h0.2
				l0.4,0.4l0.6,0.1l0.1,0.4c0.3,0.1,0.3,0.3,0.6,0.4V9l0.1,0.1l-0.1,0.9h-0.2v0.4h-0.2h0.7v0.3c0.6,0,0.8-0.2,1.3-0.5V9.8
				c0.4,0,0.6,0,0.8-0.2c0.3-0.2,0.6-0.4,0.8-0.7h0.2V8.7c0.2-0.2,0.9-0.2,1.1,0v0.2h0.4v0.2l0.6,0.1l0.1-0.1h0.6l0.2,0.4
				c0.4,0.2,1,0.1,1.4,0c0.3-0.3,1-0.2,1.4-0.3c5.9,0,11.7,0.2,17.6,0.3l0.3,0.2v0.2c-0.6,0.5-1.6-0.1-2.1,0.4
				c-0.2,0.2-0.6,0.1-0.8,0.3h-1.6v0.2c-0.3,0.1-0.7,0.2-1,0v-0.2c-0.5,0.1-1.4,0.9-1.9,0.4l-0.8,0.1v0.3l-0.4,0.1v0.2l0.7-0.2h1.2
				v-0.2h1.3v-0.2l1.6-0.2c0.7-0.3,1.6-0.3,2.4-0.4l0.1-0.1c0.8-0.1,1.6-0.1,2.4-0.4l1.4-0.1c0.3-0.2,0.8,0,1.1-0.3h1.3l0.3,0.2h0.3
				L195,9.7h0l-0.2-0.3V9.2h0.2V9h0.2l1.2,3.4l10.4-1.7l2.7,13.3h-0.3v-0.4l0.1,0.6c-1,0.4-2.1,1-3.2,1.2c-0.1,0.2-0.6,0.4-0.9,0.4
				l0.3,0.1l0.1,0.6l-0.8,0.1c-0.2-0.3-0.3-0.5-0.4-0.8l-0.3-0.2L204,25l-0.2,0.1l-0.4-0.2l-0.1-0.4l-0.2,0.4l0.7,0.2v0.4l0.2,0.2
				v0.2h0.3l0.2,0.4c0.3,0.2,0.1,0.6,0.3,0.8v0.2l0.5,0.2v0.3l-0.1,0.1l0.1,0.1l0.2-0.6c0.5-0.2,0.6,0,0.7,0.4
				c0.3,0.3,0.3,0.7,0.7,0.9v0.5l0.3,0.1v0.3h0.2l0.2,0.4c0.2,0.2,0.1,0.4,0.3,0.6c0.2,0.2,0.2,0.4,0.2,0.6h0.2l0,0l0.1,0.7
				c0,0.9-0.2,1.7,0.3,2.6C209,34.5,209,34.8,209.1,35.1L209.1,35.1z M129.4,37.8L129.4,37.8l0.6,0.1v-0.1H129.4z M162.5,37.7
				l-0.2,0.1v0.3l-0.5,0.1l-0.3,0.3h-0.2v0.4h0.6v-0.2l0.4,0.1v0.4h-0.2v0.2h-1l0.1,1.3c-0.6,0.5-0.7-0.1-0.7-0.6l-0.6-0.1
				c0.4,1,0.3,2,0.3,3l2.2-0.1v-1.3l0.2-0.5c0.2-0.1,0.3-0.3,0.3-0.4l1.1-0.9c0.4-0.1,0.8-0.3,1.3-0.4h1.1l1,0.2
				c0.4,0.3,1.2,0.7,1.2,1.2h0.2v0.3h0.2c0.2,0.3,0.6,1.2,0.2,1.5h1.9v-1l0.8,0.1l0.1,0.8l1.9,0.2c-0.4-0.7,0-1.8,0.6-2.3h0.2v-0.2
				l0.2-0.1c0.5-0.8,1.8-0.7,2.7-0.7c0.3,0.1,0.6,0.2,0.8,0.3s0.3,0.2,0.5,0.3v0.2c0.5,0,1,0.7,1.2,1c0.1,0.2,0.2,0.4,0.3,0.5
				l0.1,1.3l1.7,0.1v-0.9h0.5v0.2h0.2v-0.2h0.3v0.2l0.8,0.1c0,0.4-0.9,0.4-1.2,0.4l0.3,0.1v0.3l-0.3,0.1l0.6,0.2v0.3h-0.5
				c0,0.3-0.2,0.4-0.5,0.4v0.2h0.3v0.9h-0.3V45h-0.2l0.1,0.5l1.5,0.2v0.2h-0.7v0.2h-1.7v-0.4h0.3l-0.1-1c-0.5-0.2-0.7-0.7-0.4-1.1
				l-0.2,0.1l-0.2,0.4v10.4h-0.4c0-0.7-0.1-1.4-0.1-2.1c0-1.7,0-3.5-0.1-5.2v6.7l-0.1,0.1h-0.5l-0.2-0.2h-2.8l-0.1-0.1
				c0-3-0.1-6-0.1-9l-0.1-0.1V42h-0.2v2.6l-0.1,0.1l0.1,0.2v8.9h-2.4l-0.2-1c-0.2-0.2-0.3-0.4-0.3-0.6l0.3-0.1l-0.1-1.8l-0.2-0.1
				v-0.4h0.3v-5.5l-0.1,0.4H173l-0.1-1.2c-0.3,0.1-0.3,0.4-0.6,0.4l-0.1,1.2h-0.3c-0.1-0.1-0.2-0.3-0.3-0.4c0-0.3,0-0.7-0.1-1
				l-0.2,0.4c0,0.2,0.1,0.3,0.1,0.5l-0.2,0.1v0.5c0.3,0.1,0.5,0.1,0.7-0.1h0.3c0.1,0.2,0.2,0.5,0,0.6c-0.4,0-0.7-0.1-1.2,0l0.1,0.6
				l0.2,0.2v0.2l-0.4,0.1l0.2,0.7v1.1l0.2,0.2V49l-0.3,0.2v0.5l0.1,0.1v1.1l0.2,0.2v0.3c-0.3,0.1-0.3,0.5,0,0.6v0.4h-0.2v2.1h-0.3
				l-0.3-10.4c-0.1-0.4,0-0.5-0.5-0.6l-0.1,1.4h-0.4l0.1,2.9h0.2v0.3h-0.2v0.3h0.2c0.2,0.4,0.1,0.7-0.1,1.1v4.4l-0.1,0.1l-2.9-0.1
				v-8.8h0.2v-0.3h-0.2l-0.1-2.5l-0.2,2.7h-2v0.1h2.1v8.8l-0.1,0.1h-2.7l-0.1-0.1v-8.7l0.1-0.1l-0.1-1.7h-0.1v10.5l-0.2,0.2H163
				l-0.2-1.5l-0.1,2h-0.4l-0.2-10.4h-0.2l-0.2,4c-0.2,0.1-0.3,0.1-0.4,0l0.1-2.1H161v2.1l-0.2,0.8h0.2v0.6h-0.2v0.2l-0.3-0.1
				c0-1.6-0.1-3.1-0.1-4.6l-0.2-0.6l-0.2,5.4l-0.1,0.1l-5.3-0.1l-0.1-0.2l-0.2-10.5H154v-1l-1-0.2l-0.4,10.9l-0.3,0.2h-3.7
				c-2,0.3-4.1,0.2-6.1,0.2l-0.1-0.1l-0.1-9.9c-0.2-0.1-0.2-0.3-0.3-0.4l-0.5-0.1L141,49.1c-0.3,0.5-0.9,0.4-1.2,0.8h-0.2v0.2
				c-0.3,0.1-0.4,0.3-0.6,0.4c-0.2,0.2-0.4,0.3-0.6,0.4c-0.1,0.1-0.2,0.2-0.3,0.4h-0.2c0,0.3-0.5,0.4-0.6,0.8l-0.7,0.6
				c-0.2,0.4-0.6,0.7-1,1c-0.1,0.1-0.2,0.2-0.3,0.4h-0.2v0.2c-0.6,0.5-0.9,1.1-1.5,1.5h-0.3v-0.3l-4.2,0.3l-0.1-0.4
				c-0.3,0-0.3,0.1-0.4,0.4l4.8,0.1v0.3l-0.4,0.4h-0.3c-0.2-0.3-1.1-0.2-1.6-0.2s-1.3-0.1-1.5,0.2h-1.1v0.1l4,0.2v0.4l-0.2,0.2h-3.9
				l-0.4,0.2h-0.5l-0.1-0.2c-0.2,0-0.2,0.1-0.3,0.2h-0.6v0.1h5.3l0.1,0.1v0.4l-0.1,0.1l-4.9,0.1c-0.2,0.2-0.9,0.2-1.1,0l-1.1,0.1
				l-0.2-0.4c-0.2,0-0.2,0.1-0.3,0.3l6.8,0.3l0.1,0.4l-0.2,0.2h-7.1l0.3,0.1v0.2l6.2,0.2v0.4l-6.3,0.1l-0.4-0.1v0.2l-1.2,0.1l7,0.3
				l0.1,0.1v0.4l-8.8,0.1v0.1l5.6,0.1v0.2h3.9v-0.5c0.4-0.3,0.5-0.9,0.8-1.3c0.5-0.2,0.6-1,1.1-1.3c0.3-0.6,0.9-1,1.2-1.6
				c0.1-0.1,0.2-0.2,0.3-0.4c0.4-0.2,0.5-0.3,0.6-0.6c0.7-0.6,1.1-1.4,1.8-2h0.2V54c0.6-0.3,0.9-0.9,1.4-1.3c0.4-0.3,0.8-0.8,1.3-1
				c0.3-0.2,0.6-0.3,0.7-0.6h0.2c0-0.3,0.4-0.4,0.6-0.6c0.3-0.3,0.5-0.3,1-0.3c0,0.5,0,0.8-0.2,1.3l-0.1,2.4l-0.2,0.2v0.1l0.4,0.1
				c0.2,0.3,0.4,0.6-0.1,0.8c-0.1,0.2-0.2,0.3-0.3,0.4h22l-0.1-0.9c0.6-0.5,0.7,0.4,0.7,0.6l0.6,0.1c0.2,0.3,1.7,0.2,2.2,0.2
				s2,0.2,2.1-0.2l6.1,0.2c0-0.4,0.1-0.8,0.2-1.2h0.4l0.1,0.9h4.9v-0.6c0.2-0.1,0.5-0.2,0.7,0v0.9h2.4c0-0.3-0.3-0.7,0-1h0.5
				l0.2,0.2l0.5,0.1v0.3h-0.3l0.6,0.2l-0.1-0.5l-0.3-0.2l0.1-0.3h0.7v1.1h4.5l0.1,0.1l3.6,0.1l-0.2-6.3l-0.1-0.1v-5.7h-0.2
				c-0.1-1.4-0.1-2.9-0.1-4.3c-0.2-0.3-0.2-0.6-0.2-1l-4.8,0.3c-1.7,0.1-3.4,0-5,0.3v0.5h2.1l-0.1,0.4l-2.4,0.2l0.1,0.5h1.9l0.2-0.2
				l0.2,0.1v0.2h0.8v0.2c-0.7,0.1-1.4,0.1-2,0.3l0.1,0.1v0.4l0.3,0.1V42l-1.8,0.2c-0.4-0.3-0.4-0.8-0.6-1.3v-1l-1-0.1v-0.4h1v-1.1
				H181c-2.8-0.4-5.6-0.3-8.4-0.5H170l-0.1,0.1c-1.7,0.1-3.5,0.1-5.2,0.3C164,37.6,163.2,37.6,162.5,37.7L162.5,37.7z M131.8,37.7
				h-1.7v0.1l3.4-0.1v-0.2L131.8,37.7L131.8,37.7z M135.5,37.5h-0.8v0.1h1.8v-0.2L135.5,37.5L135.5,37.5z M137.1,37.3L137.1,37.3
				l1,0.1v-0.1H137.1z M138.3,37.2L138.3,37.2l0.5,0.1v-0.1H138.3z M143.1,36.9h1.1v-0.1L143.1,36.9z M162.1,36.6L162.1,36.6
				l0.7,0.1v-0.1H162.1z M145.9,36.7h1.2v-0.1H145v0.2L145.9,36.7z M197,36.3v0.2l0.2,0.1v-0.9H197V36.3z M192.8,36.5l0.4-0.1
				l-0.1-0.4c-1.3,0-2.7,0.1-4,0.2c-1.3,0.2-2.6,0.1-3.9,0.3l-0.1,0.1h-2.2v0.2h-0.2v0.3C186,36.9,189.4,36.7,192.8,36.5L192.8,36.5
				z M149.5,36.5l3.6-0.2v-0.1l-4.7,0.3H149.5L149.5,36.5z M155.4,36.3l-2.1-0.2v0.1l6.9,0.4v-0.1C158.6,36.5,157,36.4,155.4,36.3
				L155.4,36.3z M168.1,36.3c2.7-0.1,5.4-0.2,8.1,0.1l4.8,0.2c-2.5-0.2-5-0.2-7.5-0.4h-3.2c-2,0.1-4,0.4-5.9,0.4L168.1,36.3
				L168.1,36.3z M195.3,34.3v1h0.2l0.3,0.3v-0.5h0.3c0.2,0.4,0.1,0.9,0.5,1.1c0-0.2,0-0.4-0.1-0.6c-0.1-0.2-0.2-0.4-0.4-0.5h-0.4
				l-0.1-1.4h-0.3V34.3L195.3,34.3z M167.3,32.4v0.4l0.2,0.2v0.3l0.2-0.4c0-0.9-0.2-1.8-0.2-2.8h-0.1L167.3,32.4z M177.6,31.8
				l0.1,1.2h0.1l-0.1-2.5h-0.1V31.8L177.6,31.8z M178.8,32.2c0,0.3-0.1,0.7,0.4,0.7c0-0.9-0.2-1.7-0.2-2.5h-0.1L178.8,32.2
				L178.8,32.2z M169,32.9c0.2-0.4,0.1-0.7,0-1.2v-1.6h-0.1v1.7h-0.2l0.2,1.3L169,32.9L169,32.9z M162.7,31.5L162.7,31.5l0.4,0.2
				v0.9c-0.1,0.1-0.1,0.3-0.1,0.4s0,0.3,0.1,0.4h0.1c0.1-0.2,0.2-0.3,0.3-0.4c0-0.4-0.5-1.1-0.1-1.4l-0.1-1l-0.3-0.1v0.8L162.7,31.5
				L162.7,31.5z M175.3,30.6l0.5-0.1l-1-0.1l-0.1,0.2h-0.3c-0.1-0.3-0.2-0.8-0.5-1v0.3l-0.3,0.2h-0.4v1.5c-0.1,0.4-0.3,0.9,0.1,1.2
				l0.4-0.1l-0.1-0.5c-0.3-0.3-0.3-1-0.1-1.3l1.3-0.1v1.9l0.3,0.3c0-0.3,0.3-0.6,0-0.8l-0.1-1.3L175.3,30.6L175.3,30.6z M166,30.5
				h-0.1l-0.1,2.5l0.4,0.1L166,30.5L166,30.5z M164.3,30.5h-0.1l0.3,0.2l-0.1,0.4h-0.3v0.4l0.4,0.1v0.8h-0.2l0.2,0.8h0.2l0.2-1.3
				h0.2l0.1-1h-0.4v-0.4H164.3L164.3,30.5z M203.8,30.6v-0.3l-0.1-0.1V30h-0.3v2.9l0.2,2.9l1,0.1c0.4,0.3,0.7,0.4,0.8,0.9
				c0.3,0.1,0.5,0.3,0.7,0.5v0.4h0.2l-0.3-5.2l-0.1,0.2h-0.3v-0.2h-0.2v-0.2h-0.3v-0.8h-0.3v-0.3h-0.4l-0.2-0.8L203.8,30.6z
				 M176.4,30.4l0.6-0.1l-0.8-0.1c0,0.8-0.1,1.6-0.1,2.4l0.1,0.2h0.2l-0.1-2.3L176.4,30.4z M205.4,29.8v1.1l0.2-0.4
				C206.1,30.4,205.8,29.5,205.4,29.8z M157.2,30l-0.2-0.1V30H157.2L157.2,30z M155,30.4V30l-0.2,0.9l0.1-0.2h0.4
				C155.2,30.6,155.1,30.5,155,30.4L155,30.4z M150.8,29.9v0.2h0.2v-0.2H150.8z M163.4,29.9l-0.3-0.1v0.3L163.4,29.9L163.4,29.9
				L163.4,29.9z M155.4,29.9l0.3,0.1l-0.3-0.3V29.9z M152.1,29.8V30h0.2v-0.2H152.1z M165.9,29.7l-0.1,0.2l0.3-0.1L165.9,29.7
				L165.9,29.7z M177.7,29.7h-0.2v0.1L177.7,29.7L177.7,29.7z M176.1,29.5v0.3h0.3v-0.3H176.1z M167.5,29.6l-0.2-0.1v0.3h0.3
				L167.5,29.6z M174.8,29.5l-0.1,0.2h0.3v-0.3L174.8,29.5z M168.8,29.6h0.2v-0.2h-0.3L168.8,29.6z M173.1,29.3v0.2h0.3v-0.2H173.1z
				 M204.7,29.4l0.5-0.1c-0.1-0.3-0.2-0.5-0.3-0.8c-0.3-0.1-0.4-0.1-0.5-0.4V30l0.2-0.1L204.7,29.4L204.7,29.4z M203.6,28.1l0.1-0.2
				h0.5l-0.2-0.7l-0.8-0.2v2.2h0.4L203.6,28.1L203.6,28.1z M111.7,64.3c-0.2-0.1-0.2-0.2-0.4-0.2v0.7l0.6-0.1v-0.3L111.7,64.3
				L111.7,64.3z M151.7,12.3c-0.8,0.2-1.6,0.2-2.3,0.4l-0.1,0.4l1.2-0.1v-0.2h1.2v-0.2h0.8v-0.3C152.5,12.3,151.7,12.3,151.7,12.3z
				 M149.5,12.6l0.5-0.1v-0.3c-0.4-0.3-1.1-0.3-1.5-0.6H148v-0.2h-0.4v-0.2H147V11c-0.3-0.2-0.7-0.2-1-0.4c-0.5-0.1-1-0.3-1.5-0.4
				c-0.3-0.2-0.8-0.2-1.1-0.4l-1.1-0.4h-0.6c-0.2,0.2-0.4,0.3-0.6,0.4c-0.5,0.2-0.7,0.6-1.2,0.8c-0.3,0.2-0.6,0.3-0.6,0.6h-0.2
				c-0.3,0.5-1.1,0.8-1.6,1.2c-0.5,0.2-0.7,0.6-1.2,0.8l-0.4,0.4v0.2h-0.2c-0.5,0.4-1,0.7-1.5,1.1v0.3c-0.3,0.1-1.1,0.1-1.1,0.4
				l1.2,0.1c0.5-0.4,1.6,0,2.1-0.4l0.4-0.1v-0.3l-0.5,0.1l-0.1-0.1l1-0.1l0.2,1.2c-0.5,0-1,0.1-1.5,0.2s-1,0.1-1.4,0.3l-2.9,0.4
				l-0.1,0.4l0.1,0.4h0.3l0.2,0.2c0.2,0.2,0.5,0.2,0.7,0.4l-1.6,0.4l-1-0.1v0.3c-0.7,0.1-1.3,0.4-2,0.5c-0.4,0.1-0.8,0.1-1.2,0.3
				v-0.5h-0.6l-0.1,0.4H126l-1.5,0.4v0.2h-0.2c-0.4,0.3-1.2,0-1.6,0.4c-1.3,0.2-2.5,0.5-3.8,0.7c-0.6,0.3-1.3,0.1-1.8,0.5v0.3
				l1.1,0.1c1.3-0.2,2.6-0.4,3.9-0.5v-0.2c1.4,0,2.7-0.3,4-0.4c0.9-0.2,1.9-0.2,2.9-0.4c1.1-0.1,2.2-0.4,3.3-0.4
				c-0.4,0.3-1.2,0.1-1.7,0.4c-1.2,0.2-2.5,0.4-3.7,0.4c-0.9,0.2-1.8,0.3-2.7,0.4c-0.5,0.2-1.1,0.2-1.7,0.3
				c-0.9,0.1-1.8,0.2-2.7,0.4v0.2h-1.2v0.2l-1,0.1v0.2h0.2v0.4c0.8,0,1.6,0,2.4-0.2s1.7-0.1,2.4-0.4c0.7-0.1,1.3-0.1,1.9-0.3
				c1.6-0.2,3.2-0.3,4.8-0.6v-0.2h1.3c0.5-0.1,0.9-0.2,1.4-0.2l0.4,0.2c-1.3,0.3-2.6,0.3-3.9,0.5v0.2h-1.4v0.2H126v0.2h-1.1
				c-0.7,0.1-1.3,0.2-2,0.4c-1.5,0.1-3.1,0.2-4.5,0.6v0.4l0.4,0.2c1.2,0.2,2.3,0.6,3.4,0.9c-0.5,0.1-0.9,0.1-1.3,0.4l-0.4,0.1
				l-0.1,0.2v-0.3h-0.5l-0.2,0.3h-1.1c-0.1,0.1-0.3,0.2-0.4,0.3v0.3h0.3v0.4l1,0.1c0.2,0.3,0.6,0.6,1,0.7c-0.3,0-0.5,0-0.5,0.4h0.7
				c0.2,0.4,0.6,0.3,1.1,0.3c0,0.4,0.1,0.5,0.4,0.7h0.5c0.1-0.1,0.2-0.3,0.3-0.4c0-0.7,0-1.3,0.1-2l3.2-0.4v-0.2h1.3
				c1.8-0.4,3.6-0.5,5.5-0.5V26l0.2,0.2h2.2l0.1-0.1c0.2-2.1,0.3-4.2,0.3-6.3h2l0.3-0.3c0.1-0.3,0.2-0.5,0.4-0.7
				c0.1-0.4,0.3-0.6,0.5-0.9v-2.2c0.4-0.4,0.6-0.8,1.2-1c0.2-0.2,0.6-0.1,0.8-0.4c0.1-0.1,0.2-0.2,0.3-0.4c0.3-0.3,1.2-0.5,1.2-0.8
				h0.2v0.2c0.4,0.1,0.8,0.2,1.2,0.4c0.2,0.2,0.6,0.2,0.9,0.4c0.4,0.2,1.1,0.5,1.4,0l0.5-0.2v-0.7l-0.6-0.1h0.8v0.3h1.2l0.6-0.2
				v-0.3l-0.5-0.2h1v-0.2L149.5,12.6z M196.7,25.6l0.1-0.1h0.2v-0.3h-0.2v0.2h-0.2V25c-0.2,2.6,0.2,5.2,0.4,7.8
				c0.2,0.2,0.3,0.2,0.4,0.5c0-0.3,0-0.7,0-1l0.2-0.2v-0.3c-0.1-0.1-0.2-0.2-0.3-0.4l-0.3-5.1C196.7,26.2,196.7,25.9,196.7,25.6
				L196.7,25.6z M195.1,24.7v7.6h1c-0.2-0.6-0.1-1.3-0.3-1.9l-0.1-2.9h-0.2v-2.9L195.1,24.7L195.1,24.7z M195.1,23.7h0.3v-1.3h0.2
				V22h-0.2v0.3l-0.5,0.4C194.8,23,194.7,23.3,195.1,23.7L195.1,23.7L195.1,23.7z M182.1,17.9l-0.4,0.1L182.1,17.9L182.1,17.9z
				 M170.8,17.9l-0.3-0.1v0.4l0.5-0.1v-0.2C171,17.9,170.8,17.9,170.8,17.9z M150.2,15.4l0.3-0.1v-0.1h-0.6l-0.5,0.2v0.4h0.2v-0.2
				h0.6V15.4L150.2,15.4z M135,15h-0.2h0.5v-0.2L135,15z M135.5,14.8L135.5,14.8l0.7,0.1v-0.1H135.5z M157.5,14.6L157.5,14.6
				l1.1,0.1v-0.1H157.5z M159.1,14.5L159.1,14.5l0.6,0.1v-0.1H159.1z M160,14.4l1-0.1l-0.1-0.1L160,14.4L160,14.4z M197.7,14.2
				l0.1,0.1l0.1-0.1H197.7L197.7,14.2z M161,14.1l0.1,0.1l0.1-0.1l-0.1-0.1L161,14.1L161,14.1z M161.8,13.8l0.4-0.3l-0.1-0.1
				L161.8,13.8z M162.5,13.1l0.1,0.1l0.1-0.1l-0.1-0.1L162.5,13.1z M163.3,12.7l-0.3,0.2L163.3,12.7z M173,12.4L173,12.4l0.7,0.1
				v-0.1H173z M163.5,12.4h0.1C163.8,12.6,163.6,12.3,163.5,12.4z M164.2,12l-0.5,0.3L164.2,12z M172.3,12.1h-0.1l0.6,0.2
				L172.3,12.1z M196,11.5l0.2,0.3L196,11.5z M171.1,11.8l0.5,0.2L171.1,11.8z M170.5,11.6l0.5,0.1l-0.1-0.2c-0.2,0-0.5-0.1-0.6,0
				L170.5,11.6L170.5,11.6z M166.7,11.7c0.4-0.2,1-0.1,1.4,0.2c0.7,0.2,1.3,0.5,2,0.6c0.2,0.1,0.4,0.1,0.5,0.3
				c0.6,0.2,1.3,0.4,1.9,0.6l0.1,0.2h1.5c2-0.4,4.1-0.7,6.2-0.9v-0.5c-0.8,0.1-1.5,0.2-2.2,0.3c-0.3,0-1,0.1-1.3,0.3h-1.6V13
				l-2.4,0.1l-0.1-0.1v-0.2h-0.3v-0.2h-0.6l-0.5-0.2c-0.2-0.2-0.7-0.2-1-0.4c-0.3-0.3-0.9-0.2-1.3-0.4l-0.4-0.1
				c-0.5-0.4-1-0.4-1.6-0.4c-0.2,0.2-0.4,0.4-0.7,0.4c-0.4,0.3-1.2,1.1-1.7,1.1v0.2h-0.2c0,0.3-0.2,0.4-0.5,0.4v0.2
				c-0.3,0.1-0.5,0.3-0.7,0.4c-0.5,0.4-1.2,0.7-1.7,1.2l-1.1-0.1v0.2l-0.4,0.1c-0.9,0.4-2,0.2-2.9,0.5c-0.7,0.1-1.7,0.1-2.3,0.4
				l-1.3,0.1c-0.3,0.1-0.7,0.2-1.1,0.3l-0.2,0.4c0.5-0.1,1.2-0.1,1.6-0.3l1.3-0.1c0.9-0.2,1.8-0.3,2.7-0.4c0.4,0,1.2,0,1.5-0.3h0.8
				v-0.2l1.2-0.1c0.3-0.1,0.6-0.4,0.8-0.4v-0.2c0.4-0.2,0.8-0.4,1.2-0.7c0.2-0.2,0.5-0.3,0.7-0.4C164.7,12.9,165.8,12.4,166.7,11.7
				L166.7,11.7z M193.2,11.5l0.1-0.1h1c-0.1-0.4-0.1-0.6-0.6-0.4c-1.1,0.1-2.1,0.2-3.2,0.4c-0.7,0.2-1.5,0.1-2.2,0.3
				c-0.7,0.2-1.6,0.1-2.2,0.4c-1.5,0.2-3,0.5-4.5,0.5v0.2h-0.2l-0.1,0.3c1.8,0,3.6-0.5,5.4-0.6c0.8-0.3,1.9-0.1,2.8-0.4l1.4-0.1
				C191.5,11.6,192.4,11.6,193.2,11.5L193.2,11.5z M165.2,11.5l0.1-0.1c-0.4,0-0.6,0.4-1,0.5h0.3C164.8,11.7,165,11.6,165.2,11.5
				L165.2,11.5z M169.8,11.2l-0.4-0.1L169.8,11.2l-0.1,0.2h0.4L169.8,11.2z M165.4,11.2h0.1C165.8,11.3,165.5,11.1,165.4,11.2z
				 M165.8,10.9l0.1,0.1l0.1-0.1l-0.1-0.1L165.8,10.9L165.8,10.9z M195.6,10.7l0.1-0.2h-0.3v-0.3L195.6,10.7L195.6,10.7z
				 M167.7,10.5L167.7,10.5l0.5,0.1v-0.1H167.7z M166.8,10.4c0.3,0,0.6,0,0.8,0.1C167.3,10.3,167,10.1,166.8,10.4z M166.5,10
				c0.3-0.3,1.1,0,1.5,0.1c0.3,0.2,0.6,0.3,1,0.4c0.4,0.3,1.2,0.3,1.6,0.6v0.2h0.4v0.2h0.6c0.3,0.3,0.9,0.3,1.3,0.5
				c0.8,0,1.7,0,2.4-0.2c0.8-0.1,1.6-0.2,2.3-0.3l0.1-0.1h1.5v-0.2h1.1V11h0.5l-0.1-0.3h-1.1c-0.5,0.5-1.6,0.2-2.2,0.4l-0.8,0.2
				h-1.2l-2.9,0.4l-0.1-0.1c-0.9-0.2-1.7-0.6-2.4-0.9v-0.2h-0.6c-0.2-0.2-0.4-0.2-0.6-0.4c-0.6-0.2-1.3-0.5-1.9-0.5L166.5,10
				c-0.3,0.2-0.7,0.2-1,0.5h-0.3v0.2c-0.3,0.3-1.2,1-1.7,1v0.2c-0.5,0.2-0.9,0.5-1.4,0.7v0.2h-0.2V13c-0.3,0.3-0.8,0.4-1.2,0.7H160
				l-0.5,0.2l-1.4,0.1c-0.5,0.2-1,0.2-1.6,0.3l-0.9,0.2h-1.3c-0.3,0.2-0.6,0.2-0.9,0.4l-1.6,0.1v0.2h-0.2l0.1,0.2
				c1.4,0,2.7-0.4,4.1-0.5c0.7-0.3,1.9,0,2.4-0.4c0.9-0.1,2.6-0.1,3.1-0.9c0.2-0.1,0.4-0.2,0.6-0.4c0.4-0.3,1.1-0.5,1.4-1h0.3V12
				c0.2-0.1,0.4-0.2,0.5-0.4h0.3v-0.2h0.2v-0.2C165.3,10.7,166,10.4,166.5,10L166.5,10z M163.7,27.4l0.5-0.1v-0.1l-0.5-0.1V27.4
				L163.7,27.4z M131,26.4v0.4l0.5-0.1v-0.3l-0.4-0.1L131,26.4L131,26.4z M156.7,23v0.2h0.6v-0.3L156.7,23L156.7,23z M143.2,20
				c-0.4,0.2-0.9,0.1-1.3,0.3c-1.1,0.3-2.3,0.7-3.2,1.4c-0.4,0.1-0.5,0-0.5,0.4H138l-0.2,0.3l-0.2,8.4h0.7l0.6-0.2v-0.4h0.3v-0.3
				l-0.2-0.1v-2.1c0.1-0.5,0.1-1.1,0.1-1.6c0.2-0.3,0.1-0.5,0.1-0.8l0.5-0.1v-0.3h-0.5v-0.4c0.5-0.1,0.6,0,0.6-0.4h-0.5
				c0-0.3,0.5-0.2,0.5-0.6h0.4c0.1-0.1,0.3-0.2,0.5-0.3c0.5-0.4,1.3-0.3,1.7-0.6l0.8-0.2h3l0.4,0.2c0.4,0,1.1,0,1.4,0.3l0.7,0.1
				l0.2-2.1c-0.2-0.2-0.4-0.2-0.6-0.3c-0.8-0.3-1.5-0.5-2.4-0.5v-0.2h-2.8L143.2,20L143.2,20z M143.8,16.7c-0.4,0-1.1,0-1.1,0.4h1.4
				c0.2-0.3,0.5-0.5,0.7-0.7v-1.8l-0.7-0.6c-0.4,0-1.2-0.1-1.5,0.2c-0.2,0.2-0.3,0.4-0.5,0.6c-0.3,0.2-0.3,0.7-0.1,1h0.3v0.4
				c0.2,0.2,0.3,0.3,0.4,0.4h0.7l0.5-0.2l0.1,0.1L143.8,16.7z"/>
			<path class="st2" d="M123,33.4c-9.2,0.2-17.8,2.7-25.9,7.7c3.1,2,4.7,4.5,4.7,7.6c0,2.7-1.4,5.1-4.1,7.2c-2.3,1.8-5.2,3.1-8.6,4
				c2,1.6,3,3.5,3,5.7c0,4.7-3.3,8.7-9.8,12.1c2.8,1.4,4.1,2.9,4.1,4.6c0,0.4-0.1,0.7-0.3,0.7L86,82.9c-0.4-2.1-1.8-3.7-4.2-4.9
				c-4,2-8,2.9-12,2.9c-2.5,0-3.7-0.6-3.7-1.7c0-1.1,1.2-1.9,3.6-2.5c1.7-0.4,3.4-0.6,5.2-0.6c2.1,0,4.1,0.3,5.8,1
				c2.5-1.8,4.5-3.7,5.9-5.9c1.7-2.5,2.6-5,2.6-7.4c0-1.5-0.4-2.7-1.2-3.4c-1.1,0.3-2.4,0.4-4,0.4c-3.1,0-4.7-0.5-4.7-1.6
				c0-1,1-1.5,2.9-1.5c2,0,4,0.6,6,1.8c2.8-1,5.4-2.6,7.6-4.6c2.4-2.3,3.6-4.7,3.6-7.1c0-2.4-1.1-4.4-3.2-6.1
				c-2.6,1.8-6.2,5-10.7,9.6c-4,4-8,8.1-12,12.2c-4.8,4.6-9.2,8.3-13.4,11.1c0.7,1.7,1.1,3.4,1.1,5.1c0,5.6-2.6,10.6-7.7,15
				c-5.2,4.3-11.1,6.5-17.8,6.5c-6.3,0-11.1-1.7-14.5-5c-3.3-3.2-4.7-7.4-4.3-12.8c-3.8-1-6.8-2.4-8.9-4.3c-2.4-2.2-3.6-4.8-3.6-7.9
				c0-4.9,2.7-9,8-12.4c5.4-3.3,11.9-5,19.6-5c1.5,0,3,0.1,4.5,0.3c0.9-0.7,2-1.5,3.4-2.4c14.1-9,28.4-13.5,42.7-13.5
				c5.6,0,10,0.8,13.4,2.5c8.1-4.9,17.1-7.4,26.9-7.5L123,33.4L123,33.4z M303.4,66.3c0,1.8-1.1,3.3-3.3,4.4c-1.9,1-4,1.4-6.4,1.4
				c-1.5,0-2.8-0.2-3.8-0.7c-1.4-0.6-2-1.4-2-2.6c0-0.8,0.5-1.6,1.4-2.2c0.9-0.6,1.8-0.9,2.8-0.9c0.2,0,0.3,0,0.3,0.1
				c-0.9,0-1.8,0.4-2.6,1c-0.8,0.6-1.2,1.3-1.2,2.1c0,1,0.6,1.8,1.9,2.3c1,0.4,2.1,0.7,3.4,0.7c2.2,0,4.2-0.4,5.9-1.3
				c2-1,3-2.5,3-4.2c0-1.6-1-2.9-3-3.8c-1.6-0.7-3.5-1.1-5.6-1.1c-4.7,0-9.2,1.3-13.3,3.8c1.6,1,2.3,2.2,2.3,3.8
				c0,1.3-0.7,2.5-2,3.6c-1.7,1.3-4.4,2.3-6.7,2.3c-1.5,0-2.3-0.3-2.3-0.8c0-0.1,0-0.1,0-0.2c0-0.1,0.1-0.1,0.1-0.2l0.3,0.1
				l-0.1,0.1v0.1c0,0.2,0.3,0.3,0.8,0.5c0.4,0.1,0.7,0.1,1.1,0.1c2.3,0,4.5-1.3,6-2.7c1.2-1.1,1.8-2.3,1.8-3.5s-0.5-2.2-1.6-3
				c-1.3,0.9-3,2.5-5.3,4.7c-2,2-4,4-6,6c-2.4,2.3-4.6,4.1-6.6,5.5c0.3,0.8,0.5,1.7,0.5,2.5c0,2.8-1.3,5.3-3.8,7.4
				c-2.6,2.2-5.5,3.2-8.8,3.2c-3.1,0-5.5-0.8-7.2-2.5c-0.1-0.1-0.2-0.2-0.3-0.3c-2.7,0.8-5.6,1.1-8.4,1.1c-3.9,0-7.2-0.8-9.8-2.5
				c-2.8-1.8-4.2-4.3-4.2-7.5c0-4.5,2.4-8.7,7-12.6c4.2-3.5,9-5.9,14.6-7.2c-0.4-0.8-0.6-1.7-0.6-2.6c0-1.5,0.4-2.9,1.1-4.2
				c-4.6-1.1-8.3-2.6-11.2-4.6c-3.6-2.5-5.5-5.5-5.5-8.9c0-3.2,1.4-5.8,4.3-7.8c2.7-1.9,6-2.8,9.8-2.8c3.3,0,6.5,0.8,9.4,2.4
				c3.3,1.8,4.9,4,4.9,6.7c0,0.4-0.1,0.7-0.3,0.7c0,0-0.1,0-0.1-0.1V42c0-2.4-1.5-4.5-4.6-6.5c-2.6-1.7-5.8-2.5-9.4-2.5
				c-3.6,0-6.6,0.8-9.1,2.4c-2.7,1.8-4,4.1-4,7c0,3.3,1.8,6.1,5.5,8.6c2.8,1.9,6.4,3.4,10.9,4.5c1.9-2.8,5-5.1,9.3-6.7
				c3.8-1.4,7.8-2.1,12-2.1c3.5,0,6.5,0.5,9,1.4c3.4,1.2,5.1,3.1,5.1,5.7c0,2.4-1.2,4.2-3.6,5.5c-2.1,1.2-4.5,1.8-7.5,1.8
				c-1.9,0-3.7-0.3-5.2-0.8c-1.8-0.7-3-1.8-3.5-3.1c-1.5,0.3-3.3,0.4-5.2,0.4c-2.9,0-5.7-0.2-8.6-0.6c-0.6,1.3-1,2.7-1,4.2
				c0,0.6,0.1,1.2,0.2,1.8c1.1-0.2,2.1-0.3,3.2-0.3c3.9,0,5.8,0.8,5.8,2.3c0,1.2-1.1,1.9-3.4,1.9c-3.6,0-6.1-1-7.5-3
				c-4.8,1.2-9,3.7-12.7,7.5c-3.8,3.9-5.8,7.9-5.8,12c0,2.9,0.9,5.2,2.8,6.9c1.9,1.6,4.6,2.4,8,2.4c2.6,0,5.1-0.4,7.6-1.3
				c-1-1.4-1.4-3.2-1.3-5.3c-2-0.5-4.5-2-5.4-2.8s-1.3-1.7-1.3-2.8c0-1.6,0.6-3,1.8-4.3c0.6-0.8,1.5-1.6,2.7-2.3
				c2.8-1.7,6.6-2.7,10-2.7c0.7,0,1.4,0,2.2,0.2c0.4-0.3,0.9-0.6,1.4-1c7-4.5,14-6.7,21.1-6.7c2.8,0,5,0.4,6.6,1.2
				c4.2-2.5,8.8-3.7,13.8-3.7c2.3,0,4.3,0.4,6,1.1C302.3,63.3,303.4,64.6,303.4,66.3L303.4,66.3z M280,65.2
				c-1.4-0.8-3.5-1.1-6.3-1.1c-3.3,0-6.6,0.5-9.8,1.6c-2.7,0.9-5.6,2.2-8.8,4.1c-1.3,0.7-2.3,1.4-3,1.9c2,0.5,4.5,1.7,5.2,3.3
				c0.6,0.9,0.9,2,0.9,3.2c0,0.1,0,0.1,0,0.2c1.8,0.5,3.2,1.4,3.9,2.6c1.6-1.3,3.6-3.1,5.9-5.3c3.1-3.1,5-4.9,5.6-5.5
				C275.8,68.1,278,66.4,280,65.2L280,65.2z M251.2,72.4c-4.4,3.3-9.1,8.3-9.6,13.6c1.4,0.4,3.1,0.5,5,0.5c1.7,0,3.4-0.2,5-0.5
				c0.9-0.8,1.7-1.7,2.4-2.6c1.4-1.8,2.2-3.5,2.4-5.1c-0.2,0-0.3,0-0.5,0c-1.6,0-3.1,0.3-4.5,0.9c-1.5,0.7-2.6,1.6-3.1,2.8l-0.2,0.6
				c-0.1,0.2-0.1,0.6-0.1,1c0,0.1,0,0.2,0,0.3s0,0.2,0,0.2s0,0,0,0.1c0,0,0,0-0.1,0c-0.2,0-0.2-0.2-0.2-0.8c0-0.3,0-0.6,0.1-0.8
				c0.4-1.5,1.7-2.8,3.4-3.5c1.4-0.7,3-1,4.8-1c0.1,0,0.2,0,0.3,0c0-0.2,0-0.4,0-0.7C256.4,74.6,254.5,72.8,251.2,72.4L251.2,72.4z
				 M255.2,85c2.1-0.8,4.3-2.1,6.5-3.8c-0.7-1.2-1.9-2.1-3.6-2.6C258.1,80.8,257.1,82.9,255.2,85L255.2,85z M250.2,72.3
				c-0.5-0.1-1-0.1-1.5-0.1c-3.1,0-6.1,0.5-8.6,2.1c-2.8,1.8-4.1,4.1-4.1,6.7c0,0.3,0,0.5,0.1,0.8l0,0c0.5,2.3,2.6,3.4,5.3,4
				C241.7,80.7,245.8,75.7,250.2,72.3L250.2,72.3z M262.5,84.2c0-0.7-0.1-1.4-0.4-2.1c-2.4,1.6-4.9,2.8-7.3,3.5
				c-0.1,0-0.3,0.1-0.4,0.1c-2.2,2.3-5.1,4.1-8.5,5.4c-0.8,0.3-1.7,0.6-2.6,0.9c0.2,0.2,0.3,0.3,0.5,0.5c1.6,1.4,3.8,2.1,6.6,2.1
				c3.2,0,6-1.1,8.4-3.3C261.4,89.3,262.5,86.9,262.5,84.2L262.5,84.2z M251.2,86.5c-1.5,0.2-3.1,0.3-4.6,0.3c-1.7,0-3.3-0.2-5-0.5
				c0,0.2,0,0.5,0,0.7c0,1.7,0.4,3.2,1.3,4.4c2.1-0.8,4.2-1.9,6-3.2C249.7,87.7,250.4,87.1,251.2,86.5L251.2,86.5z M87.5,59.7
				L87.5,59.7c-1.2-1.1-2.9-1.6-5-1.6c-1.6,0-2.4,0.3-2.4,0.9c0,0.4,0.5,0.7,1.6,0.9c0.7,0.1,1.5,0.2,2.2,0.2
				C85,60.2,86.2,60.1,87.5,59.7L87.5,59.7z M95.4,40.8c-2.8-1.5-7-2.3-12.7-2.3c-6.7,0-13.4,1.1-19.8,3.2
				c-5.4,1.8-11.4,4.5-17.8,8.3c-2.8,1.6-4.9,3-6.6,4.2l0,0c7.8,1.6,11.7,4.9,11.7,9.8c0,1-0.2,2.1-0.6,3c4.6,1,7.8,2.8,9.6,5.6
				c3.3-2.6,7.3-6.2,11.9-10.8c6.3-6.3,10-10,11.3-11.2C87,46.6,91.3,43.3,95.4,40.8L95.4,40.8z M80.3,77.4L80.3,77.4
				c-1.6-0.6-3.3-0.8-5-0.8c-1.6,0-3.1,0.1-4.4,0.4C69,77.4,68,78.1,68,79.1s1,1.4,2.9,1.4C74,80.5,77.1,79.4,80.3,77.4L80.3,77.4z
				 M49.8,63.8c0-2.4-1.4-4.4-4.3-6c-2.2-1.2-5-2-8.3-2.5C29.7,60.9,24.4,66.9,21,73.2c2.5,1.3,5.4,1.9,8.7,1.8h1.2H31
				c1.1-2.6,3.3-4.7,6.5-6.1c2.9-1.3,6.1-2,9.7-2c0.7,0,1.3,0,2,0.1C49.5,66,49.8,64.9,49.8,63.8L49.8,63.8z M48.8,67.4
				c-0.6-0.1-1.3-0.1-2-0.1c-3.3,0-6.3,0.6-9,1.9c-3.1,1.4-5.2,3.2-6.3,5.6h0.1c3.6-0.1,6.9-0.8,9.9-1.9
				C45,71.6,47.4,69.7,48.8,67.4L48.8,67.4z M58.5,73.3c-1.7-2.9-4.7-4.8-9.1-5.8c-1.4,2.8-3.9,4.9-7.6,6.4c-3.2,1.3-6.8,2-10.7,2.1
				c-0.2,0.4-0.3,1.1-0.3,2c0,0.2,0,0.3,0.1,0.5c0,0.2,0.1,0.3,0.1,0.5v0.1l-0.1,0.1c-0.3,0-0.5-0.5-0.5-1.5c0-0.7,0.1-1.2,0.2-1.7
				c-4,0-7.3-0.8-9.9-2.2c-1.6,3.2-2.6,6.2-2.8,9.1C20.8,83.6,24.2,84,28,84c6,0,11.6-0.9,16.5-2.7C49,79.5,53.7,76.9,58.5,73.3
				L58.5,73.3z M35.1,55.1C34.4,55,33.3,55,32,55c-7.2,0-13.5,1.5-18.7,4.5C7.9,62.6,5.1,66.4,5.1,71c0,5.7,4,9.6,12,11.7
				c0.2-2.9,1.1-6.1,2.7-9.3c-0.9-0.6-1.6-1.2-2.3-2.1c-0.7-1-1.1-1.8-1.1-2.6c0-0.1,0-0.1,0.1-0.2c0,0,0.1-0.1,0.2-0.1
				c0.5,1.7,1.6,3.2,3.4,4.4C23.2,66.3,28.2,60.5,35.1,55.1L35.1,55.1z M60.2,79.2c0-1.3-0.3-2.7-0.8-4.2c-4.9,3.2-9.8,5.6-14.7,7.1
				c-5.1,1.5-10.7,2.3-16.8,2.3c-3.5,0-6.9-0.4-10.1-1.1c0,0.2-0.1,0.7-0.1,1.5c0,4.7,1.6,8.5,4.9,11.3c3.3,2.9,7.7,4.3,13.3,4.3
				c6.4,0,12.1-2.2,17-6.7C57.8,89.5,60.2,84.6,60.2,79.2L60.2,79.2z M112.5,73.2c-0.6,0.1-1.9,0.9-3.8,2.3c-1.9,1.4-3.3,2.1-4,2.1
				c-0.2,0-0.3-0.2-0.5-0.5c0-0.6,1.1-2,3.4-4.3s3.4-3.4,3.4-3.5s-0.2-0.2-0.5-0.2c-1.1,0-1.8,0.1-2.1,0.3c-2.1,1.5-4.2,3.1-6.3,4.6
				c-3.4,2.4-5.5,3.6-6.3,3.6c-0.1,0-0.3,0-0.4-0.1s-0.1-0.3-0.1-0.4c0-0.2,0.1-0.4,0.1-0.6c0.1-0.2,0.1-0.4,0.1-0.6
				c0-0.4-0.4-0.6-1.1-0.6c-1.2,0-2,0.5-2.4,1.5h-0.1c0,0.2-0.1,0.4-0.1,0.7c0,0.9,0.6,1.3,1.9,1.3s3-0.6,5-1.8
				c0.8-0.4,2.2-1.5,4.4-3.2c-1.5,1.7-2.3,3-2.3,3.6c0,0.9,0.6,1.4,1.9,1.4c1.5,0,3.4-0.7,5.6-2.2C110.9,74.8,112.3,73.7,112.5,73.2
				L112.5,73.2z M134.4,73.1L134.4,73.1c-0.2,0-1.4,0.8-3.5,2.3s-3.7,2.3-4.6,2.3c-0.2,0-0.3,0-0.5-0.1l-0.1-0.3
				c0-0.8,1.1-2.3,3.4-4.6c2.3-2.3,3.4-3.5,3.4-3.6s-0.3-0.2-0.9-0.2c-1.2,0-2.6,0.7-4.1,2.2h-0.1c0.1-0.2,0.1-0.5,0.1-0.7
				c0-1-0.8-1.5-2.3-1.5s-3.6,0.6-6.2,1.8s-4.4,2.3-5.5,3.4l-0.1,0.2v0.1c0.1,0,0.1,0.1,0.2,0.1c0.2,0,0.6-0.3,1.3-0.9h0.1
				c-1.2,1.2-1.9,2.3-1.9,3.4c0,1.2,0.8,1.8,2.5,1.8c2.2,0,4.7-1.1,7.5-3.2h0.1c-0.6,0.6-0.9,1.2-0.9,1.8c0,0.9,0.6,1.3,1.9,1.3
				c1.6,0,3.5-0.7,5.7-2.2C132.9,74.6,134.4,73.4,134.4,73.1L134.4,73.1z M126.9,70.6c0-0.7-0.4-1-1.3-1c-1.2,0-3.1,1.1-5.7,3.2
				c-2.7,2.2-4,3.7-4,4.6c0,0.4,0.3,0.7,0.9,0.7c1.3,0,3.3-1,6-3C125.6,73.1,126.9,71.6,126.9,70.6L126.9,70.6z M156,73.1L156,73.1
				c0-0.1,0-0.1-0.1-0.1c-1.5,0.9-2.5,1.5-3.1,2.1c-1.5,1-3.2,2-5.2,3.1l-3.1,1.7v-0.1c4.8-5.4,7.5-8.5,8.2-9.2s1-1.1,1-1.2
				c0-0.3-0.4-0.4-1.2-0.4s-1.9,0.6-3.2,1.9h-0.1c0.2-1.3-0.5-1.9-2.1-1.9c-1.7,0-3.8,0.6-6.3,1.7c-2.5,1.1-4.4,2.3-5.6,3.4
				l-0.1,0.2v0.1l0.1,0.1c0.1,0,0.5-0.3,1.3-0.8v0.1c-1.2,1-1.9,2.1-1.9,3.3s0.8,1.8,2.5,1.8c2,0,4.4-1,7.2-3V76
				c-1.7,2.2-3.1,3.9-4.2,5.1c-3.2,1.6-6.3,3.2-9.5,4.7c-5,2.6-8.9,4.9-11.7,6.9c-3.8,2.7-5.8,4.9-5.8,6.6c0,1.3,1.1,2,3.2,2
				c1.2,0,2.8-0.4,4.6-1.2c7.5-3.2,15.1-9.7,22.7-19.4c2-1,4.2-2.2,6.6-3.6C154.2,75,156,73.7,156,73.1L156,73.1z M148.7,70.6
				c0,1-1.4,2.5-4.1,4.5c-2.7,2-4.7,3-6,3c-0.6,0-0.9-0.2-0.9-0.7c0-0.9,1.3-2.5,4-4.6s4.6-3.2,5.8-3.2
				C148.3,69.6,148.7,69.9,148.7,70.6L148.7,70.6z M139.8,82L139.8,82c-8.6,4.5-13.3,7-14.1,7.5c-6.6,4-9.9,7.2-9.9,9.6
				c0,0.9,0.6,1.4,1.9,1.4C121.9,100.5,129.3,94.4,139.8,82L139.8,82z M172.8,73.1c0,0.1-0.2,0.3-0.6,0.7c-1.6,1.4-3.5,2.6-5.4,3.6
				c-2.3,1.2-4.5,1.7-6.5,1.7c-2.4,0-3.6-0.7-3.6-2.1c0-1,0.5-2.1,1.6-3.3h-0.1c-0.7,0.6-1.1,0.8-1.4,0.8c-0.1,0-0.1,0-0.1-0.1v-0.1
				l0.1-0.2c1.2-1.2,3.1-2.3,5.5-3.4c2.6-1.2,4.7-1.7,6.4-1.7c1.3,0,1.9,0.5,1.9,1.5c0,1.7-3.3,3.4-10,5.2c-0.3,0.7-0.4,1.2-0.4,1.5
				c0,0.7,0.5,1,1.5,1c1.4,0,3-0.4,4.8-1.3c1.3-0.6,2.7-1.5,4.2-2.5c1.3-0.9,1.9-1.4,2-1.4C172.8,72.9,172.8,73,172.8,73.1
				L172.8,73.1z M168.2,70.3c0-0.3-0.3-0.5-0.8-0.5c-0.9,0-2.1,0.7-3.6,2.1c-1.2,1.1-2.1,2.1-2.9,3.2v0.1
				C165.8,73.8,168.2,72.2,168.2,70.3L168.2,70.3z M196.1,73.4c-0.1,0-0.1-0.1-0.2-0.1h-0.2c-3.5,2.9-5.7,4.3-6.5,4.3
				c-0.1,0-0.2,0-0.3,0s-0.2-0.1-0.2-0.1c-0.1-0.1-0.2-0.3-0.2-0.6c0-0.6,1-1.9,3-4s3-3.2,3-3.3c0-0.2-0.5-0.3-1.4-0.3
				c-1,0-2.1,0.5-3.3,1.6c-2.2,1.9-3.4,2.9-3.4,3c-1.5,1-3.1,1.6-4.8,1.6c-0.6,0-0.9-0.2-0.9-0.5c0-0.1,0.1-0.2,0.3-0.4
				s0.3-0.4,0.3-0.6c0-0.3-0.2-0.5-0.5-0.7c2.1-2.3,3.1-3.5,3.1-3.6c0-0.2-0.4-0.3-1.3-0.3c-1,0-2.5,0.5-4.4,1.5s-3.2,1.9-3.6,2.7
				c0,0.1,0,0.1,0.1,0.1c0.4,0,2-1,4.9-3v0.1c-1,0.8-2.3,2.1-4,3.9c-2,2-3,3.3-3,3.9c0,0.3,0.5,0.4,1.5,0.4c0.8,0,1.5-0.2,2.3-0.4
				c1.4-1.5,2.4-2.6,3.1-3.5c0.5,0.6,1.3,0.9,2.5,0.9c1.5,0,3.1-0.4,4.4-1.2c-0.9,1-1.3,1.9-1.3,2.7c0,1.1,0.8,1.6,2.3,1.6
				c1.1,0,2.6-0.5,4.4-1.5C193.7,76.4,195.2,75,196.1,73.4L196.1,73.4z M220.2,73.1c0,0.4-1.5,1.6-4.5,3.6c-2.3,1.5-4.2,2.2-5.7,2.2
				c-1.4,0-2.1-0.4-2.1-1.3c0-1.1,1.2-2.7,3.6-4.7l-0.1-0.1c-5.9,4.1-9.9,6.2-11.8,6.2c-1.5,0-2.2-0.4-2.2-1.3c0-1.5,2-3.8,6-7v-0.1
				c-0.7,0.4-1.8,1.1-3.2,2c-0.5,0.4-1.3,1-2.4,1.7c-0.3,0.1-0.5,0.2-0.7,0.2l-0.1-0.1c0.8-1,2.2-2.1,4.3-3.4c2.3-1.3,4.1-2,5.4-2
				c0.4,0,0.7,0.1,0.8,0.2c0,0.1-1.3,1.4-3.6,4c-2,2.1-3,3.5-3,4c0,0,0.1,0.1,0.2,0.2c0.1,0.1,0.2,0.2,0.5,0.2c1.1,0,5.5-2.7,13.2-8
				c0.6-0.4,1.2-0.6,1.9-0.6c0.9,0,1.4,0.1,1.4,0.3s-1.1,1.4-3.3,3.6c-2.2,2.2-3.3,3.6-3.3,4.2c0,0.1,0,0.3,0.1,0.4
				c0.1,0,0.1,0.1,0.2,0.1c0.1,0,0.1,0,0.2,0c1.5,0,3.9-1.4,7.3-4.2L220.2,73.1L220.2,73.1L220.2,73.1z M278.3,54
				c0-2.4-1.6-4.2-4.9-5.4c-2.4-0.8-5.2-1.2-8.5-1.2c-3.9,0-7.5,0.7-11,2.2c-3.7,1.6-6.4,3.8-8.2,6.5l0,0c3.1,0.6,6.4,0.9,10,0.9
				c0.8,0,1.9-0.1,3.3-0.3v-0.2c0-1.2,0.5-2.2,1.5-3c1-0.9,2.2-1.3,3.6-1.3s2.1,0.5,2.1,1.4c0,1.6-2.2,2.8-6.6,3.6
				c0.8,2.1,3.5,3.1,8.1,3.1c2.6,0,4.9-0.5,6.9-1.5C277.1,57.7,278.3,56.1,278.3,54L278.3,54z M265.7,53.6c0-0.7-0.6-1-1.7-1
				c-1.2,0-2.3,0.4-3.1,1.2c-0.9,0.8-1.2,1.7-1.2,2.7v0.1C263.6,56,265.7,55,265.7,53.6L265.7,53.6z M252.8,65.1
				c0-1.2-1.7-1.8-5.2-1.8c-1,0-2,0.1-3,0.3c0.6,2,2.5,3,5.7,3C252,66.6,252.8,66.1,252.8,65.1L252.8,65.1z"/>
			<path class="st3" d="M88.6,85c0,0.2,0,0.4,0.1,0.5c0.1,0.2,0.2,0.3,0.3,0.4c0.3,0.3,0.7,0.4,1.1,0.4s0.8-0.1,1.1-0.4
				c0.3-0.3,0.5-0.6,0.5-0.9c0-0.4-0.1-0.7-0.4-0.9c-0.3-0.3-0.7-0.4-1.1-0.4s-0.8,0.1-1.1,0.4C88.7,84.4,88.6,84.7,88.6,85L88.6,85
				z M92.3,86.9h-0.7v-0.5c-0.4,0.4-1,0.6-1.5,0.6c-0.7,0-1.2-0.2-1.6-0.6c-0.2-0.2-0.4-0.4-0.5-0.6c-0.1-0.2-0.2-0.5-0.2-0.8
				c0-0.5,0.2-1,0.6-1.4s1-0.6,1.6-0.6s1.1,0.2,1.6,0.6v-0.4h0.8L92.3,86.9L92.3,86.9z M94.4,83.8v3.1h-0.7v-3.7h2.5v0.6H94.4z
				 M99.1,83.7c-0.3,0-0.7,0.1-0.9,0.3c-0.3,0.2-0.4,0.4-0.5,0.7h2.9C100.2,84,99.8,83.7,99.1,83.7L99.1,83.7z M100.3,85.7h0.8
				c-0.4,0.8-1.1,1.2-2.1,1.2c-0.6,0-1.2-0.2-1.6-0.6c-0.4-0.4-0.7-0.8-0.7-1.4c0-0.5,0.2-1,0.7-1.4c0.4-0.4,1-0.6,1.6-0.6
				c0.5,0,0.9,0.1,1.3,0.3s0.6,0.5,0.8,0.9c0.1,0.3,0.2,0.6,0.2,0.9h-3.7c0.1,0.3,0.2,0.6,0.5,0.8s0.6,0.3,1,0.3
				C99.6,86.4,100,86.2,100.3,85.7L100.3,85.7z M103.1,85.3v1.6h-0.7v-3.7h0.7v1.5h2.1v-1.5h0.7v3.7h-0.7v-1.6L103.1,85.3
				L103.1,85.3z M108.8,86.9H108v-3.1h-1.2v-0.6h3.1v0.6h-1.2L108.8,86.9L108.8,86.9z M114.2,85.7h0.8c-0.4,0.9-1.1,1.3-2.1,1.3
				c-0.7,0-1.2-0.2-1.6-0.6c-0.2-0.2-0.4-0.4-0.5-0.6c-0.1-0.2-0.2-0.5-0.2-0.8s0.1-0.5,0.2-0.8c0.1-0.2,0.3-0.5,0.5-0.6
				c0.4-0.4,1-0.6,1.6-0.6c0.5,0,0.9,0.1,1.3,0.3s0.6,0.6,0.8,1h-0.8c-0.2-0.5-0.7-0.7-1.3-0.7c-0.2,0-0.4,0-0.6,0.1
				s-0.3,0.2-0.5,0.3c-0.1,0.1-0.2,0.3-0.3,0.4c-0.1,0.2-0.1,0.3-0.1,0.5s0,0.4,0.1,0.5c0.1,0.2,0.2,0.3,0.3,0.4
				c0.1,0.1,0.3,0.2,0.5,0.3s0.4,0.1,0.6,0.1C113.5,86.4,114,86.1,114.2,85.7L114.2,85.7z M117.6,86.9h-0.8v-3.1h-1.2v-0.6h3.1v0.6
				h-1.2L117.6,86.9L117.6,86.9z M119.6,86.9v-3.7h1.6c1,0,1.5,0.3,1.5,1c0,0.3-0.2,0.6-0.5,0.7l0,0c0.2,0.1,0.4,0.2,0.5,0.3
				s0.2,0.3,0.2,0.5s0,0.3-0.1,0.5c-0.1,0.1-0.2,0.3-0.4,0.3c-0.3,0.2-0.6,0.2-1.1,0.2h-1.7V86.9z M121.2,83.7h-0.9v1h0.9
				c0.6,0,0.9-0.2,0.9-0.6C122.1,83.9,121.8,83.7,121.2,83.7L121.2,83.7z M120.4,85.3v1.1h0.9c0.6,0,0.9-0.2,0.9-0.5
				c0-0.4-0.3-0.6-0.9-0.6H120.4z M124.6,85c0,0.2,0,0.4,0.1,0.5c0.1,0.2,0.2,0.3,0.3,0.4c0.3,0.3,0.7,0.4,1.1,0.4s0.8-0.1,1.1-0.4
				c0.1-0.1,0.2-0.3,0.3-0.4c0.1-0.2,0.1-0.3,0.1-0.5s0-0.4-0.1-0.5c-0.1-0.2-0.2-0.3-0.3-0.4c-0.3-0.3-0.7-0.4-1.1-0.4
				s-0.8,0.1-1.1,0.4c-0.1,0.1-0.2,0.3-0.3,0.4C124.6,84.7,124.5,84.9,124.6,85L124.6,85z M128.3,85c0,0.5-0.2,1-0.7,1.4
				c-0.4,0.4-1,0.6-1.6,0.6s-1.2-0.2-1.6-0.6c-0.4-0.4-0.7-0.8-0.7-1.4c0-0.5,0.2-1,0.7-1.4c0.4-0.4,1-0.6,1.6-0.6s1.2,0.2,1.6,0.6
				C128.1,84,128.3,84.5,128.3,85z M154,85.3v1.6h-0.7v-3.7h0.7v1.5h2.1v-1.5h0.7v3.7h-0.7v-1.6L154,85.3L154,85.3z M160.2,83.7
				c-0.3,0-0.7,0.1-0.9,0.3c-0.3,0.2-0.4,0.4-0.5,0.7h2.9C161.4,84,160.9,83.7,160.2,83.7L160.2,83.7z M161.5,85.7h0.8
				c-0.4,0.8-1.1,1.2-2.1,1.2c-0.6,0-1.2-0.2-1.6-0.6c-0.4-0.4-0.7-0.8-0.7-1.4c0-0.5,0.2-1,0.7-1.4c0.4-0.4,1-0.6,1.6-0.6
				c0.5,0,0.9,0.1,1.3,0.3c0.4,0.2,0.6,0.5,0.8,0.9c0.1,0.3,0.2,0.6,0.2,0.9h-3.7c0.1,0.3,0.2,0.6,0.5,0.8s0.6,0.3,1,0.3
				C160.8,86.4,161.2,86.2,161.5,85.7L161.5,85.7z M163.1,86.3h0.5l1.3-3.1h0.8l1.3,3.1h0.5v1.4h-0.7v-0.8H164v0.8h-0.7v-1.4H163.1z
				 M165.2,84l-0.9,2.3h1.8L165.2,84z M168.2,86.9v-3.7h1.6c1,0,1.5,0.3,1.5,1c0,0.3-0.2,0.6-0.5,0.7l0,0c0.2,0.1,0.4,0.2,0.5,0.3
				s0.2,0.3,0.2,0.5s0,0.3-0.1,0.5c-0.1,0.1-0.2,0.3-0.4,0.3c-0.3,0.2-0.6,0.2-1.1,0.2h-1.7V86.9z M169.7,83.7h-0.9v1h0.9
				c0.6,0,0.9-0.2,0.9-0.6C170.6,83.9,170.3,83.7,169.7,83.7z M168.9,85.3v1.1h0.9c0.6,0,0.9-0.2,0.9-0.5c0-0.4-0.3-0.6-0.9-0.6
				H168.9z M173.3,86.9h-0.7v-3.7h0.7v2.7l2.4-2.7h0.7v3.7h-0.8v-2.7L173.3,86.9L173.3,86.9z M179.8,86.9v-3.7h0.7v3.7H179.8z
				 M182.2,86.9l-1.7-1.9l1.8-1.8h0.9l-1.8,1.7l1.8,1.9h-1V86.9z M177.1,83.2h0.9l1.8,1.8l-1.7,1.9h-1l1.8-1.9L177.1,83.2
				L177.1,83.2z M184.6,86.9h-0.7v-3.7h0.7v2.7l2.4-2.7h0.7v3.7H187v-2.7L184.6,86.9L184.6,86.9z M191.8,86.9h-0.6l-1.4-2.7v2.7H189
				v-3.7h1l1.5,3l1.5-3h1v3.7h-0.7v-2.7L191.8,86.9L191.8,86.9z M195.7,85c0,0.2,0,0.4,0.1,0.5c0.1,0.2,0.2,0.3,0.3,0.4
				c0.3,0.3,0.7,0.4,1.1,0.4c0.4,0,0.8-0.1,1.1-0.4c0.1-0.1,0.2-0.3,0.3-0.4c0.1-0.2,0.1-0.3,0.1-0.5s0-0.4-0.1-0.5
				c-0.1-0.2-0.2-0.3-0.3-0.4c-0.3-0.3-0.7-0.4-1.1-0.4c-0.4,0-0.8,0.1-1.1,0.4c-0.1,0.1-0.2,0.3-0.3,0.4S195.7,84.9,195.7,85
				L195.7,85z M199.5,85c0,0.5-0.2,1-0.7,1.4c-0.4,0.4-1,0.6-1.6,0.6s-1.2-0.2-1.6-0.6c-0.4-0.4-0.7-0.8-0.7-1.4
				c0-0.5,0.2-1,0.7-1.4c0.4-0.4,1-0.6,1.6-0.6s1.2,0.2,1.6,0.6C199.2,84,199.5,84.5,199.5,85z M203.8,85.7h0.8
				c-0.4,0.9-1.1,1.3-2.1,1.3c-0.7,0-1.2-0.2-1.6-0.6c-0.2-0.2-0.4-0.4-0.5-0.6c-0.1-0.2-0.2-0.5-0.2-0.8s0.1-0.5,0.2-0.8
				c0.1-0.2,0.3-0.5,0.5-0.6c0.4-0.4,1-0.6,1.6-0.6c0.5,0,0.9,0.1,1.3,0.3c0.4,0.2,0.6,0.6,0.8,1h-0.8c-0.2-0.5-0.7-0.7-1.3-0.7
				c-0.2,0-0.4,0-0.6,0.1c-0.2,0.1-0.3,0.2-0.5,0.3c-0.1,0.1-0.2,0.3-0.3,0.4c-0.1,0.2-0.1,0.3-0.1,0.5s0,0.4,0.1,0.5
				c0.1,0.2,0.2,0.3,0.3,0.4c0.1,0.1,0.3,0.2,0.5,0.3s0.4,0.1,0.6,0.1C203.2,86.4,203.6,86.1,203.8,85.7L203.8,85.7z M207.2,86.9
				h-0.8v-3.1h-1.2v-0.6h3.1v0.6h-1.2L207.2,86.9L207.2,86.9z M210,86.9h-0.7v-3.7h0.7v2.7l2.4-2.7h0.7v3.7h-0.7v-2.7L210,86.9z"/>
		</g>
	</g>
</g>
</svg>
