<?xml version="1.0" encoding="utf-8"?>
<!-- Generator: Adobe Illustrator 23.0.3, SVG Export Plug-In . SVG Version: 6.00 Build 0)  -->
<svg version="1.1" id="Слой_1" xmlns="http://www.w3.org/2000/svg" xmlns:xlink="http://www.w3.org/1999/xlink" x="0px" y="0px"
	 viewBox="0 0 310 310" style="enable-background:new 0 0 310 310;" xml:space="preserve">
<style type="text/css">
	.st0{clip-path:url(#SVGID_2_);}
	.st1{fill-rule:evenodd;clip-rule:evenodd;fill:url(#SVGID_3_);}
	.st2{fill-rule:evenodd;clip-rule:evenodd;}
	.st3{fill-rule:evenodd;clip-rule:evenodd;fill:#BA7D25;}
</style>
<g>
	<defs>
		<rect id="SVGID_1_" x="-28" y="106.2" width="360" height="96.9"/>
	</defs>
	<clipPath id="SVGID_2_">
		<use xlink:href="#SVGID_1_"  style="overflow:visible;"/>
	</clipPath>
	<g class="st0">
		
			<linearGradient id="SVGID_3_" gradientUnits="userSpaceOnUse" x1="181.9543" y1="125.0457" x2="143.3772" y2="183.7669" gradientTransform="matrix(1 0 0 -1 0 310.3369)">
			<stop  offset="0" style="stop-color:#774327"/>
			<stop  offset="0.35" style="stop-color:#B1843B"/>
			<stop  offset="0.7" style="stop-color:#D7B46A"/>
			<stop  offset="1" style="stop-color:#D7B46A"/>
		</linearGradient>
		<path class="st1" d="M191.4,111.3c-0.4,0.1-0.6,0-0.6,0.4c0.5,0,1.3,0.1,1.7-0.3v-0.2L191.4,111.3L191.4,111.3z M112.3,167.2h0.7
			v0.1L112.3,167.2L112.3,167.2z M110.9,167.1h0.6v0.1L110.9,167.1L110.9,167.1L110.9,167.1z M110.1,166.9v0.2h-0.3v0.3l3.4,0v0h0.4
			V167l-3.3-0.3L110.1,166.9L110.1,166.9z M151.1,154.5l0.1-1.6h0.1v2.1h-0.2V154.5L151.1,154.5z M145.9,153.7l0.1-0.3v1.5l-0.2,0.1
			L145.9,153.7z M149.6,154.3c0.3-0.7,0.2-1.3,0.2-2h0.1v2.6l-0.2,0.1L149.6,154.3L149.6,154.3z M147.1,155H147l0.1-1.3h0.2
			L147.1,155z M148.3,154.3l0.1-1.3h0.1v2h-0.2L148.3,154.3L148.3,154.3z M144.6,155l-0.2,0.1l0.2-1.2v-1.6h0.1L144.6,155L144.6,155
			z M143.2,154.3l0.1-0.9h0.1l-0.1,1.4L143.2,154.3z M143.2,151.7h0.2v0.2h-0.2V151.7L143.2,151.7z M144.5,151.7
			c0.1-0.1,0.4,0.1,0.1,0C144.6,151.7,144.4,151.7,144.5,151.7z M144.6,151.2l-2.9,0.1c0,0.3,0,0.5,0.3,0.7l0.2,4.1l0.2,0.2h0.4
			c0.1-0.1,0.2-0.2,0.3-0.4h0.1l0.1,0.3c0.5,0.2,1.1,0.2,1.1-0.4h0.2l0.1,0.4h0.6c0.2-0.2,0.4-0.4,0.5-0.6v0.5l0.3,0.2h0.5
			c0.2-0.1,0.2-0.4,0.3-0.5h0.1l0.2,0.4l0.5-0.1v-0.4l0.6-0.2v0.5l0.6,0.1c0.3-0.2,0.2-0.5,0.6-0.5l0.1,0.4c0.2,0.2,0.6,0.1,0.8,0
			l0.2-0.3h0.2l0.2,0.4h0.5l0.1-1l0.3-0.2l0.1-4L144.6,151.2L144.6,151.2z M161,154.9h0.1v0.5H161V154.9z M157.3,154.2l0.1-0.1v-1.8
			h0.1v2.7l-0.2-0.1V154.2L157.3,154.2z M155.9,152.3l0.1,2.6l-0.2,0.1L155.9,152.3L155.9,152.3z M158.9,154.2l0.2-0.6l0,1.4
			l-0.2-0.1V154.2L158.9,154.2z M157.4,151.5h0.2v0.2h-0.2V151.5z M155.8,151.5h0.2v0.2h-0.2V151.5z M154.3,155.1l0.1,0.4
			c-0.2,0.2-0.2,0.4-0.2,0.6h0.3v0.4c0.6,0,1.2-0.1,1.4-0.6l0.2,0.4h1.1l0.2-0.4l0.2-0.1v0.4l1.1,0.1l0.2-0.4h0.1
			c0.1,0.1,0.2,0.3,0.3,0.4h0.8v-0.4l-0.1-0.1l0.1-3.5l0.2-0.1l0.1,3.5c0.2,0.2,0.7,0,1-0.1l0.1-0.3v-4.1l-0.1-0.1h-7.1V155.1
			L154.3,155.1z M171.8,153.3l0.1,1.4h0.4v-1.5h-0.4L171.8,153.3z M124.9,153.4c0,0.3,0,0.7,0.1,1h0.5l0.2-0.2
			c0.3-0.1,0.6-0.1,0.6-0.4l0.4-0.1v-0.3C126.6,153.2,125.1,153.2,124.9,153.4L124.9,153.4z M124.6,154.2h0.3v0.4h-0.3V154.2z
			 M161.1,150.5h0.4v-0.4h-0.4V150.5z M186.6,148.9v0.3l2.4,0.1l2.8-0.1v-0.3l-1.1-0.1L186.6,148.9L186.6,148.9z M129,144.5
			l-3.4,0.2c-0.3,0.2,0,0.5,0.2,0.7l0.5-0.1v2.1c-0.3,1.3-0.2,2.7-0.2,4h0.2l0.1-0.1V150h0.1l-0.1,2.8c0.4,0.3,0.7,0.2,1.1,0
			l0.1-0.7l0.5-0.1v0.7c0.6,0,0.9-0.2,1.2-0.6h0.4l0.2-0.2v-0.4l-2.8,0l0.1-0.2c0.4,0,1.8,0.2,2.1,0v-0.2h-0.5l0.3-6.1h1.3l0.1-0.5
			l-0.1-0.1L129,144.5L129,144.5z M181.5,148.3v-0.4h3.4v0.3l-1.9,0.2l0.1,0.6l0.6,0.1v0.4h-1.2v0.5h1.2c0.1,0.3,0.6,0.3,0.7,0h0.4
			l0.1,0.5c-0.6,0-1.2,0-1.8,0.1c0,0.2,0,0.3-0.1,0.5l6.8,0v0.3c-1.6,0.2-3.2,0.1-4.8,0.1l-0.2,0.6h-0.3l-0.1-0.6h-1.9l-0.1,0.7h0.4
			v0.2h1v0.2l-1.3,0.2v0.5l6.8,0.1v0.3c-0.2,0.1-0.4,0.2-0.6,0l-3.5,0.1l-0.1,1h-0.4l-0.1-1h-2l0.1,0.5h0.2c0.1,0.2,0.2,0.5,0,0.6
			h-0.3l0.1,0.8h-0.6c-0.1-0.7-0.1-1.3-0.1-2l-0.1-0.1v-2.1l-0.3-0.1v-0.3h0.3v-0.6h-0.3v-0.4h0.3v-1.9L181.5,148.3z M171.8,147.7
			v0.3l0.4,0.1v-0.4h-0.3L171.8,147.7L171.8,147.7z M164.8,140c-1.1,0.2-2.1,0.8-2.7,1.7l-0.2,0.1v0.4h-0.2
			c-0.1,0.2-0.2,0.3-0.3,0.4l-0.2,1.5c0.1,0.1,0.2,0.1,0.3,0.1c0.1,0,0.2,0,0.3-0.1c0.3-1.3,0.7-2.5,2.2-3.1v-0.2h0.3v-0.2l0.7-0.2
			h1.9c0.3,0.1,0.6,0.2,0.8,0.2v0.2c0.5,0.2,0.8,0.5,1.2,0.8c0.2,0.3,0.4,1.1,0.8,1.1v0.9c0.2,0.1,0.2,0.2,0.4,0.2
			c0.2-0.2,0.2-0.8,0-1c-0.1-0.5-0.8-2-1.5-2v-0.2c-0.3-0.1-0.5-0.3-0.9-0.4C166.9,140,165.7,139.8,164.8,140L164.8,140z
			 M124.7,141.5h1.4v-0.3h-1.4V141.5z M187.6,140.5l1.2,0.1v-0.3h-1.2V140.5L187.6,140.5z M175.7,140c-0.3,0.1-0.6,0.3-1,0.4v0.2
			h-0.3c-0.5,0.4-1.1,0.8-1.3,1.4c-0.5,0.4-0.4,1.2-0.4,1.8l0.4,0.1c0.1-0.5,0.2-1,0.3-1.5c0.3-0.2,0.4-0.4,0.4-0.7h0.2
			c0.3-0.3,0.6-0.5,1.1-0.7c0.4-0.7,2.3-0.4,3-0.4c0.2,0.2,0.4,0.2,0.6,0.2v0.2c0.3,0.2,0.8,0.6,1.2,0.6v0.2h0.2
			c0,0.3,0.3,0.5,0.5,0.7l0.1,0.4c0.4,0.4,0.1,1.4,0.7,1.4v-1.3c-0.2-0.2-0.3-0.5-0.4-0.7c-0.1-0.2-0.3-0.3-0.4-0.5
			c-0.2-0.4-0.6-0.8-1.1-1c-0.4-0.4-1.2-0.5-1.8-0.7L175.7,140L175.7,140z M129.6,138.3c0.4,0.3,1.3,0,1.8-0.1v-0.2h-1.8V138.3
			L129.6,138.3z M134.4,137.8v0.2l1.9-0.1v-0.2h-1.8L134.4,137.8L134.4,137.8z M142.4,137.5l1.5-0.1v-0.3h-1.5V137.5L142.4,137.5z
			 M159.4,137c1.1,0.1,2.2,0.2,3.3,0.2l1.9-0.2v-0.3h-5.2V137z M146.8,136.8l-1.1,0.1v0.3l2.9-0.2v-0.3h-1.7L146.8,136.8
			L146.8,136.8z M179.6,137c2.1,0.3,4.1,0.3,6.2,0v-0.3l-2.7,0.1l-3.5-0.1V137L179.6,137z M134.5,136.3l-0.3,0.3v0.5
			c0.3,0.3,0.4,0.6,1,0.4v-0.3c0.3,0,0.6,0,0.8-0.2l-0.1-0.7l-0.6,0.1c0.1-0.5,0.3-1,0.3-1.5c-0.3-0.2-0.6-0.4-1-0.4L134.5,136.3
			L134.5,136.3z M167.3,136.5l-1,0.1v0.3c0.9,0,2,0.1,2.9-0.2v-0.3h-1.8L167.3,136.5L167.3,136.5z M188,136.5l-0.4,0.1v0.3l2.9-0.1
			l0.1-0.4L188,136.5L188,136.5z M174.3,136.6l1,0.2h2.3v-0.3l-3.3-0.2L174.3,136.6L174.3,136.6z M154,136.6
			c0.3,0.3,0.8,0.2,1.2,0.3h2.1v-0.3l-1.7-0.2H154V136.6z M151.4,136.5l-0.7,0.1v0.3h1.6l0.8-0.2v-0.3L151.4,136.5z M170.7,136.6
			h1.4v-0.4h-1.4V136.6z M153.4,136l0.1-0.1l0.6,0.1c0,0.2,0,0.2-0.2,0.4h-0.3l-0.2-0.2V136z M157.7,136.2l0.1,0.2h0.3V136l-0.4-0.1
			V136.2z M148.5,134.9l-0.2,1l0.4,0.5h0.3l-0.1-0.7c0.3-0.3,0.2-0.7,0.2-1l-0.2-0.2h-0.3L148.5,134.9z M129.9,136.7v0.2h-0.2v-1.1
			h0.2v-1.3h0.1v2.1L129.9,136.7L129.9,136.7z M131.8,136.1c0.3-0.4,0.3-0.9,0.3-1.4c0.1,0.6,0.3,1.5,0,2h-0.2L131.8,136.1
			L131.8,136.1z M138.1,136v0.2h-0.3v-0.9h0.2l0.1-1.6h0.1L138.1,136z M144.2,135.8h-0.2v-0.6c0.1-0.3,0.2-0.6,0.3-0.9v-1.1h0.1
			L144.2,135.8L144.2,135.8z M141.8,135.8l0,0.2l-0.2-0.1v-0.6c0.2-0.6,0.1-1.3,0.3-2L141.8,135.8z M147.1,135.5H147l0.1-2.6
			l0.1,2.5L147.1,135.5z M131.2,135.7l-0.1,1.2l-0.2-0.1l0.2-2.5h0.2L131.2,135.7L131.2,135.7z M139.2,134v-0.4h0.3l-0.1,2.4
			c-0.1,0.1-0.3,0.2-0.4,0.3C139,135.5,139.2,134.7,139.2,134z M132.1,133.6l0.1-0.1l0.1,0.2l-0.3,0.1L132.1,133.6L132.1,133.6z
			 M138,133h0.2v0.2H138V133z M141.1,132.3l-0.5,0.1l-0.1-0.1v-3.4l-0.1-0.1v-0.2c0.9-0.8,2-1.3,3.2-1.6c0.3-0.1,0.7-0.1,1-0.3
			l0.1-0.4h0.3v0.5h0.7c0.7,0.1,1.3,0.3,2,0.5c0.2,0.1,0.3,0.2,0.5,0.2c0.1-0.2,0.3-0.4,0.4-0.5l0.4,0.1c0,0.3-0.1,0.4-0.3,0.7h-0.2
			l-0.1,1.3c-0.3,0.3-0.9,0.2-1.4,0.2v-1h-0.1c0,1.1-0.1,2.2-0.2,3.3c-0.7,0-1.4,0-2.1,0.2v0.2c0.4,0,1.1,0,1.4-0.3l1,0.2l0.1,0.3
			h0.1v-0.3l0.2-0.2h2c0,0.4,0,0.7-0.4,1h-0.7v3.8c-0.2,0.2-0.6,0.3-0.8,0.1l-0.1-0.4l-0.3-0.1l-0.2,0.6c-0.5,0-0.6,0-0.7-0.4v-3.8
			l-0.8-0.1l-0.2,4l-0.2,0.4h-0.3c-0.4-0.3-0.3-0.1-0.6,0.2h-0.5l-0.5-0.4V136l0.2-0.1l0.1-0.3l-0.1-2.4l-0.3-0.1l-0.1,3.9h-0.5
			l-0.1-0.3h-0.2l-0.2,0.4h-0.6c-0.2-0.2-0.3-0.4-0.5-0.6v-0.4l0.2-0.1l0.1-2.6h-0.4l0-0.3c0,0.5,0,1-0.2,1.5l0.4,0.1v0.4l-0.4,0.1
			l0.1,0.9c-0.2,0.3-0.1,0.7-0.1,1h-0.4l-0.2-0.4c-0.4,0-0.3,0.2-0.5,0.4l-0.6-0.1v-0.3h-0.3v0.4H137l-0.2-4.2l-0.6,0.1l-0.2,0.6
			h-0.5l-0.1-0.4c-0.2,0.5-0.7,0.6-1.2,0.3v-0.2l0.3-0.1v-0.2c-0.5,0.2-0.2,0.5-0.5,0.7h-0.7c0.3,0.6,0.3,0.9-0.2,1.3l0.1,1.2
			l0.2,0.1l0-0.2h0.2v-2.2h0.3l0.5,0.4l-0.1,1H134l0.1,1.1l-0.1,0.1v0.9l-0.6-0.1v-0.4c-0.1,0.2-0.3,0.4-0.4,0.5h-0.5l-0.1-0.4
			l-0.4,0.1l-0.1,0.4h-0.4l-0.2-0.4l-0.5,0.4H130v-0.4l-0.3,0.1l-0.2,0.4h-0.4v-4l-1-0.1v-0.3c0.5-0.1,0.9-0.2,1.4-0.2
			c0.3,0.1,0.5,0.1,0.8,0h0.6v0.4h0.3l-0.2-0.4c0.6-0.3,1.4-0.2,2.1-0.2v0.4h0.3v-0.2h-0.2v-0.2c0.6-0.2,1.3-0.1,1.8-0.4h1.1v-0.2h3
			v0.3h0.2l0.1-0.3h0.2v-0.2l1.9-0.2l0.2,0.6l-0.1-0.6l1.1,0.1v0.4h0.2l-0.1-0.4c0.5-0.2,1-0.2,1.5-0.2V132h-1.5v-2.1h1.5v-0.1h-1.8
			l0.2,0.4v1.8l-0.3,0.1v0.2L141.1,132.3L141.1,132.3z M148.3,132v0.2h0.2V132H148.3z M146.3,129.6h-1.6v0.1h1.7L146.3,129.6z
			 M160.6,135.9l0.1-0.8l0.3-0.2v-1.2l-1.1-0.1v1.6h-0.2v-1.4l-0.4-0.1c-0.4,0.3-0.4,0.8-0.4,1.3l0.3,0.2l-0.1,1.2
			c0.2,0.1,0.2,0.2,0.4,0.2l0.1-0.5l0.3-0.1v0.5c0.1,0.1,0.2,0.1,0.3,0.1c0.1,0,0.2,0,0.3-0.1V136l-0.2-0.1L160.6,135.9L160.6,135.9
			z M158.6,135.1c0.8,0,0.5,0.4,0.4,0.9h-0.4v-0.2H158c-0.1-0.3-0.4-0.9-0.1-1.2c0.4,0,0.4,0.3,0.5,0.6L158.6,135.1z M156.4,135.5
			l0.3,0.1v0.2h0.6c0.3-0.2,0.2-0.6,0.2-0.9h-0.2c-0.4,0.7-0.6-0.2-0.6-0.5h-0.3V135.5L156.4,135.5z M183.4,134.5l0.1,0.3h0.2v-0.6
			h-0.3V134.5z M129.3,132.4c0,0,0.1,0,0.1,0C129.7,132.5,129.4,132.3,129.3,132.4z M130.1,129.2c-0.5,0.2-1.1,0.4-1.1,1h-0.2v0.4
			l0.2,0.1L129,131h-0.4l-0.4,0.2v0.6h0.4l0.1-0.3l0.3-0.1l-0.1,1.6h0.3l0.2,0.3c0.8,0,2.1,0.1,2.7-0.4v-0.7l-0.2-0.3h0.2l0.1-0.9
			h0.3l-0.1,1.9c0.5,0,0.7,0,1.1-0.3v-0.3l-0.3-0.1l0.1-0.8c0.3-0.1,0.3-0.3,0.5-0.4V130c-0.3-0.2-0.3-0.6-0.6-0.8h-0.3
			c0,0.5,0.1,0.9,0.1,1.4h-0.7c-0.1-0.4-0.3-0.9-0.9-1.2v-0.3l-0.1-0.1L130.1,129.2L130.1,129.2z M163.6,131h0.4l0.1-0.4l-0.2-0.2
			h-0.3V131z M147,129.5l-0.1,2.1l1.1,0.1l0.3-0.2v-2.1h-1.2L147,129.5L147,129.5z M163.6,129.8v0.4l0.4,0.1l0.1-0.5l-0.4-0.1
			L163.6,129.8z M116.8,166.9h0.2l0,0.1L116.8,166.9L116.8,166.9z M129.5,166.5l0.1-0.1l0.1,0.2L129.5,166.5L129.5,166.5z
			 M131.7,166.3c0.1-0.1,0.4,0.1,0.1,0C131.8,166.4,131.7,166.3,131.7,166.3z M134.2,162.9l0.1-0.1l0.1,0.1l-0.1,0.1L134.2,162.9z
			 M118.8,162.3h0.2l0.2,0.4h-0.4V162.3L118.8,162.3z M131.4,161.9l0.1,0.4L131.4,161.9z M122,161.8l-0.3,0.1L122,161.8z
			 M115.4,161.7l0.1-1.4h0.1l-0.1,2.9h-0.4v-0.9c0.3-0.2,0.3-0.3,0.1-0.6L115.4,161.7z M120.4,161.7c0.2-0.1,0.2-0.2,0.4-0.2
			l0.1,0.4l-0.7-0.1L120.4,161.7L120.4,161.7z M133.6,160.9l-0.1,0.7L133.6,160.9z M117.3,162.1l-0.4,0.1v-0.7h0.2v-0.7h0.2l0.2-0.8
			L117.3,162.1L117.3,162.1z M132.3,161.1l0.1-0.3l0,0.4L132.3,161.1z M122.4,160.6h0.1l0.2,0.3l-0.4,0.1L122.4,160.6L122.4,160.6z
			 M118.8,160.7c0.1-0.4,0.3-0.7,0.4-1.1v-1h0.1l-0.1,2.8h-0.4L118.8,160.7L118.8,160.7z M134.3,160.1l0.1-0.4l-0.1,0.7V160.1z
			 M120.9,160.4l-0.2,0.1l-0.1-0.1v-0.7c0.5-0.4,0.1-1.3,0.4-1.9L120.9,160.4L120.9,160.4z M135,159.6l-0.1-0.5h0.2L135,159.6
			L135,159.6z M122.4,159.3l0.3-1l-0.2,1.3l-0.1-0.1L122.4,159.3L122.4,159.3z M137.4,159.4c0.1-0.1,0.4,0.1,0.1,0
			C137.5,159.4,137.3,159.4,137.4,159.4z M125.6,158.9l0.2-0.1l0.2,0.4h-0.5L125.6,158.9L125.6,158.9z M137.6,158.1l0.1,0.3h-0.2
			L137.6,158.1L137.6,158.1z M127.2,158.1l0-0.2c0.3,0.1,0.3,0.2,0.4,0.5H127v-0.3H127.2z M136.7,157.1l0.1,0.6h-0.2L136.7,157.1
			L136.7,157.1z M138.7,157.3h0.2v0.2h0.3v0.2l-0.7-0.1l0-0.4L138.7,157.3L138.7,157.3z M137.5,156.3l0.1-0.2h0.1v0.9h-0.2V156.3z
			 M139.5,156.4h0.2v0.2h-0.2V156.4L139.5,156.4z M129.6,156.4h0.2v0.2h-0.2V156.4L129.6,156.4z M138.5,155.4l0.3-0.6l-0.1,1.3h-0.3
			L138.5,155.4L138.5,155.4z M139.5,154.6l0.2-0.4l-0.1,1.1h-0.1V154.6z M129.6,154.8l0.2-0.4v1l-0.2,0.1V154.8L129.6,154.8z
			 M128,154.3l0.1,0.8h-0.2L128,154.3L128,154.3z M126.9,154.8c0.2-0.1,0.2-0.2,0.2-0.4l0.3,0.4l0.1,2.3h-0.2l-0.2-0.4h-0.3
			c0-0.4,0.2-0.8,0.3-1.3v-0.6L126.9,154.8L126.9,154.8z M128.9,154.8l-0.1,1.3h-0.2l-0.1-0.1c0.1-0.2,0.1-0.6,0.3-0.8l0.1-1.4
			C129.5,153.7,129.2,154.5,128.9,154.8z M134.6,151.3l0.1-0.5h2v2c-0.3,0.2,0,0.6-0.3,0.9h-0.2l-0.1-0.1h-0.3v-0.4h0.3
			c0.3-0.2,0.1-1.2-0.1-1.3c-0.2-0.1-0.4-0.2-0.5-0.4L134.6,151.3L134.6,151.3L134.6,151.3z M197,149h0.1v1.6H197V149L197,149z
			 M205,147.6l0.4-2.9l0.2,0.3l-0.3,0.4l-0.2,2.4l-0.2,0L205,147.6L205,147.6z M196.8,148.3l0-0.7l-0.2,0.1l0.1-0.5l-0.1-0.1v-1.4
			h0.2v-0.2h-0.2v-0.7h-0.1v1.2h-0.2l0.2,0.3l0.2,4v3.6l-0.8-0.1l-0.2-7.8l-0.2-0.1v-3h-0.3l-0.1,1.7c0.2,3.2,0.3,6.4,0.3,9.7
			l3.4,0.1c-0.3-1.8-0.3-3.5-0.3-5.3l-0.2-0.4v-3.8H198c0.1,0.6,0.1,1.2,0.1,1.9l0.1,0.1v4.3l0.1,0.2v2.8l-0.1,0.1l-1.2-0.1
			l-0.2-1.4v-3.8h0.2v-0.4L196.8,148.3z M204.2,146v-0.8h-0.1c0.2,3,0.3,6.1,0.5,9.1h0.6v-0.3l-0.5,0.1l-0.2-3.5
			C204.5,149.1,204.5,147.6,204.2,146L204.2,146z M133.1,146.4l-0.1,0.4l0.2-1.9L133.1,146.4L133.1,146.4z M168,145.9h0.6v0.1
			L168,145.9L168,145.9z M162.6,145.9l0.2-0.4c0,2.7,0,5.3,0,8c-0.4-1.4-0.1-3-0.1-4.4L162.6,145.9z M133.6,143.9l-0.1,0.4l-1,0.1
			v-1.1h1.3L133.6,143.9L133.6,143.9z M133.8,142.4l-1.2,0.1v-0.4h2.2v0.2L133.8,142.4L133.8,142.4z M130.2,141.3l1.1,0.1
			c0.1,0.1,0.2,0.2,0.3,0.4v5.4c-0.2,2.8-0.2,5.7-0.2,8.5l-0.2,0.2c0,0.2,0,0.3,0.1,0.5c0.1,0.2,0.2,0.3,0.3,0.4h-1.1l0.1-2.9
			l0.2-0.8c0.2-0.2,0.2-0.5,0.3-0.7c0.3-0.2,0.2-0.5,0.2-0.8l-0.6,0.1v0.2c-0.4,0-0.7,0.4-1.1,0.5v0.2h-0.3l-0.1,0.2
			c-0.4,0.2-0.7,0.5-1.2,0.7v0.2c-0.7,0-0.8,0.3-1.4,0.5c-0.2,0.1-0.4,0.2-0.6,0.4v0.2h-0.4c-0.3,0.2-0.3,0.3-0.1,0.6h0.2l0.2,2.3
			l-0.1,0.4h-0.2v-1.3h-1l0.2-0.5v-0.8h-0.3l-0.1,0.4H124v0.5l0.3,0.3l0.1,2.2c-0.1,0.1-0.2,0.2-0.3,0.2c-0.2-0.2-0.1-0.4,0-0.6
			l0.2-1.1l-0.1-0.5h-0.7v-0.4c-0.1-0.1-0.2-0.1-0.3-0.1s-0.2,0-0.3,0.1h-0.4l-0.2,0.3c-0.3,0.1-0.4,0.1-0.4,0.4h-0.5l-0.2,0.4h-0.5
			v0.3l-0.6,0.1l-0.4,0.4l-0.7,0.2c-0.4,0.3-1.1,0.1-1.1,0.6h-0.5c-0.2,0.1-0.2,0.2-0.2,0.4c-0.3,0-0.5,0.1-0.7,0.3
			c-0.3,0.1-0.4,0.1-0.5,0.4c-0.4,0-0.6,0-0.8,0.2c-0.4,0.1-1.1,0.3-1.3,0.7H113l-0.6,0.3v0.2H112l-0.1,0.2
			c-0.4,0.1-1.3,0.3-1.3,0.7l-1.4,0.2v-0.2c0.4,0,0.6-0.2,0.7-0.5c0.3-0.1,0.6-0.2,0.8-0.4c0.4-0.2,1-0.3,1.3-0.5
			c0.8-0.3,1.6-0.8,2.4-1c0.6-0.5,1.7-0.5,2.3-1v-0.2c0.3,0,0.6-0.1,0.8-0.3c0.5-0.2,1.2-0.4,1.6-0.7l0.4-0.1
			c0.3-0.2,0.6-0.2,0.9-0.4c0.2-0.1,0.4-0.1,0.5-0.3c0.4-0.3,1.5-0.4,1.5-0.9h0.4v-0.2h0.2v-0.2h0.4l0.3-0.2V155l0.4-0.1v-0.2H124
			v0.2h-0.4l-0.4,0.2v0.2c-0.4,0-0.8,0.2-1.2,0.4c-0.2,0.1-0.4,0.1-0.5,0.3l0.4-7.2v-4h0.2v-0.9c1.1,0,2.3-0.1,3.4-0.2
			c1.6-0.1,3.1-0.2,4.7-0.4v0.4h0.4l0.1-1l-0.1-0.1c-3.1,0.2-6.2,0.3-9.4,0.4l0.1-0.3c3.2-0.1,6.3-0.4,9.4-0.5l-0.1-0.8h-1.1v-0.1
			L130.2,141.3z M195.6,141.1l0.3,0.3l1,0.1l0.3,0.3l0.1,0.4l0.3,0.3c0.3,0.1,0.5,0.2,0.7,0.4l0.1,0.5c-0.7-0.3-1.3-0.7-2-0.9
			c-0.2-0.2-0.6-0.4-1-0.4v-0.8H195.6z M209.1,136.9l1.5,13.4l3.4-1.6l2.9,6.4l3.7-1.2l2.9-1.9l1.5,3.3h2.5c0.5,0.8,1.3,1.5,2.2,2
			c0.9,0.5,2-1.3,2.9-0.9c1.1,0.6,1.5,3.9,2.4,4.5c1.2,0.8,7.8-2.3,7.5-2.1c0,1.6,1.4,4.3,0.8,6.4c-2.4,0.8-2.8,0.5-6.2,2H126.9
			c0.5-0.1,1-0.4,1.5-0.5h1.3v-0.1l-0.7-0.1v-0.2l0.3-0.3l-0.6,0.1l-0.3-0.2c0,0.3-0.3,0.3-0.5,0.5h-0.6l-0.3-0.3
			c-0.3,0.3-0.6,0.4-1.1,0.4v0.2h-0.7l-0.2-0.2h-0.5v0.2l-1.5,0.1c-0.2-0.2-0.3-0.3-0.5-0.1c-0.5,0.4-1.6,0.2-2.2,0v0.2l-3-0.1
			l0.3,0.2v0.1h-3.5v-0.2h2.5c-0.2-0.1-0.3-0.3-0.4-0.4c-1.2-0.1-2.4-0.2-3.6-0.3l-0.4-0.1c-0.1-0.2-0.3-0.3-0.4-0.5
			c-0.2,0.1-0.5,0.2-0.7,0c0-0.3,0.2-0.4,0.4-0.6c0.1-0.3,0.1-0.5,0.3-0.7h0.3v0.7l-0.2,0.4h0.5c1.3,0.4,2.5,0.4,3.8,0.4l0.3,0.2
			l0.7,0.1v0.2l1.4-0.2c0.4,0.4,1.5,0.1,2,0.1c0.5,0.2,1.3,0.2,1.7-0.2h0.5l0.2,0.2c0.6,0,1.2,0,1.7-0.4h0.3v0.2
			c0.6,0,1.4,0.1,1.7-0.4h0.3c0.7,0.6,0.6,0,1.2,0v-0.2l0.7,0.1v-0.3c0.2-0.2,0.6-0.3,0.8-0.1v0.3h0.2v0.6c0.3-0.1,0.4-0.3,0.5-0.5
			l-0.1-1.8l-0.4-0.1c-3-0.2-6.1-0.2-9.1-0.2l-0.2,0.2c-0.8,0-1.6,0-2.4,0.1l12,0.5v0.2l-0.3,0.3h-1v-0.2h-4.2
			c-0.1-0.3-0.6-0.3-0.7,0l-5.2-0.2v0.2h-0.7v-0.2h-0.5l-0.2,0.2h-1.7v-0.4h-0.2v-0.2H115v0.4l-0.4,0.1c0.3,0,0.5,0.1,0.6,0.2
			l1.5,0.1l0.2,0.2v0.2c-0.3,0.2-0.6,0.3-0.7,0.5h-0.4v-0.3l-0.2,0.1v0.2h-2l-0.1-0.1v-0.6c-0.2,0-0.3,0-0.4-0.2v-0.2l-0.4-0.1v-0.4
			h0.7l0.2-0.3v-2.3l0.1-0.1h0.4l-0.4-0.1l-0.1-0.2l-0.2,0.3l-0.1,0.7l-0.2,0.2h-0.6v0.2c-0.3,0.1-0.7,0.3-1,0.1v-0.5l-0.2,0.4v0.4
			c-0.4,0.3-1.1,0.5-1.6,0.7c-0.3,0.3-0.9,0.2-1.2,0.4c-0.4,0.2-0.9,0.3-1.2,0.5l-0.4,0.1c-0.3,0.2-0.7,0.2-1,0.4l-1.8,0.1v0.3
			l-0.6-0.1l-0.1,0.3l-11.7,0.1l-3-4.1c3.6-0.7,12.1-6.8,10.3-8c1-0.6,3.8-1.9,4.3-2.7c0.8-0.7,1.4-1.8,1.5-2.8
			c0.2-0.4,0.2-0.8,0.2-1.2c0.1-0.1,0.1-0.2,0.2-0.3c0.2,0,0.4,0.1,0.7,0c0.5,0.3,1.1,0.5,1.8,0.4v0.5c-0.6,0.1-0.5,0.2-0.7,0.7
			l1.2-0.1l0.2,0.2v0.4l0.2-0.1l0.1-0.3l0.4-0.1v-0.3l0.4-0.4l0.3,0l-0.5,0V147l0.2-0.5c0.3-0.3,0.5-0.7,0.6-1.1
			c0.1,0,0.2-0.1,0.2-0.1l0.1-0.5l0.3-0.2c0.7,0,1.3-0.1,2-0.1v0.4c0.5,0,0.7,0,0.8,0.4l0.6-0.1v-0.4c-0.3-0.1-0.7-0.2-1-0.4
			c0-0.3,0-0.3,0.3-0.4l0.1-0.4h0.3l0.1-0.6h0.3v-0.2c0.2-0.1,0.5-0.1,0.6-0.3l0.7-0.1c-0.3-0.3-0.7-0.4-1.2-0.4v-0.4h-0.2v-0.4
			l0.3-0.1l0.1-0.6h0.4v-0.3h-0.2V140h0.2v-0.3h-0.2v-0.4h0.2v-0.2l0.3-0.1v-0.5l0.3-0.1v-0.2c0.2-0.2,0.4-0.1,0.6-0.3
			c0.4-0.1,0.6-0.1,1-0.4h0.4l-0.3-0.1l0.1-0.3c0.6,0.1,1.1,0.2,1.7,0.2v0.4h-0.3l0.3,0.2l0.1-0.4h0.8l-0.1,0.4
			c0.2,0.2,0.7,0.3,1,0.4v0.2l1.1,0.1v1.1l-0.6,0.1l0.1,0.5l0.3,0.3v1c-0.4,0.3-1,0.2-1.5,0.2v0.3c0.8,0,1.5-0.1,2.2-0.2l3-0.1
			c0.9-0.1,1.8-0.2,2.8-0.2v-0.2h0.6v-0.1h-0.5V141l1.1-0.1l-0.1-0.1v-0.2h-0.5l-0.1,0.3h-0.3l-0.1-0.4l-0.8-0.2
			c-0.4,0-1.2,0-1.5-0.3V140c1-0.1,2.1-0.2,3.1-0.2v-0.1c-1.2,0.1-2.5,0.2-3.7,0.2l-0.6-0.5V139l0.1-0.1c3.1-0.1,6.2-0.3,9.2-0.5
			l0.1-0.1c2.7-0.1,5.4-0.2,8.1-0.5c2.7-0.1,5.3-0.3,8-0.4l0.1-0.2h6.9v0.2l4.2,0.1l4.2-0.1l0.5-0.2h3.3v-0.2c1.2-0.1,2.4-0.1,3.6,0
			v0.2h4v0.2l3.5,0.1c1,0.1,2,0.2,3,0l3.7-0.1v-0.2h3.6v-0.2c0.9-0.1,1.7-0.2,2.5-0.2v-0.2h-1.6v-0.4l1.8-0.1
			c-0.5-0.2-1.2,0.1-1.5-0.2c0-2-0.3-3.9-0.3-5.9c-0.1-0.2-0.2-0.4,0-0.6c-0.1-3.7-0.4-7.4-0.4-11.1c-0.6,0.1-1.1,0.1-1.7,0.3
			c-0.8,0.2-1.6,0.2-2.3,0.2v0.2h-1.5v0.2l-2,0.3c-0.5,0.2-1,0.2-1.6,0.2v0.1h0.9l-0.1,0.3c-0.5,0.1-1.1,0.4-1.6,0.4v0.5l0.7,0.1
			v0.3l-0.6,0.1l-0.1,0.4l0.7,0.1v0.4l-0.5,0.1v0.5l0.5,0.1v0.2l-0.5,0.1l-0.1,0.6h0.9v0.3l-0.6,0.1l-0.1,0.4l0.1,0.1v0.3l-0.1,0.1
			v0.5l0.1,0.1v0.3h-0.2l0.2,0.7c0,0.3-0.1,0.5-0.1,0.8l0.1,0.1v0.2l-0.1,0.1v0.7c0.4,0.4,0.1,1.9,0.1,2.3l-0.5,0.1l-0.2-0.4
			c-0.1-3.2-0.1-6.4-0.3-9.7l-0.1-0.1l0.1-1.8h-0.6v0.2l-0.3,0.3l-1.3,0.2c-0.6,0.2-1.3,0.1-1.9,0.3c-0.9,0.1-1.8,0.2-2.7,0.3
			c-0.5,0.1-1,0.2-1.5,0.2c-0.5-0.2-1-0.3-1.5-0.1H170v-0.7c-0.2-0.1-0.3-0.2-0.4-0.3l-0.4-0.1V119h-0.5v-0.2l-0.6-0.1
			c-0.2-0.2-0.4-0.4-0.7-0.4c-0.1,0.1-0.3,0.2-0.5,0.3l-0.4,0.4h-0.4v0.2l-0.5,0.4c-0.2,0-0.4,0.1-0.5,0.3v0.4l-0.5,0.1l-1,0.5
			l0.9-0.1v0.3l-0.4,0.1v0.2h-1.2v0.2l-0.3,0.3c-0.4,0.3-1,0.3-1.6,0.4l-2,0.4h-1c0,0.4,0.1,1.6-0.3,1.9l-2.3,0.3l-0.1,0.4l0.5,0.1
			c0,0.2-0.1,0.4-0.2,0.6h-0.4v4.5h0.3v0.4h-0.2v0.4l-0.5,0.1l0.2,0.2l2.7,0.1c0.9,0.1,1.7,0.2,2.5,0.3l0.1,0.5l0.1-0.5
			c0.8-0.1,1.5-0.3,2.3-0.3h2.2v0.4l0.2,0.1c-0.2-0.6,0.1-0.6,0.7-0.6c1.1-0.2,2.2-0.2,3.3-0.3c0.2-0.2,0.5-0.2,0.8-0.2l-0.5-0.1v-5
			l1-0.1v-0.1h-0.7l-0.1-0.1l-0.4,0.1v0.2h0.2v5.1c-0.8,0.3-2.2,0.3-3.1,0.3l0-5.5l-0.2,5.5h-0.3l-0.2-4L165,127h-0.8l-0.1,0.4
			c-0.6,0-0.4-0.2-0.5-0.6l-0.3-0.1l-0.2,4.6l-0.1,0.1l-2.2-0.2l-0.1-3.7c-0.1-0.1-0.2-0.2-0.3-0.4l-0.3-0.1l-0.1,0.4h-0.5
			c-0.3-0.3-0.4-0.7-0.4-1.1l0.2-0.2c0.7-0.1,1.4-0.1,2.1-0.3c1.2-0.1,2.4-0.2,3.6-0.4c0.1-0.6,0.2-1.1,0.5-1.6
			c0.2-0.5,0.8-0.9,1.3-1.3h0.3v-0.2l0.4-0.1l0.3-0.3h2.1c0.2,0.1,0.5,0.1,0.6,0.3c0.4,0.2,0.6,0.5,1,0.6v0.3c0.3,0,0.3,0.1,0.4,0.3
			c0.4,0.3,0.3,0.8,0.3,1.3c2-0.1,4-0.4,6.1-0.6c0-0.3,0.1-0.7,0.2-1l0.4,0.1v0.8c-0.1,0.2-0.2,1.5-0.7,1.1l-0.5,0.1l-0.1,0.3v5.5
			l-2.7-0.2v-4.9c-0.3,0-0.5-0.1-0.7-0.3c0,0.6-0.9,0.5-1.5,0.5l-0.1,4.5l-0.1,0.1l-1.2-0.1l-1.5,0.1c2.8,0,5.6,0.3,8.4,0.5
			c0.3,0.1,0.7,0.1,1,0.3l-0.1,0.4l0.3,0v-0.4l2.2-0.2c0.4,0,1-0.1,1.3,0.2v0.3l-0.1,0.1l0.1,0.9l-0.2,0.1v0.4l0.4,0.1l-0.1,0.3
			h-0.3v0.5l0.5,0.1v0.3l-0.4,0.2v0.4l0.3,0.1v0.2l-0.3,0.2l-0.1,0.4l0.2,0.2v0.4h-0.4l-0.1-0.1l-0.4,0.4c-0.3,0-0.7,0-1-0.2v-0.3
			l0.2-0.2l0.8-0.1l-0.1-1.4c-0.1-0.9,0-1.9-0.3-2.9l-1,0.2l-0.2,3.9l-0.2,0.4h-0.6l-0.2-0.4H179l-0.2,0.4h-0.6
			c-0.2-0.2-0.2-0.4-0.5-0.5c0,0.2,0,0.4-0.2,0.5c-0.5,0-0.8,0-0.8-0.5l-0.3,0.1l-0.2,0.3c-0.5,0-0.6,0-1-0.3v-0.2l-0.2,0.1
			l-0.2,0.4h-0.8l-0.2-0.2v-0.4H173c0.1,0.2,0.2,0.3,0,0.4h-0.4v-2.1l0.1-0.1V133l-0.1-0.1c0.2-0.5,0.2-1.1,0-1.6h-0.1v4.5h-0.8
			c-0.1-0.1-0.2-0.2-0.3-0.4v-1.5h-0.2l-0.1-2.8h-1v4.1l-0.2,0.6h-0.6l-0.2-0.4l-0.1,0.1h-0.2v0.3l-0.7,0.1l-0.2-0.3h-0.3
			c-0.2,0.1-0.2,0.3-0.3,0.4h-0.5c-0.4-0.3-0.6-0.9-0.9-0.1c-0.2,0.1-0.6,0.1-0.7,0v-0.4l-0.4,0.1c-0.1,0.1-0.2,0.3-0.3,0.4h-0.5
			c-0.2-0.4-0.4-0.4-0.8-0.4c0.1,0.2,0.1,0.4,0,0.6h-0.7v-0.2h-0.2v-4.4l-0.4,0.2h-0.7c0,0.3-0.2,0.4-0.4,0.6h-0.6l-0.4-0.4
			c-0.2,0-0.4,0.2-0.5,0.4h-0.5l-0.3-0.3V132h-0.4v0.4h-0.5v0.4l-0.7,0.1v-0.2c0.3-0.1,0.4-0.1,0.5-0.4l-0.2,0l-0.1-0.4l-0.2-0.1
			l0,0.3c-0.3,0.1-0.3,0.3-0.6,0.3l-0.1,0.8h-0.3l-0.3-0.3l0,0.5l0.5,0.1l0.1,1.6h0.2c0-0.2,0.1-0.6,0.4-0.3v0.6h-0.2v0.2h-0.7
			c-0.2-0.2-0.2-0.6-0.2-0.8h-0.2l0.2,0.8l0.2,0.1v0.3h-0.6l-0.2-0.2v-0.6l-0.2-0.1v-0.8l0.1-0.1l-0.1-0.1V134h-0.2l-0.2-2.4
			l-0.7,0.1l-0.2,1.8h-0.2v-1h-0.2l-0.1,2.4l0.1,0.2l0.1-0.2h0.2l0.1,0.7c-0.1,0.1-0.3,0.2-0.5,0.3c-0.1,0.1-0.2,0.2-0.3,0.4h-0.6
			c-0.1-0.2-0.2-0.3-0.3-0.4v-0.4l0.2-0.2v-2.7h-0.4l-0.1-0.4h-0.2v0.4c-0.2,0.2-0.3,0.4-0.1,0.6l0.1,2.6c-0.4,0.4-0.5,0.4-1,0v-0.3
			l0.3-0.2c0.5-0.4,0.1-2,0-2.5l-0.2-0.2v-0.4l0.3-0.1v-0.4c0.8-0.2,1.7-0.2,2.5-0.4c0.5-0.2,1.2-0.3,1.7-0.3v-0.2h-0.2l-0.3-0.3
			l0.1-3.3l-0.6,0.2v0.2l0.5,0.1v0.5h-1.1l0.1,1.2l0.8,0.1v0.2l-1,0.1c0,0.3,0.1,1.1-0.2,1.3l-1.2,0.1v-8.5
			c-0.2-0.1-0.4-0.1-0.5-0.3l-0.1-0.4h-0.6c-0.3-0.3-0.2-0.9-0.1-1.3c0.3-0.3,0.3-0.4,0.4-0.8c0.2-0.2,0.2-0.4,0.3-0.6l-1.8,0.1
			c-0.4,0.1-1.7,0.4-2,0.1v-1.5l0.2-0.7c-0.4-0.2-0.6-0.5-0.6-1c0.5-0.2,1-0.2,1.5-0.4c1.7-0.2,3.4-0.4,5.1-0.6c0.2-0.3,0.1-0.6,0-1
			l-0.4-0.4c-0.5-0.1-1.1-0.1-1.5-0.4c-0.5-0.1-1-0.3-1.5-0.4c-0.2-0.2-0.6-0.1-0.8-0.4c-0.3-0.1-0.6-0.2-0.8-0.3v-0.2H147v-0.2
			c-0.6-0.2-1.1-0.4-1.7-0.5c-0.3-0.2-0.7-0.4-1.1-0.4c-0.6-0.1-2.1-0.9-2.5-0.5c-0.6,0.3-1,0.9-1.7,1.1c-0.2,0.2-0.5,0.4-0.6,0.6
			h-0.3v0.2c-0.4,0.3-0.8,0.7-1.3,0.9c-0.4,0.2-0.7,0.5-1.1,0.8c-0.3,0.1-0.3,0.4-0.6,0.4v0.2c-0.3,0.2-0.6,0.4-1,0.4v0.2
			c-0.7,0.3-1.2,1-1.9,1.3c-0.2,0.3-0.4,0.3-0.7,0.4l0.3,0.1v0.4l-1.1,0.3c-0.1,0.3-0.1,0.5-0.1,0.8h-0.3l0.1-0.8h-0.3l-0.3-0.2
			v-0.4c0.4-0.3,0.9-0.6,1.3-1c0.4-0.3,0.9-0.5,1.3-0.8h0.2l0.1-0.4c0.2-0.1,0.3-0.2,0.4-0.3c0.5-0.4,1.2-0.7,1.7-1.2h0.2v-0.2
			c0.3-0.1,0.3-0.3,0.6-0.3v-0.2h0.2v-0.2l0.5-0.4c0.5-0.2,0.7-0.6,1.3-0.8c0.2-0.2,0.4-0.4,0.7-0.5v-0.3h0.2v-0.2
			c0.5-0.2,1.1-0.8,1.6-0.8v-0.2c0.3-0.1,0.3-0.3,0.5-0.4c0.7,0,1.4,0.4,2.1,0.6c0.2,0.1,0.3,0.2,0.4,0.3c0.5,0.1,1.1,0.3,1.6,0.5
			v0.2h0.7l0.2,0.3c0.5,0.1,1,0.3,1.5,0.4c0.2,0.2,0.7,0.2,1,0.4c0.2,0.2,0.5,0.3,0.7,0.4c0.5,0.4,1.4,0.2,1.9,0.6v0.2h0.5v0.2
			c1.2,0,2,1,3,1.4l0-5.3l0.2-0.2l-0.3-0.2v-0.7c0.2-0.2,0.2-0.4,0.2-0.7c-0.5-0.2-0.4-0.5-0.4-1h0.5v-0.2c0.4-0.2,0.9-0.1,1.4-0.3
			h1.7v1c0.8,0.3,1.3,1.2,2.1,1.5v0.2h0.2l0.4,0.4l0.6,0.1l0.1,0.4c0.3,0.1,0.3,0.3,0.6,0.4v0.8l0.1,0.1l-0.1,0.9h-0.2v0.4l-0.2,0
			l0.7,0v0.3c0.6,0,0.8-0.2,1.3-0.5v-0.4c0.4,0,0.6,0,0.8-0.2c0.3-0.2,0.6-0.4,0.8-0.7h0.2v-0.2c0.2-0.2,0.9-0.2,1.1,0v0.2h0.4v0.2
			l0.6,0.1l0.1-0.1h0.6l0.2,0.4c0.4,0.2,1,0.1,1.4,0c0.3-0.3,1-0.2,1.4-0.3c5.9,0,11.7,0.2,17.6,0.3l0.3,0.2v0.2
			c-0.6,0.5-1.6-0.1-2.1,0.4c-0.2,0.2-0.6,0.1-0.8,0.3h-1.6v0.2c-0.3,0.1-0.7,0.2-1,0v-0.2c-0.5,0.1-1.4,0.9-1.9,0.4l-0.8,0.1v0.3
			l-0.4,0.1v0.2l0.7-0.2h1.2v-0.2h1.3v-0.2l1.6-0.2c0.7-0.3,1.6-0.3,2.4-0.4l0.1-0.1c0.8-0.1,1.6-0.1,2.4-0.4l1.4-0.1
			c0.3-0.2,0.8,0,1.1-0.3h1.3l0.3,0.2h0.3l-0.1-0.1H195l-0.2-0.3V111h0.2v-0.2h0.2l1.2,3.4l10.4-1.7l2.7,13.3h-0.3v-0.4l0.1,0.6
			c-1,0.4-2.1,1-3.2,1.2c-0.1,0.2-0.6,0.4-0.9,0.4l0.3,0.1l0.1,0.6l-0.8,0.1c-0.2-0.3-0.3-0.5-0.4-0.8l-0.3-0.2l-0.1-0.6l-0.2,0.1
			l-0.4-0.2l-0.1-0.4l-0.2,0.4l0.7,0.2v0.4l0.2,0.2v0.2h0.3l0.2,0.4c0.3,0.2,0.1,0.6,0.3,0.8v0.2l0.5,0.2v0.3l-0.1,0.1l0.1,0.1
			l0.2-0.6c0.5-0.2,0.6,0,0.7,0.4c0.3,0.3,0.3,0.7,0.7,0.9v0.5l0.3,0.1v0.3h0.2l0.2,0.4c0.2,0.2,0.1,0.4,0.3,0.6
			c0.2,0.2,0.2,0.4,0.2,0.6h0.2l0,0l0.1,0.7c0,0.9-0.2,1.7,0.3,2.6C209,136.3,209,136.6,209.1,136.9L209.1,136.9z M129.4,139.6
			L129.4,139.6l0.6,0.1v-0.1H129.4z M162.5,139.5l-0.2,0.1v0.3l-0.5,0.1l-0.3,0.3h-0.2v0.4h0.6v-0.2l0.4,0.1v0.4h-0.2v0.2h-1
			l0.1,1.3c-0.6,0.5-0.7-0.1-0.7-0.6l-0.6-0.1c0.4,1,0.3,2,0.3,3l2.2-0.1v-1.3l0.2-0.5c0.2-0.1,0.3-0.3,0.3-0.4l1.1-0.9
			c0.4-0.1,0.8-0.3,1.3-0.4h1.1l1,0.2c0.4,0.3,1.2,0.7,1.2,1.2h0.2v0.3h0.2c0.2,0.3,0.6,1.2,0.2,1.5h1.9v-1l0.8,0.1l0.1,0.8l1.9,0.2
			c-0.4-0.7,0-1.8,0.6-2.3h0.2v-0.2l0.2-0.1c0.5-0.8,1.8-0.7,2.7-0.7c0.3,0.1,0.6,0.2,0.8,0.3c0.2,0.1,0.3,0.2,0.5,0.3v0.2
			c0.5,0,1,0.7,1.2,1c0.1,0.2,0.2,0.4,0.3,0.5l0.1,1.3l1.7,0.1v-0.9h0.5v0.2h0.2v-0.2h0.3v0.2l0.8,0.1c0,0.4-0.9,0.4-1.2,0.4
			l0.3,0.1v0.3l-0.3,0.1l0.6,0.2v0.3h-0.5c0,0.3-0.2,0.4-0.5,0.4v0.2h0.3v0.9h-0.3v-0.4h-0.2l0.1,0.5l1.5,0.2v0.2h-0.7v0.2h-1.7
			v-0.4h0.3l-0.1-1c-0.5-0.2-0.7-0.7-0.4-1.1l-0.2,0.1l-0.2,0.4v10.4h-0.4c0-0.7-0.1-1.4-0.1-2.1c0-1.7,0-3.5-0.1-5.2v6.7l-0.1,0.1
			h-0.5l-0.2-0.2h-2.8l-0.1-0.1c0-3-0.1-6-0.1-9l-0.1-0.1v-2.6h-0.2v2.6l-0.1,0.1l0.1,0.2v8.9h-2.4l-0.2-1c-0.2-0.2-0.3-0.4-0.3-0.6
			l0.3-0.1l-0.1-1.8l-0.2-0.1v-0.4h0.3v-5.5l-0.1,0.4H173l-0.1-1.2c-0.3,0.1-0.3,0.4-0.6,0.4l-0.1,1.2h-0.3
			c-0.1-0.1-0.2-0.3-0.3-0.4c0-0.3,0-0.7-0.1-1l-0.2,0.4c0,0.2,0.1,0.3,0.1,0.5l-0.2,0.1v0.5c0.3,0.1,0.5,0.1,0.7-0.1h0.3
			c0.1,0.2,0.2,0.5,0,0.6c-0.4,0-0.7-0.1-1.2,0l0.1,0.6l0.2,0.2v0.2l-0.4,0.1l0.2,0.7v1.1l0.2,0.2v0.2l-0.3,0.2v0.5l0.1,0.1v1.1
			l0.2,0.2v0.3c-0.3,0.1-0.3,0.5,0,0.6v0.4h-0.2v2.1h-0.3l-0.3-10.4c-0.1-0.4,0-0.5-0.5-0.6l-0.1,1.4h-0.4l0.1,2.9h0.2v0.3h-0.2v0.3
			h0.2c0.2,0.4,0.1,0.7-0.1,1.1v4.4l-0.1,0.1l-2.9-0.1v-8.8h0.2v-0.3h-0.2l-0.1-2.5l-0.2,2.7h-2v0.1h2.1v8.8l-0.1,0.1h-2.7l-0.1-0.1
			v-8.7l0.1-0.1l-0.1-1.7h-0.1v10.5l-0.2,0.2h-0.3l-0.2-1.5l-0.1,2h-0.4l-0.2-10.4h-0.2l-0.2,4c-0.2,0.1-0.3,0.1-0.4,0l0.1-2.1H161
			v2.1l-0.2,0.8h0.2v0.6h-0.2v0.2l-0.3-0.1c0-1.6-0.1-3.1-0.1-4.6l-0.2-0.6l-0.2,5.4l-0.1,0.1l-5.3-0.1l-0.1-0.2l-0.2-10.5H154V140
			l-1-0.2l-0.4,10.9l-0.3,0.2h-3.7c-2,0.3-4.1,0.2-6.1,0.2l-0.1-0.1l-0.1-9.9c-0.2-0.1-0.2-0.3-0.3-0.4l-0.5-0.1l-0.5,10.3
			c-0.3,0.5-0.9,0.4-1.2,0.8h-0.2v0.2c-0.3,0.1-0.4,0.3-0.6,0.4c-0.2,0.2-0.4,0.3-0.6,0.4c-0.1,0.1-0.2,0.2-0.3,0.4h-0.2
			c0,0.3-0.5,0.4-0.6,0.8l-0.7,0.6c-0.2,0.4-0.6,0.7-1,1c-0.1,0.1-0.2,0.2-0.3,0.4h-0.2v0.2c-0.6,0.5-0.9,1.1-1.5,1.5h-0.3v-0.3
			l-4.2,0.3l-0.1-0.4c-0.3,0-0.3,0.1-0.4,0.4l4.8,0.1v0.3l-0.4,0.4h-0.3c-0.2-0.3-1.1-0.2-1.6-0.2c-0.5,0-1.3-0.1-1.5,0.2h-1.1v0.1
			l4,0.2v0.4l-0.2,0.2h-3.9l-0.4,0.2h-0.5l-0.1-0.2c-0.2,0-0.2,0.1-0.3,0.2h-0.6v0.1h5.3l0.1,0.1v0.4l-0.1,0.1l-4.9,0.1
			c-0.2,0.2-0.9,0.2-1.1,0l-1.1,0.1l-0.2-0.4c-0.2,0-0.2,0.1-0.3,0.3l6.8,0.3l0.1,0.4l-0.2,0.2h-7.1l0.3,0.1v0.2l6.2,0.2v0.4
			l-6.3,0.1l-0.4-0.1v0.2l-1.2,0.1l7,0.3l0.1,0.1v0.4l-8.8,0.1v0.1l5.6,0.1v0.2h3.9v-0.5c0.4-0.3,0.5-0.9,0.8-1.3
			c0.5-0.2,0.6-1,1.1-1.3c0.3-0.6,0.9-1,1.2-1.6c0.1-0.1,0.2-0.2,0.3-0.4c0.4-0.2,0.5-0.3,0.6-0.6c0.7-0.6,1.1-1.4,1.8-2h0.2v-0.2
			c0.6-0.3,0.9-0.9,1.4-1.3c0.4-0.3,0.8-0.8,1.3-1c0.3-0.2,0.6-0.3,0.7-0.6h0.2c0-0.3,0.4-0.4,0.6-0.6c0.3-0.3,0.5-0.3,1-0.3
			c0,0.5,0,0.8-0.2,1.3l-0.1,2.4l-0.2,0.2v0.1l0.4,0.1c0.2,0.3,0.4,0.6-0.1,0.8c-0.1,0.2-0.2,0.3-0.3,0.4h22l-0.1-0.9
			c0.6-0.5,0.7,0.4,0.7,0.6l0.6,0.1c0.2,0.3,1.7,0.2,2.2,0.2s2,0.2,2.1-0.2l6.1,0.2c0-0.4,0.1-0.8,0.2-1.2h0.4l0.1,0.9h4.9v-0.6
			c0.2-0.1,0.5-0.2,0.7,0v0.9h2.4c0-0.3-0.3-0.7,0-1h0.5l0.2,0.2l0.5,0.1v0.3l-0.3,0l0.6,0.2l-0.1-0.5l-0.3-0.2l0.1-0.3h0.7v1.1h4.5
			l0.1,0.1l3.6,0.1l-0.2-6.3l-0.1-0.1v-5.7h-0.2c-0.1-1.4-0.1-2.9-0.1-4.3c-0.2-0.3-0.2-0.6-0.2-1l-4.8,0.3c-1.7,0.1-3.4,0-5,0.3
			v0.5h2.1l-0.1,0.4l-2.4,0.2l0.1,0.5h1.9l0.2-0.2l0.2,0.1v0.2h0.8v0.2c-0.7,0.1-1.4,0.1-2,0.3l0.1,0.1v0.4l0.3,0.1v0.4l-1.8,0.2
			c-0.4-0.3-0.4-0.8-0.6-1.3v-1l-1-0.1v-0.4h1v-1.1H181c-2.8-0.4-5.6-0.3-8.4-0.5H170l-0.1,0.1c-1.7,0.1-3.5,0.1-5.2,0.3
			C164,139.4,163.2,139.4,162.5,139.5L162.5,139.5z M131.8,139.5h-1.7v0.1l3.4-0.1v-0.2L131.8,139.5L131.8,139.5z M135.5,139.3h-0.8
			v0.1h1.8v-0.2L135.5,139.3L135.5,139.3z M137.1,139.1L137.1,139.1l1,0.1v-0.1H137.1z M138.3,139L138.3,139l0.5,0.1V139H138.3z
			 M143.1,138.7h1.1v-0.1L143.1,138.7z M162.1,138.4L162.1,138.4l0.7,0.1v-0.1H162.1z M145.9,138.5h1.2v-0.1h-2.1v0.2L145.9,138.5z
			 M197,138.1v0.2l0.2,0.1l0-0.9H197V138.1z M192.8,138.3l0.4-0.1l-0.1-0.4c-1.3,0-2.7,0.1-4,0.2c-1.3,0.2-2.6,0.1-3.9,0.3l-0.1,0.1
			h-2.2v0.2h-0.2v0.3C186,138.7,189.4,138.5,192.8,138.3L192.8,138.3z M149.5,138.3l3.6-0.2V138l-4.7,0.3L149.5,138.3L149.5,138.3z
			 M155.4,138.1l-2.1-0.2v0.1l6.9,0.4v-0.1C158.6,138.3,157,138.2,155.4,138.1L155.4,138.1z M168.1,138.1c2.7-0.1,5.4-0.2,8.1,0.1
			l4.8,0.2c-2.5-0.2-5-0.2-7.5-0.4h-3.2c-2,0.1-4,0.4-5.9,0.4L168.1,138.1L168.1,138.1z M195.3,136.1v1h0.2l0.3,0.3l0-0.5h0.3
			c0.2,0.4,0.1,0.9,0.5,1.1c0-0.2,0-0.4-0.1-0.6c-0.1-0.2-0.2-0.4-0.4-0.5h-0.4l-0.1-1.4h-0.3V136.1L195.3,136.1z M167.3,134.2v0.4
			l0.2,0.2v0.3l0.2-0.4c0-0.9-0.2-1.8-0.2-2.8h-0.1L167.3,134.2z M177.6,133.6l0.1,1.2h0.1l-0.1-2.5h-0.1V133.6L177.6,133.6z
			 M178.8,134c0,0.3-0.1,0.7,0.4,0.7c0-0.9-0.2-1.7-0.2-2.5h-0.1L178.8,134L178.8,134z M169,134.7c0.2-0.4,0.1-0.7,0-1.2v-1.6h-0.1
			v1.7h-0.2l0.2,1.3L169,134.7L169,134.7z M162.7,133.3L162.7,133.3l0.4,0.2v0.9c-0.1,0.1-0.1,0.3-0.1,0.4s0,0.3,0.1,0.4h0.1
			c0.1-0.2,0.2-0.3,0.3-0.4c0-0.4-0.5-1.1-0.1-1.4l-0.1-1l-0.3-0.1v0.8L162.7,133.3L162.7,133.3z M175.3,132.4l0.5-0.1l-1-0.1
			l-0.1,0.2h-0.3c-0.1-0.3-0.2-0.8-0.5-1l0,0.3l-0.3,0.2h-0.4v1.5c-0.1,0.4-0.3,0.9,0.1,1.2l0.4-0.1l-0.1-0.5
			c-0.3-0.3-0.3-1-0.1-1.3l1.3-0.1v1.9l0.3,0.3c0-0.3,0.3-0.6,0-0.8l-0.1-1.3L175.3,132.4L175.3,132.4z M166,132.3h-0.1l-0.1,2.5
			l0.4,0.1L166,132.3L166,132.3z M164.3,132.3h-0.1l0.3,0.2l-0.1,0.4h-0.3v0.4l0.4,0.1v0.8h-0.2l0.2,0.8h0.2l0.2-1.3h0.2l0.1-1h-0.4
			v-0.4L164.3,132.3L164.3,132.3z M203.8,132.4v-0.3l-0.1-0.1v-0.2h-0.3v2.9l0.2,2.9l1,0.1c0.4,0.3,0.7,0.4,0.8,0.9
			c0.3,0.1,0.5,0.3,0.7,0.5v0.4h0.2l-0.3-5.2l-0.1,0.2h-0.3v-0.2h-0.2v-0.2h-0.3v-0.8h-0.3v-0.3h-0.4l-0.2-0.8L203.8,132.4z
			 M176.4,132.2l0.6-0.1l-0.8-0.1c0,0.8-0.1,1.6-0.1,2.4l0.1,0.2h0.2l-0.1-2.3L176.4,132.2z M205.4,131.6v1.1l0.2-0.4
			C206.1,132.2,205.8,131.3,205.4,131.6z M157.2,131.8l-0.2-0.1l0,0.1L157.2,131.8L157.2,131.8z M155,132.2v-0.4l-0.2,0.9l0.1-0.2
			h0.4C155.2,132.4,155.1,132.3,155,132.2L155,132.2z M150.8,131.7v0.2h0.2v-0.2H150.8z M163.4,131.7l-0.3-0.1v0.3L163.4,131.7
			L163.4,131.7L163.4,131.7z M155.4,131.7l0.3,0.1l-0.3-0.3L155.4,131.7z M152.1,131.6v0.2h0.2v-0.2H152.1z M165.9,131.5l-0.1,0.2
			l0.3-0.1l-0.1-0.1L165.9,131.5z M177.7,131.5h-0.2l0,0.1L177.7,131.5L177.7,131.5z M176.1,131.3v0.3h0.3v-0.3H176.1z M167.5,131.4
			l-0.2-0.1l0,0.3h0.3L167.5,131.4z M174.8,131.3l-0.1,0.2l0.3,0v-0.3L174.8,131.3z M168.8,131.4h0.2v-0.2h-0.3L168.8,131.4z
			 M173.1,131.1v0.2h0.3v-0.2H173.1z M204.7,131.2l0.5-0.1c-0.1-0.3-0.2-0.5-0.3-0.8c-0.3-0.1-0.4-0.1-0.5-0.4l0,1.9l0.2-0.1
			L204.7,131.2L204.7,131.2z M203.6,129.9l0.1-0.2h0.5L204,129l-0.8-0.2l0,2.2h0.4V129.9L203.6,129.9z M111.7,166.1
			c-0.2-0.1-0.2-0.2-0.4-0.2v0.7l0.6-0.1l0-0.3L111.7,166.1L111.7,166.1z M151.7,114.1c-0.8,0.2-1.6,0.2-2.3,0.4l-0.1,0.4l1.2-0.1
			v-0.2h1.2v-0.2h0.8v-0.3H151.7z M149.5,114.4l0.5-0.1V114c-0.4-0.3-1.1-0.3-1.5-0.6H148v-0.2h-0.4V113H147v-0.2
			c-0.3-0.2-0.7-0.2-1-0.4c-0.5-0.1-1-0.3-1.5-0.4c-0.3-0.2-0.8-0.2-1.1-0.4l-1.1-0.4h-0.6c-0.2,0.2-0.4,0.3-0.6,0.4
			c-0.5,0.2-0.7,0.6-1.2,0.8c-0.3,0.2-0.6,0.3-0.6,0.6h-0.2c-0.3,0.5-1.1,0.8-1.6,1.2c-0.5,0.2-0.7,0.6-1.2,0.8l-0.4,0.4v0.2h-0.2
			c-0.5,0.4-1,0.7-1.5,1.1v0.3c-0.3,0.1-1.1,0.1-1.1,0.4l1.2,0.1c0.5-0.4,1.6,0,2.1-0.4l0.4-0.1v-0.3l-0.5,0.1l-0.1-0.1l1-0.1
			l0.2,1.2c-0.5,0-1,0.1-1.5,0.2c-0.5,0.1-1,0.1-1.4,0.3l-2.9,0.4l-0.1,0.4l0.1,0.4h0.3l0.2,0.2c0.2,0.2,0.5,0.2,0.7,0.4l-1.6,0.4
			l-1-0.1v0.3c-0.7,0.1-1.3,0.4-2,0.5c-0.4,0.1-0.8,0.1-1.2,0.3V121h-0.6l-0.1,0.4H126l-1.5,0.4v0.2h-0.2c-0.4,0.3-1.2,0-1.6,0.4
			c-1.3,0.2-2.5,0.5-3.8,0.7c-0.6,0.3-1.3,0.1-1.8,0.5v0.3l1.1,0.1c1.3-0.2,2.6-0.4,3.9-0.5v-0.2c1.4,0,2.7-0.3,4-0.4
			c0.9-0.2,1.9-0.2,2.9-0.4c1.1-0.1,2.2-0.4,3.3-0.4c-0.4,0.3-1.2,0.1-1.7,0.4c-1.2,0.2-2.5,0.4-3.7,0.4c-0.9,0.2-1.8,0.3-2.7,0.4
			c-0.5,0.2-1.1,0.2-1.7,0.3c-0.9,0.1-1.8,0.2-2.7,0.4v0.2h-1.2v0.2l-1,0.1v0.2h0.2v0.4c0.8,0,1.6,0,2.4-0.2
			c0.8-0.2,1.7-0.1,2.4-0.4c0.7-0.1,1.3-0.1,1.9-0.3c1.6-0.2,3.2-0.3,4.8-0.6v-0.2h1.3c0.5-0.1,0.9-0.2,1.4-0.2l0.4,0.2
			c-1.3,0.3-2.6,0.3-3.9,0.5v0.2h-1.4v0.2H126v0.2h-1.1c-0.7,0.1-1.3,0.2-2,0.4c-1.5,0.1-3.1,0.2-4.5,0.6v0.4l0.4,0.2
			c1.2,0.2,2.3,0.6,3.4,0.9c-0.5,0.1-0.9,0.1-1.3,0.4l-0.4,0.1l-0.1,0.2l0-0.3h-0.5l-0.2,0.3h-1.1c-0.1,0.1-0.3,0.2-0.4,0.3v0.3h0.3
			v0.4l1,0.1c0.2,0.3,0.6,0.6,1,0.7c-0.3,0-0.5,0-0.5,0.4h0.7c0.2,0.4,0.6,0.3,1.1,0.3c0,0.4,0.1,0.5,0.4,0.7h0.5
			c0.1-0.1,0.2-0.3,0.3-0.4c0-0.7,0-1.3,0.1-2l3.2-0.4v-0.2h1.3c1.8-0.4,3.6-0.5,5.5-0.5v0.4l0.2,0.2h2.2l0.1-0.1
			c0.2-2.1,0.3-4.2,0.3-6.3h2l0.3-0.3c0.1-0.3,0.2-0.5,0.4-0.7c0.1-0.4,0.3-0.6,0.5-0.9v-2.2c0.4-0.4,0.6-0.8,1.2-1
			c0.2-0.2,0.6-0.1,0.8-0.4c0.1-0.1,0.2-0.2,0.3-0.4c0.3-0.3,1.2-0.5,1.2-0.8h0.2v0.2c0.4,0.1,0.8,0.2,1.2,0.4
			c0.2,0.2,0.6,0.2,0.9,0.4c0.4,0.2,1.1,0.5,1.4,0l0.5-0.2V115l-0.6-0.1l0.8,0v0.3h1.2l0.6-0.2v-0.3l-0.5-0.2h1v-0.2L149.5,114.4z
			 M196.7,127.4l0.1-0.1h0.2v-0.3h-0.2v0.2h-0.2l0-0.4c-0.2,2.6,0.2,5.2,0.4,7.8c0.2,0.2,0.3,0.2,0.4,0.5c0-0.3,0-0.7,0-1l0.2-0.2
			v-0.3c-0.1-0.1-0.2-0.2-0.3-0.4l-0.3-5.1C196.7,128,196.7,127.7,196.7,127.4L196.7,127.4z M195.1,126.5v7.6h1
			c-0.2-0.6-0.1-1.3-0.3-1.9l-0.1-2.9h-0.2v-2.9L195.1,126.5L195.1,126.5z M195.1,125.5h0.3v-1.3h0.2v-0.4h-0.2v0.3l-0.5,0.4
			c-0.1,0.3-0.2,0.6,0.1,0.9H195.1z M182.1,119.7l-0.4,0.1L182.1,119.7L182.1,119.7z M170.8,119.7l-0.3-0.1v0.4l0.5-0.1v-0.2H170.8z
			 M150.2,117.2l0.3-0.1v-0.1h-0.6l-0.5,0.2v0.4h0.2v-0.2h0.6V117.2L150.2,117.2z M135,116.8l-0.2,0l0.5,0v-0.2L135,116.8z
			 M135.5,116.6L135.5,116.6l0.7,0.1v-0.1H135.5z M157.5,116.4L157.5,116.4l1.1,0.1v-0.1H157.5z M159.1,116.3L159.1,116.3l0.6,0.1
			v-0.1H159.1z M160,116.2l1-0.1l-0.1-0.1L160,116.2L160,116.2z M197.7,116l0.1,0.1l0.1-0.1L197.7,116L197.7,116z M161,115.9
			l0.1,0.1l0.1-0.1l-0.1-0.1L161,115.9L161,115.9z M161.8,115.6l0.4-0.3l-0.1-0.1L161.8,115.6z M162.5,114.9l0.1,0.1l0.1-0.1
			l-0.1-0.1L162.5,114.9z M163.3,114.5l-0.3,0.2L163.3,114.5z M173,114.2L173,114.2l0.7,0.1v-0.1H173z M163.5,114.2c0,0,0.1,0,0.1,0
			C163.8,114.4,163.6,114.1,163.5,114.2z M164.2,113.8l-0.5,0.3L164.2,113.8z M172.3,113.9h-0.1l0.6,0.2L172.3,113.9z M196,113.3
			l0.2,0.3L196,113.3z M171.1,113.6l0.5,0.2L171.1,113.6z M170.5,113.4l0.5,0.1l-0.1-0.2c-0.2,0-0.5-0.1-0.6,0L170.5,113.4
			L170.5,113.4z M166.7,113.5c0.4-0.2,1-0.1,1.4,0.2c0.7,0.2,1.3,0.5,2,0.6c0.2,0.1,0.4,0.1,0.5,0.3c0.6,0.2,1.3,0.4,1.9,0.6
			l0.1,0.2h1.5c2-0.4,4.1-0.7,6.2-0.9V114c-0.8,0.1-1.5,0.2-2.2,0.3c-0.3,0-1,0.1-1.3,0.3h-1.6v0.2l-2.4,0.1l-0.1-0.1v-0.2h-0.3
			v-0.2h-0.6l-0.5-0.2c-0.2-0.2-0.7-0.2-1-0.4c-0.3-0.3-0.9-0.2-1.3-0.4l-0.4-0.1c-0.5-0.4-1-0.4-1.6-0.4c-0.2,0.2-0.4,0.4-0.7,0.4
			c-0.4,0.3-1.2,1.1-1.7,1.1v0.2h-0.2c0,0.3-0.2,0.4-0.5,0.4v0.2c-0.3,0.1-0.5,0.3-0.7,0.4c-0.5,0.4-1.2,0.7-1.7,1.2l-1.1-0.1v0.2
			l-0.4,0.1c-0.9,0.4-2,0.2-2.9,0.5c-0.7,0.1-1.7,0.1-2.3,0.4l-1.3,0.1c-0.3,0.1-0.7,0.2-1.1,0.3l-0.2,0.4c0.5-0.1,1.2-0.1,1.6-0.3
			l1.3-0.1c0.9-0.2,1.8-0.3,2.7-0.4c0.4,0,1.2,0,1.5-0.3h0.8v-0.2l1.2-0.1c0.3-0.1,0.6-0.4,0.8-0.4v-0.2c0.4-0.2,0.8-0.4,1.2-0.7
			c0.2-0.2,0.5-0.3,0.7-0.4C164.7,114.7,165.8,114.2,166.7,113.5L166.7,113.5z M193.2,113.3l0.1-0.1h1c-0.1-0.4-0.1-0.6-0.6-0.4
			c-1.1,0.1-2.1,0.2-3.2,0.4c-0.7,0.2-1.5,0.1-2.2,0.3c-0.7,0.2-1.6,0.1-2.2,0.4c-1.5,0.2-3,0.5-4.5,0.5v0.2h-0.2l-0.1,0.3
			c1.8,0,3.6-0.5,5.4-0.6c0.8-0.3,1.9-0.1,2.8-0.4l1.4-0.1C191.5,113.4,192.4,113.4,193.2,113.3L193.2,113.3z M165.2,113.3l0.1-0.1
			c-0.4,0-0.6,0.4-1,0.5l0.3,0C164.8,113.5,165,113.4,165.2,113.3L165.2,113.3z M169.8,113l-0.4-0.1l0.3,0.1v0.2h0.4L169.8,113z
			 M165.4,113c0,0,0.1,0,0.1,0C165.8,113.1,165.5,112.9,165.4,113z M165.8,112.7l0.1,0.1l0.1-0.1l-0.1-0.1L165.8,112.7L165.8,112.7z
			 M195.6,112.5l0.1-0.2h-0.3l0-0.3L195.6,112.5L195.6,112.5z M167.7,112.3L167.7,112.3l0.5,0.1v-0.1H167.7z M166.8,112.2
			c0.3,0,0.6,0,0.8,0.1C167.3,112.1,167,111.9,166.8,112.2z M166.5,111.8c0.3-0.3,1.1,0,1.5,0.1c0.3,0.2,0.6,0.3,1,0.4
			c0.4,0.3,1.2,0.3,1.6,0.6v0.2h0.4v0.2h0.6c0.3,0.3,0.9,0.3,1.3,0.5c0.8,0,1.7,0,2.4-0.2c0.8-0.1,1.6-0.2,2.3-0.3l0.1-0.1h1.5V113
			h1.1v-0.2h0.5l-0.1-0.3h-1.1c-0.5,0.5-1.6,0.2-2.2,0.4l-0.8,0.2h-1.2l-2.9,0.4l-0.1-0.1c-0.9-0.2-1.7-0.6-2.4-0.9v-0.2h-0.6
			c-0.2-0.2-0.4-0.2-0.6-0.4c-0.6-0.2-1.3-0.5-1.9-0.5L166.5,111.8c-0.3,0.2-0.7,0.2-1,0.5h-0.3v0.2c-0.3,0.3-1.2,1-1.7,1v0.2
			c-0.5,0.2-0.9,0.5-1.4,0.7v0.2h-0.2v0.2c-0.3,0.3-0.8,0.4-1.2,0.7H160l-0.5,0.2l-1.4,0.1c-0.5,0.2-1,0.2-1.6,0.3l-0.9,0.2h-1.3
			c-0.3,0.2-0.6,0.2-0.9,0.4l-1.6,0.1v0.2h-0.2l0.1,0.2c1.4,0,2.7-0.4,4.1-0.5c0.7-0.3,1.9,0,2.4-0.4c0.9-0.1,2.6-0.1,3.1-0.9
			c0.2-0.1,0.4-0.2,0.6-0.4c0.4-0.3,1.1-0.5,1.4-1h0.3v-0.2c0.2-0.1,0.4-0.2,0.5-0.4h0.3v-0.2h0.2v-0.2
			C165.3,112.5,166,112.2,166.5,111.8L166.5,111.8z M163.7,129.2l0.5-0.1V129l-0.5-0.1V129.2L163.7,129.2z M131,128.2v0.4l0.5-0.1
			v-0.3l-0.4-0.1L131,128.2L131,128.2z M156.7,124.8v0.2h0.6v-0.3L156.7,124.8L156.7,124.8z M143.2,121.8c-0.4,0.2-0.9,0.1-1.3,0.3
			c-1.1,0.3-2.3,0.7-3.2,1.4c-0.4,0.1-0.5,0-0.5,0.4H138l-0.2,0.3l-0.2,8.4h0.7l0.6-0.2V132h0.3v-0.3l-0.2-0.1v-2.1
			c0.1-0.5,0.1-1.1,0.1-1.6c0.2-0.3,0.1-0.5,0.1-0.8l0.5-0.1v-0.3h-0.5v-0.4c0.5-0.1,0.6,0,0.6-0.4h-0.5c0-0.3,0.5-0.2,0.5-0.6h0.4
			c0.1-0.1,0.3-0.2,0.5-0.3c0.5-0.4,1.3-0.3,1.7-0.6l0.8-0.2h3l0.4,0.2c0.4,0,1.1,0,1.4,0.3l0.7,0.1l0.2-2.1
			c-0.2-0.2-0.4-0.2-0.6-0.3c-0.8-0.3-1.5-0.5-2.4-0.5v-0.2h-2.8L143.2,121.8L143.2,121.8z M143.8,118.5c-0.4,0-1.1,0-1.1,0.4h1.4
			c0.2-0.3,0.5-0.5,0.7-0.7v-1.8l-0.7-0.6c-0.4,0-1.2-0.1-1.5,0.2c-0.2,0.2-0.3,0.4-0.5,0.6c-0.3,0.2-0.3,0.7-0.1,1h0.3v0.4
			c0.2,0.2,0.3,0.3,0.4,0.4h0.7l0.5-0.2l0.1,0.1L143.8,118.5z"/>
		<path class="st2" d="M123,135.2c-9.2,0.2-17.8,2.7-25.9,7.7c3.1,2,4.7,4.5,4.7,7.6c0,2.7-1.4,5.1-4.1,7.2c-2.3,1.8-5.2,3.1-8.6,4
			c2,1.6,3,3.5,3,5.7c0,4.7-3.3,8.7-9.8,12.1c2.8,1.4,4.1,2.9,4.1,4.6c0,0.4-0.1,0.7-0.3,0.7l-0.1-0.1c-0.4-2.1-1.8-3.7-4.2-4.9
			c-4,2-8,2.9-12,2.9c-2.5,0-3.7-0.6-3.7-1.7c0-1.1,1.2-1.9,3.6-2.5c1.7-0.4,3.4-0.6,5.2-0.6c2.1,0,4.1,0.3,5.8,1
			c2.5-1.8,4.5-3.7,5.9-5.9c1.7-2.5,2.6-5,2.6-7.4c0-1.5-0.4-2.7-1.2-3.4c-1.1,0.3-2.4,0.4-4,0.4c-3.1,0-4.7-0.5-4.7-1.6
			c0-1,1-1.5,2.9-1.5c2,0,4,0.6,6,1.8c2.8-1,5.4-2.6,7.6-4.6c2.4-2.3,3.6-4.7,3.6-7.1c0-2.4-1.1-4.4-3.2-6.1
			c-2.6,1.8-6.2,5-10.7,9.6c-4,4-8,8.1-12,12.2c-4.8,4.6-9.2,8.3-13.4,11.1c0.7,1.7,1.1,3.4,1.1,5.1c0,5.6-2.6,10.6-7.7,15
			c-5.2,4.3-11.1,6.5-17.8,6.5c-6.3,0-11.1-1.7-14.5-5c-3.3-3.2-4.7-7.4-4.3-12.8c-3.8-1-6.8-2.4-8.9-4.3c-2.4-2.2-3.6-4.8-3.6-7.9
			c0-4.9,2.7-9,8-12.4c5.4-3.3,11.9-5,19.6-5c1.5,0,3,0.1,4.5,0.3c0.9-0.7,2-1.5,3.4-2.4c14.1-9,28.4-13.5,42.7-13.5
			c5.6,0,10,0.8,13.4,2.5c8.1-4.9,17.1-7.4,26.9-7.5L123,135.2L123,135.2z M303.4,168.1c0,1.8-1.1,3.3-3.3,4.4c-1.9,1-4,1.4-6.4,1.4
			c-1.5,0-2.8-0.2-3.8-0.7c-1.4-0.6-2-1.4-2-2.6c0-0.8,0.5-1.6,1.4-2.2c0.9-0.6,1.8-0.9,2.8-0.9c0.2,0,0.3,0,0.3,0.1
			c-0.9,0-1.8,0.4-2.6,1c-0.8,0.6-1.2,1.3-1.2,2.1c0,1,0.6,1.8,1.9,2.3c1,0.4,2.1,0.7,3.4,0.7c2.2,0,4.2-0.4,5.9-1.3
			c2-1,3-2.5,3-4.2c0-1.6-1-2.9-3-3.8c-1.6-0.7-3.5-1.1-5.6-1.1c-4.7,0-9.2,1.3-13.3,3.8c1.6,1,2.3,2.2,2.3,3.8c0,1.3-0.7,2.5-2,3.6
			c-1.7,1.3-4.4,2.3-6.7,2.3c-1.5,0-2.3-0.3-2.3-0.8c0-0.1,0-0.1,0-0.2c0-0.1,0.1-0.1,0.1-0.2l0.3,0.1c0,0-0.1,0.1-0.1,0.1
			s0,0.1,0,0.1c0,0.2,0.3,0.3,0.8,0.5c0.4,0.1,0.7,0.1,1.1,0.1c2.3,0,4.5-1.3,6-2.7c1.2-1.1,1.8-2.3,1.8-3.5c0-1.2-0.5-2.2-1.6-3
			c-1.3,0.9-3,2.5-5.3,4.7c-2,2-4,4-6,6c-2.4,2.3-4.6,4.1-6.6,5.5c0.3,0.8,0.5,1.7,0.5,2.5c0,2.8-1.3,5.3-3.8,7.4
			c-2.6,2.2-5.5,3.2-8.8,3.2c-3.1,0-5.5-0.8-7.2-2.5c-0.1-0.1-0.2-0.2-0.3-0.3c-2.7,0.8-5.6,1.1-8.4,1.1c-3.9,0-7.2-0.8-9.8-2.5
			c-2.8-1.8-4.2-4.3-4.2-7.5c0-4.5,2.4-8.7,7-12.6c4.2-3.5,9-5.9,14.6-7.2c-0.4-0.8-0.6-1.7-0.6-2.6c0-1.5,0.4-2.9,1.1-4.2
			c-4.6-1.1-8.3-2.6-11.2-4.6c-3.6-2.5-5.5-5.5-5.5-8.9c0-3.2,1.4-5.8,4.3-7.8c2.7-1.9,6-2.8,9.8-2.8c3.3,0,6.5,0.8,9.4,2.4
			c3.3,1.8,4.9,4,4.9,6.7c0,0.4-0.1,0.7-0.3,0.7c0,0-0.1,0-0.1-0.1c0,0,0-0.1,0-0.1c0-2.4-1.5-4.5-4.6-6.5c-2.6-1.7-5.8-2.5-9.4-2.5
			c-3.6,0-6.6,0.8-9.1,2.4c-2.7,1.8-4,4.1-4,7c0,3.3,1.8,6.1,5.5,8.6c2.8,1.9,6.4,3.4,10.9,4.5c1.9-2.8,5-5.1,9.3-6.7
			c3.8-1.4,7.8-2.1,12-2.1c3.5,0,6.5,0.5,9,1.4c3.4,1.2,5.1,3.1,5.1,5.7c0,2.4-1.2,4.2-3.6,5.5c-2.1,1.2-4.5,1.8-7.5,1.8
			c-1.9,0-3.7-0.3-5.2-0.8c-1.8-0.7-3-1.8-3.5-3.1c-1.5,0.3-3.3,0.4-5.2,0.4c-2.9,0-5.7-0.2-8.6-0.6c-0.6,1.3-1,2.7-1,4.2
			c0,0.6,0.1,1.2,0.2,1.8c1.1-0.2,2.1-0.3,3.2-0.3c3.9,0,5.8,0.8,5.8,2.3c0,1.2-1.1,1.9-3.4,1.9c-3.6,0-6.1-1-7.5-3
			c-4.8,1.2-9,3.7-12.7,7.5c-3.8,3.9-5.8,7.9-5.8,12c0,2.9,0.9,5.2,2.8,6.9c1.9,1.6,4.6,2.4,8,2.4c2.6,0,5.1-0.4,7.6-1.3
			c-1-1.4-1.4-3.2-1.3-5.3c-2-0.5-4.5-2-5.4-2.8c-0.9-0.8-1.3-1.7-1.3-2.8c0-1.6,0.6-3,1.8-4.3c0.6-0.8,1.5-1.6,2.7-2.3
			c2.8-1.7,6.6-2.7,10-2.7c0.7,0,1.4,0,2.2,0.2c0.4-0.3,0.9-0.6,1.4-1c7-4.5,14-6.7,21.1-6.7c2.8,0,5,0.4,6.6,1.2
			c4.2-2.5,8.8-3.7,13.8-3.7c2.3,0,4.3,0.4,6,1.1C302.3,165.1,303.4,166.4,303.4,168.1L303.4,168.1z M280,167
			c-1.4-0.8-3.5-1.1-6.3-1.1c-3.3,0-6.6,0.5-9.8,1.6c-2.7,0.9-5.6,2.2-8.8,4.1c-1.3,0.7-2.3,1.4-3,1.9c2,0.5,4.5,1.7,5.2,3.3
			c0.6,0.9,0.9,2,0.9,3.2c0,0.1,0,0.1,0,0.2c1.8,0.5,3.2,1.4,3.9,2.6c1.6-1.3,3.6-3.1,5.9-5.3c3.1-3.1,5-4.9,5.6-5.5
			C275.8,169.9,278,168.2,280,167L280,167z M251.2,174.2c-4.4,3.3-9.1,8.3-9.6,13.6c1.4,0.4,3.1,0.5,5,0.5c1.7,0,3.4-0.2,5-0.5
			c0.9-0.8,1.7-1.7,2.4-2.6c1.4-1.8,2.2-3.5,2.4-5.1c-0.2,0-0.3,0-0.5,0c-1.6,0-3.1,0.3-4.5,0.9c-1.5,0.7-2.6,1.6-3.1,2.8l-0.2,0.6
			c-0.1,0.2-0.1,0.6-0.1,1c0,0.1,0,0.2,0,0.3c0,0.1,0,0.2,0,0.2c0,0,0,0,0,0.1c0,0,0,0-0.1,0c-0.2,0-0.2-0.2-0.2-0.8
			c0-0.3,0-0.6,0.1-0.8c0.4-1.5,1.7-2.8,3.4-3.5c1.4-0.7,3-1,4.8-1c0.1,0,0.2,0,0.3,0c0-0.2,0-0.4,0-0.7
			C256.4,176.4,254.5,174.6,251.2,174.2L251.2,174.2z M255.2,186.8c2.1-0.8,4.3-2.1,6.5-3.8c-0.7-1.2-1.9-2.1-3.6-2.6
			C258.1,182.6,257.1,184.7,255.2,186.8L255.2,186.8z M250.2,174.1c-0.5-0.1-1-0.1-1.5-0.1c-3.1,0-6.1,0.5-8.6,2.1
			c-2.8,1.8-4.1,4.1-4.1,6.7c0,0.3,0,0.5,0.1,0.8l0,0c0.5,2.3,2.6,3.4,5.3,4C241.7,182.5,245.8,177.5,250.2,174.1L250.2,174.1z
			 M262.5,186c0-0.7-0.1-1.4-0.4-2.1c-2.4,1.6-4.9,2.8-7.3,3.5c-0.1,0-0.3,0.1-0.4,0.1c-2.2,2.3-5.1,4.1-8.5,5.4
			c-0.8,0.3-1.7,0.6-2.6,0.9c0.2,0.2,0.3,0.3,0.5,0.5c1.6,1.4,3.8,2.1,6.6,2.1c3.2,0,6-1.1,8.4-3.3
			C261.4,191.1,262.5,188.7,262.5,186L262.5,186z M251.2,188.3c-1.5,0.2-3.1,0.3-4.6,0.3c-1.7,0-3.3-0.2-5-0.5c0,0.2,0,0.5,0,0.7
			c0,1.7,0.4,3.2,1.3,4.4c2.1-0.8,4.2-1.9,6-3.2C249.7,189.5,250.4,188.9,251.2,188.3L251.2,188.3z M87.5,161.5L87.5,161.5
			c-1.2-1.1-2.9-1.6-5-1.6c-1.6,0-2.4,0.3-2.4,0.9c0,0.4,0.5,0.7,1.6,0.9c0.7,0.1,1.5,0.2,2.2,0.2C85,162,86.2,161.9,87.5,161.5
			L87.5,161.5z M95.4,142.6c-2.8-1.5-7-2.3-12.7-2.3c-6.7,0-13.4,1.1-19.8,3.2c-5.4,1.8-11.4,4.5-17.8,8.3c-2.8,1.6-4.9,3-6.6,4.2v0
			c7.8,1.6,11.7,4.9,11.7,9.8c0,1-0.2,2.1-0.6,3c4.6,1,7.8,2.8,9.6,5.6c3.3-2.6,7.3-6.2,11.9-10.8c6.3-6.3,10-10,11.3-11.2
			C87,148.4,91.3,145.1,95.4,142.6L95.4,142.6z M80.3,179.2L80.3,179.2c-1.6-0.6-3.3-0.8-5-0.8c-1.6,0-3.1,0.1-4.4,0.4
			c-1.9,0.4-2.9,1.1-2.9,2.1c0,1,1,1.4,2.9,1.4C74,182.3,77.1,181.2,80.3,179.2L80.3,179.2z M49.8,165.6c0-2.4-1.4-4.4-4.3-6
			c-2.2-1.2-5-2-8.3-2.5c-7.5,5.6-12.8,11.6-16.2,17.9c2.5,1.3,5.4,1.9,8.7,1.8l1.2,0l0.1,0c1.1-2.6,3.3-4.7,6.5-6.1
			c2.9-1.3,6.1-2,9.7-2c0.7,0,1.3,0,2,0.1C49.5,167.8,49.8,166.7,49.8,165.6L49.8,165.6z M48.8,169.2c-0.6-0.1-1.3-0.1-2-0.1
			c-3.3,0-6.3,0.6-9,1.9c-3.1,1.4-5.2,3.2-6.3,5.6l0.1,0c3.6-0.1,6.9-0.8,9.9-1.9C45,173.4,47.4,171.5,48.8,169.2L48.8,169.2z
			 M58.5,175.1c-1.7-2.9-4.7-4.8-9.1-5.8c-1.4,2.8-3.9,4.9-7.6,6.4c-3.2,1.3-6.8,2-10.7,2.1c-0.2,0.4-0.3,1.1-0.3,2
			c0,0.2,0,0.3,0.1,0.5c0,0.2,0.1,0.3,0.1,0.5c0,0,0,0.1,0,0.1c0,0-0.1,0.1-0.1,0.1c-0.3,0-0.5-0.5-0.5-1.5c0-0.7,0.1-1.2,0.2-1.7
			c-4,0-7.3-0.8-9.9-2.2c-1.6,3.2-2.6,6.2-2.8,9.1c2.9,0.7,6.3,1.1,10.1,1.1c6,0,11.6-0.9,16.5-2.7C49,181.3,53.7,178.7,58.5,175.1
			L58.5,175.1z M35.1,156.9c-0.7-0.1-1.8-0.1-3.1-0.1c-7.2,0-13.5,1.5-18.7,4.5c-5.4,3.1-8.2,6.9-8.2,11.5c0,5.7,4,9.6,12,11.7
			c0.2-2.9,1.1-6.1,2.7-9.3c-0.9-0.6-1.6-1.2-2.3-2.1c-0.7-1-1.1-1.8-1.1-2.6c0-0.1,0-0.1,0.1-0.2c0,0,0.1-0.1,0.2-0.1
			c0.5,1.7,1.6,3.2,3.4,4.4C23.2,168.1,28.2,162.3,35.1,156.9L35.1,156.9z M60.2,181c0-1.3-0.3-2.7-0.8-4.2
			c-4.9,3.2-9.8,5.6-14.7,7.1c-5.1,1.5-10.7,2.3-16.8,2.3c-3.5,0-6.9-0.4-10.1-1.1c0,0.2-0.1,0.7-0.1,1.5c0,4.7,1.6,8.5,4.9,11.3
			c3.3,2.9,7.7,4.3,13.3,4.3c6.4,0,12.1-2.2,17-6.7C57.8,191.3,60.2,186.4,60.2,181L60.2,181z M112.5,175c-0.6,0.1-1.9,0.9-3.8,2.3
			c-1.9,1.4-3.3,2.1-4,2.1c-0.2,0-0.3-0.2-0.5-0.5c0-0.6,1.1-2,3.4-4.3c2.3-2.3,3.4-3.4,3.4-3.5c0-0.1-0.2-0.2-0.5-0.2
			c-1.1,0-1.8,0.1-2.1,0.3c-2.1,1.5-4.2,3.1-6.3,4.6c-3.4,2.4-5.5,3.6-6.3,3.6c-0.1,0-0.3,0-0.4-0.1c-0.1-0.1-0.1-0.3-0.1-0.4
			c0-0.2,0.1-0.4,0.1-0.6c0.1-0.2,0.1-0.4,0.1-0.6c0-0.4-0.4-0.6-1.1-0.6c-1.2,0-2,0.5-2.4,1.5h-0.1c0,0.2-0.1,0.4-0.1,0.7
			c0,0.9,0.6,1.3,1.9,1.3c1.3,0,3-0.6,5-1.8c0.8-0.4,2.2-1.5,4.4-3.2c-1.5,1.7-2.3,3-2.3,3.6c0,0.9,0.6,1.4,1.9,1.4
			c1.5,0,3.4-0.7,5.6-2.2C110.9,176.6,112.3,175.5,112.5,175L112.5,175z M134.4,174.9L134.4,174.9c-0.2,0-1.4,0.8-3.5,2.3
			c-2.1,1.5-3.7,2.3-4.6,2.3c-0.2,0-0.3,0-0.5-0.1l-0.1-0.3c0-0.8,1.1-2.3,3.4-4.6c2.3-2.3,3.4-3.5,3.4-3.6s-0.3-0.2-0.9-0.2
			c-1.2,0-2.6,0.7-4.1,2.2h-0.1c0.1-0.2,0.1-0.5,0.1-0.7c0-1-0.8-1.5-2.3-1.5c-1.5,0-3.6,0.6-6.2,1.8c-2.6,1.2-4.4,2.3-5.5,3.4
			l-0.1,0.2v0.1c0.1,0,0.1,0.1,0.2,0.1c0.2,0,0.6-0.3,1.3-0.9h0.1c-1.2,1.2-1.9,2.3-1.9,3.4c0,1.2,0.8,1.8,2.5,1.8
			c2.2,0,4.7-1.1,7.5-3.2h0.1c-0.6,0.6-0.9,1.2-0.9,1.8c0,0.9,0.6,1.3,1.9,1.3c1.6,0,3.5-0.7,5.7-2.2
			C132.9,176.4,134.4,175.2,134.4,174.9L134.4,174.9z M126.9,172.4c0-0.7-0.4-1-1.3-1c-1.2,0-3.1,1.1-5.7,3.2c-2.7,2.2-4,3.7-4,4.6
			c0,0.4,0.3,0.7,0.9,0.7c1.3,0,3.3-1,6-3C125.6,174.9,126.9,173.4,126.9,172.4L126.9,172.4z M156,174.9
			C156,174.9,156,174.9,156,174.9c0-0.1,0-0.1-0.1-0.1c-1.5,0.9-2.5,1.5-3.1,2.1c-1.5,1-3.2,2-5.2,3.1l-3.1,1.7v-0.1
			c4.8-5.4,7.5-8.5,8.2-9.2c0.7-0.7,1-1.1,1-1.2c0-0.3-0.4-0.4-1.2-0.4c-0.8,0-1.9,0.6-3.2,1.9h-0.1c0.2-1.3-0.5-1.9-2.1-1.9
			c-1.7,0-3.8,0.6-6.3,1.7c-2.5,1.1-4.4,2.3-5.6,3.4l-0.1,0.2v0.1c0,0,0.1,0.1,0.1,0.1c0.1,0,0.5-0.3,1.3-0.8v0.1
			c-1.2,1-1.9,2.1-1.9,3.3c0,1.2,0.8,1.8,2.5,1.8c2,0,4.4-1,7.2-3v0.1c-1.7,2.2-3.1,3.9-4.2,5.1c-3.2,1.6-6.3,3.2-9.5,4.7
			c-5,2.6-8.9,4.9-11.7,6.9c-3.8,2.7-5.8,4.9-5.8,6.6c0,1.3,1.1,2,3.2,2c1.2,0,2.8-0.4,4.6-1.2c7.5-3.2,15.1-9.7,22.7-19.4
			c2-1,4.2-2.2,6.6-3.6C154.2,176.8,156,175.5,156,174.9L156,174.9z M148.7,172.4c0,1-1.4,2.5-4.1,4.5c-2.7,2-4.7,3-6,3
			c-0.6,0-0.9-0.2-0.9-0.7c0-0.9,1.3-2.5,4-4.6c2.7-2.1,4.6-3.2,5.8-3.2C148.3,171.4,148.7,171.7,148.7,172.4L148.7,172.4z
			 M139.8,183.8L139.8,183.8c-8.6,4.5-13.3,7-14.1,7.5c-6.6,4-9.9,7.2-9.9,9.6c0,0.9,0.6,1.4,1.9,1.4
			C121.9,202.3,129.3,196.2,139.8,183.8L139.8,183.8z M172.8,174.9c0,0.1-0.2,0.3-0.6,0.7c-1.6,1.4-3.5,2.6-5.4,3.6
			c-2.3,1.2-4.5,1.7-6.5,1.7c-2.4,0-3.6-0.7-3.6-2.1c0-1,0.5-2.1,1.6-3.3h-0.1c-0.7,0.6-1.1,0.8-1.4,0.8c-0.1,0-0.1,0-0.1-0.1v-0.1
			l0.1-0.2c1.2-1.2,3.1-2.3,5.5-3.4c2.6-1.2,4.7-1.7,6.4-1.7c1.3,0,1.9,0.5,1.9,1.5c0,1.7-3.3,3.4-10,5.2c-0.3,0.7-0.4,1.2-0.4,1.5
			c0,0.7,0.5,1,1.5,1c1.4,0,3-0.4,4.8-1.3c1.3-0.6,2.7-1.5,4.2-2.5c1.3-0.9,1.9-1.4,2-1.4C172.8,174.7,172.8,174.8,172.8,174.9
			L172.8,174.9z M168.2,172.1c0-0.3-0.3-0.5-0.8-0.5c-0.9,0-2.1,0.7-3.6,2.1c-1.2,1.1-2.1,2.1-2.9,3.2v0.1
			C165.8,175.6,168.2,174,168.2,172.1L168.2,172.1z M196.1,175.2c-0.1,0-0.1-0.1-0.2-0.1h-0.2c-3.5,2.9-5.7,4.3-6.5,4.3
			c-0.1,0-0.2,0-0.3,0c-0.1,0-0.2-0.1-0.2-0.1c-0.1-0.1-0.2-0.3-0.2-0.6c0-0.6,1-1.9,3-4c2-2.1,3-3.2,3-3.3c0-0.2-0.5-0.3-1.4-0.3
			c-1,0-2.1,0.5-3.3,1.6c-2.2,1.9-3.4,2.9-3.4,3c-1.5,1-3.1,1.6-4.8,1.6c-0.6,0-0.9-0.2-0.9-0.5c0-0.1,0.1-0.2,0.3-0.4
			c0.2-0.2,0.3-0.4,0.3-0.6c0-0.3-0.2-0.5-0.5-0.7c2.1-2.3,3.1-3.5,3.1-3.6c0-0.2-0.4-0.3-1.3-0.3c-1,0-2.5,0.5-4.4,1.5
			s-3.2,1.9-3.6,2.7c0,0.1,0,0.1,0.1,0.1c0.4,0,2-1,4.9-3v0.1c-1,0.8-2.3,2.1-4,3.9c-2,2-3,3.3-3,3.9c0,0.3,0.5,0.4,1.5,0.4
			c0.8,0,1.5-0.2,2.3-0.4c1.4-1.5,2.4-2.6,3.1-3.5c0.5,0.6,1.3,0.9,2.5,0.9c1.5,0,3.1-0.4,4.4-1.2c-0.9,1-1.3,1.9-1.3,2.7
			c0,1.1,0.8,1.6,2.3,1.6c1.1,0,2.6-0.5,4.4-1.5C193.7,178.2,195.2,176.8,196.1,175.2L196.1,175.2z M220.2,174.9
			c0,0.4-1.5,1.6-4.5,3.6c-2.3,1.5-4.2,2.2-5.7,2.2c-1.4,0-2.1-0.4-2.1-1.3c0-1.1,1.2-2.7,3.6-4.7l-0.1-0.1
			c-5.9,4.1-9.9,6.2-11.8,6.2c-1.5,0-2.2-0.4-2.2-1.3c0-1.5,2-3.8,6-7v-0.1c-0.7,0.4-1.8,1.1-3.2,2c-0.5,0.4-1.3,1-2.4,1.7
			c-0.3,0.1-0.5,0.2-0.7,0.2l-0.1-0.1c0.8-1,2.2-2.1,4.3-3.4c2.3-1.3,4.1-2,5.4-2c0.4,0,0.7,0.1,0.8,0.2c0,0.1-1.3,1.4-3.6,4
			c-2,2.1-3,3.5-3,4c0,0,0.1,0.1,0.2,0.2c0.1,0.1,0.2,0.2,0.5,0.2c1.1,0,5.5-2.7,13.2-8c0.6-0.4,1.2-0.6,1.9-0.6
			c0.9,0,1.4,0.1,1.4,0.3c0,0.2-1.1,1.4-3.3,3.6c-2.2,2.2-3.3,3.6-3.3,4.2c0,0.1,0,0.3,0.1,0.4c0.1,0,0.1,0.1,0.2,0.1
			c0.1,0,0.1,0,0.2,0c1.5,0,3.9-1.4,7.3-4.2L220.2,174.9L220.2,174.9L220.2,174.9z M278.3,155.8c0-2.4-1.6-4.2-4.9-5.4
			c-2.4-0.8-5.2-1.2-8.5-1.2c-3.9,0-7.5,0.7-11,2.2c-3.7,1.6-6.4,3.8-8.2,6.5v0c3.1,0.6,6.4,0.9,10,0.9c0.8,0,1.9-0.1,3.3-0.3v-0.2
			c0-1.2,0.5-2.2,1.5-3c1-0.9,2.2-1.3,3.6-1.3c1.4,0,2.1,0.5,2.1,1.4c0,1.6-2.2,2.8-6.6,3.6c0.8,2.1,3.5,3.1,8.1,3.1
			c2.6,0,4.9-0.5,6.9-1.5C277.1,159.5,278.3,157.9,278.3,155.8L278.3,155.8z M265.7,155.4c0-0.7-0.6-1-1.7-1c-1.2,0-2.3,0.4-3.1,1.2
			c-0.9,0.8-1.2,1.7-1.2,2.7v0.1C263.6,157.8,265.7,156.8,265.7,155.4L265.7,155.4z M252.8,166.9c0-1.2-1.7-1.8-5.2-1.8
			c-1,0-2,0.1-3,0.3c0.6,2,2.5,3,5.7,3C252,168.4,252.8,167.9,252.8,166.9L252.8,166.9z"/>
		<path class="st3" d="M88.6,186.8c0,0.2,0,0.4,0.1,0.5c0.1,0.2,0.2,0.3,0.3,0.4c0.3,0.3,0.7,0.4,1.1,0.4c0.4,0,0.8-0.1,1.1-0.4
			c0.3-0.3,0.5-0.6,0.5-0.9c0-0.4-0.1-0.7-0.4-0.9c-0.3-0.3-0.7-0.4-1.1-0.4c-0.4,0-0.8,0.1-1.1,0.4
			C88.7,186.2,88.6,186.5,88.6,186.8L88.6,186.8z M92.3,188.7h-0.7v-0.5c-0.4,0.4-1,0.6-1.5,0.6c-0.7,0-1.2-0.2-1.6-0.6
			c-0.2-0.2-0.4-0.4-0.5-0.6c-0.1-0.2-0.2-0.5-0.2-0.8c0-0.5,0.2-1,0.6-1.4s1-0.6,1.6-0.6c0.6,0,1.1,0.2,1.6,0.6V185h0.8L92.3,188.7
			L92.3,188.7z M94.4,185.6v3.1h-0.7V185h2.5v0.6H94.4z M99.1,185.5c-0.3,0-0.7,0.1-0.9,0.3c-0.3,0.2-0.4,0.4-0.5,0.7h2.9
			C100.2,185.8,99.8,185.5,99.1,185.5L99.1,185.5z M100.3,187.5h0.8c-0.4,0.8-1.1,1.2-2.1,1.2c-0.6,0-1.2-0.2-1.6-0.6
			c-0.4-0.4-0.7-0.8-0.7-1.4c0-0.5,0.2-1,0.7-1.4c0.4-0.4,1-0.6,1.6-0.6c0.5,0,0.9,0.1,1.3,0.3c0.4,0.2,0.6,0.5,0.8,0.9
			c0.1,0.3,0.2,0.6,0.2,0.9h-3.7c0.1,0.3,0.2,0.6,0.5,0.8c0.3,0.2,0.6,0.3,1,0.3C99.6,188.2,100,188,100.3,187.5L100.3,187.5z
			 M103.1,187.1v1.6h-0.7V185h0.7v1.5h2.1V185h0.7v3.7h-0.7v-1.6H103.1z M108.8,188.7H108v-3.1h-1.2V185h3.1v0.6h-1.2L108.8,188.7
			L108.8,188.7z M114.2,187.5h0.8c-0.4,0.9-1.1,1.3-2.1,1.3c-0.7,0-1.2-0.2-1.6-0.6c-0.2-0.2-0.4-0.4-0.5-0.6
			c-0.1-0.2-0.2-0.5-0.2-0.8c0-0.3,0.1-0.5,0.2-0.8c0.1-0.2,0.3-0.5,0.5-0.6c0.4-0.4,1-0.6,1.6-0.6c0.5,0,0.9,0.1,1.3,0.3
			c0.4,0.2,0.6,0.6,0.8,1h-0.8c-0.2-0.5-0.7-0.7-1.3-0.7c-0.2,0-0.4,0-0.6,0.1c-0.2,0.1-0.3,0.2-0.5,0.3c-0.1,0.1-0.2,0.3-0.3,0.4
			c-0.1,0.2-0.1,0.3-0.1,0.5c0,0.2,0,0.4,0.1,0.5c0.1,0.2,0.2,0.3,0.3,0.4c0.1,0.1,0.3,0.2,0.5,0.3c0.2,0.1,0.4,0.1,0.6,0.1
			C113.5,188.2,114,187.9,114.2,187.5L114.2,187.5z M117.6,188.7h-0.8v-3.1h-1.2V185h3.1v0.6h-1.2L117.6,188.7L117.6,188.7z
			 M119.6,188.7V185h1.6c1,0,1.5,0.3,1.5,1c0,0.3-0.2,0.6-0.5,0.7v0c0.2,0.1,0.4,0.2,0.5,0.3c0.1,0.1,0.2,0.3,0.2,0.5
			c0,0.2,0,0.3-0.1,0.5c-0.1,0.1-0.2,0.3-0.4,0.3c-0.3,0.2-0.6,0.2-1.1,0.2H119.6z M121.2,185.5h-0.9v1h0.9c0.6,0,0.9-0.2,0.9-0.6
			C122.1,185.7,121.8,185.5,121.2,185.5L121.2,185.5z M120.4,187.1v1.1h0.9c0.6,0,0.9-0.2,0.9-0.5c0-0.4-0.3-0.6-0.9-0.6H120.4z
			 M124.6,186.8c0,0.2,0,0.4,0.1,0.5c0.1,0.2,0.2,0.3,0.3,0.4c0.3,0.3,0.7,0.4,1.1,0.4c0.4,0,0.8-0.1,1.1-0.4
			c0.1-0.1,0.2-0.3,0.3-0.4c0.1-0.2,0.1-0.3,0.1-0.5c0-0.2,0-0.4-0.1-0.5c-0.1-0.2-0.2-0.3-0.3-0.4c-0.3-0.3-0.7-0.4-1.1-0.4
			c-0.4,0-0.8,0.1-1.1,0.4c-0.1,0.1-0.2,0.3-0.3,0.4C124.6,186.5,124.5,186.7,124.6,186.8L124.6,186.8z M128.3,186.8
			c0,0.5-0.2,1-0.7,1.4c-0.4,0.4-1,0.6-1.6,0.6c-0.6,0-1.2-0.2-1.6-0.6c-0.4-0.4-0.7-0.8-0.7-1.4c0-0.5,0.2-1,0.7-1.4
			c0.4-0.4,1-0.6,1.6-0.6c0.6,0,1.2,0.2,1.6,0.6C128.1,185.8,128.3,186.3,128.3,186.8z M154,187.1v1.6h-0.7V185h0.7v1.5h2.1V185h0.7
			v3.7h-0.7v-1.6H154z M160.2,185.5c-0.3,0-0.7,0.1-0.9,0.3c-0.3,0.2-0.4,0.4-0.5,0.7h2.9C161.4,185.8,160.9,185.5,160.2,185.5
			L160.2,185.5z M161.5,187.5h0.8c-0.4,0.8-1.1,1.2-2.1,1.2c-0.6,0-1.2-0.2-1.6-0.6c-0.4-0.4-0.7-0.8-0.7-1.4c0-0.5,0.2-1,0.7-1.4
			c0.4-0.4,1-0.6,1.6-0.6c0.5,0,0.9,0.1,1.3,0.3c0.4,0.2,0.6,0.5,0.8,0.9c0.1,0.3,0.2,0.6,0.2,0.9h-3.7c0.1,0.3,0.2,0.6,0.5,0.8
			c0.3,0.2,0.6,0.3,1,0.3C160.8,188.2,161.2,188,161.5,187.5L161.5,187.5z M163.1,188.1h0.5l1.3-3.1h0.8l1.3,3.1h0.5v1.4h-0.7v-0.8
			h-2.8v0.8h-0.7V188.1L163.1,188.1z M165.2,185.8l-0.9,2.3h1.8L165.2,185.8z M168.2,188.7V185h1.6c1,0,1.5,0.3,1.5,1
			c0,0.3-0.2,0.6-0.5,0.7v0c0.2,0.1,0.4,0.2,0.5,0.3c0.1,0.1,0.2,0.3,0.2,0.5c0,0.2,0,0.3-0.1,0.5c-0.1,0.1-0.2,0.3-0.4,0.3
			c-0.3,0.2-0.6,0.2-1.1,0.2H168.2z M169.7,185.5h-0.9v1h0.9c0.6,0,0.9-0.2,0.9-0.6C170.6,185.7,170.3,185.5,169.7,185.5z
			 M168.9,187.1v1.1h0.9c0.6,0,0.9-0.2,0.9-0.5c0-0.4-0.3-0.6-0.9-0.6H168.9z M173.3,188.7h-0.7V185h0.7v2.7l2.4-2.7h0.7v3.7h-0.8
			V186L173.3,188.7L173.3,188.7z M179.8,188.7V185h0.7v3.7H179.8z M182.2,188.7l-1.7-1.9l1.8-1.8h0.9l-1.8,1.7l1.8,1.9H182.2z
			 M177.1,185h0.9l1.8,1.8l-1.7,1.9h-1l1.8-1.9L177.1,185L177.1,185z M184.6,188.7h-0.7V185h0.7v2.7l2.4-2.7h0.7v3.7H187V186
			L184.6,188.7L184.6,188.7z M191.8,188.7h-0.6l-1.4-2.7v2.7H189V185h1l1.5,3l1.5-3h1v3.7h-0.7V186L191.8,188.7L191.8,188.7z
			 M195.7,186.8c0,0.2,0,0.4,0.1,0.5c0.1,0.2,0.2,0.3,0.3,0.4c0.3,0.3,0.7,0.4,1.1,0.4c0.4,0,0.8-0.1,1.1-0.4
			c0.1-0.1,0.2-0.3,0.3-0.4c0.1-0.2,0.1-0.3,0.1-0.5c0-0.2,0-0.4-0.1-0.5c-0.1-0.2-0.2-0.3-0.3-0.4c-0.3-0.3-0.7-0.4-1.1-0.4
			c-0.4,0-0.8,0.1-1.1,0.4c-0.1,0.1-0.2,0.3-0.3,0.4S195.7,186.7,195.7,186.8L195.7,186.8z M199.5,186.8c0,0.5-0.2,1-0.7,1.4
			c-0.4,0.4-1,0.6-1.6,0.6c-0.6,0-1.2-0.2-1.6-0.6c-0.4-0.4-0.7-0.8-0.7-1.4c0-0.5,0.2-1,0.7-1.4c0.4-0.4,1-0.6,1.6-0.6
			c0.6,0,1.2,0.2,1.6,0.6C199.2,185.8,199.5,186.3,199.5,186.8z M203.8,187.5h0.8c-0.4,0.9-1.1,1.3-2.1,1.3c-0.7,0-1.2-0.2-1.6-0.6
			c-0.2-0.2-0.4-0.4-0.5-0.6c-0.1-0.2-0.2-0.5-0.2-0.8c0-0.3,0.1-0.5,0.2-0.8c0.1-0.2,0.3-0.5,0.5-0.6c0.4-0.4,1-0.6,1.6-0.6
			c0.5,0,0.9,0.1,1.3,0.3c0.4,0.2,0.6,0.6,0.8,1h-0.8c-0.2-0.5-0.7-0.7-1.3-0.7c-0.2,0-0.4,0-0.6,0.1c-0.2,0.1-0.3,0.2-0.5,0.3
			c-0.1,0.1-0.2,0.3-0.3,0.4c-0.1,0.2-0.1,0.3-0.1,0.5c0,0.2,0,0.4,0.1,0.5c0.1,0.2,0.2,0.3,0.3,0.4c0.1,0.1,0.3,0.2,0.5,0.3
			c0.2,0.1,0.4,0.1,0.6,0.1C203.2,188.2,203.6,187.9,203.8,187.5L203.8,187.5z M207.2,188.7h-0.8v-3.1h-1.2V185h3.1v0.6h-1.2V188.7z
			 M210,188.7h-0.7V185h0.7v2.7l2.4-2.7h0.7v3.7h-0.7v-2.7L210,188.7z"/>
	</g>
</g>
</svg>
