<svg xmlns="http://www.w3.org/2000/svg" viewBox="0 0 732.167 406.424">
  <defs>
    <style>
      .cls-1, .cls-10, .cls-4, .cls-6 {
        fill: none;
      }

      .cls-1 {
        stroke: #b3b3b3;
        stroke-width: 0.75px;
      }

      .cls-1, .cls-10, .cls-4, .cls-5, .cls-6, .cls-7 {
        stroke-miterlimit: 10;
      }

      .cls-2 {
        font-size: 14px;
      }

      .cls-2, .cls-3 {
        fill: #666;
        font-family: Verdana;
      }

      .cls-3 {
        font-size: 11px;
        letter-spacing: 0.1em;
      }

      .cls-4 {
        stroke: gray;
      }

      .cls-10, .cls-4, .cls-5, .cls-6, .cls-7 {
        stroke-width: 0.5px;
      }

      .cls-5 {
        fill: #fff;
      }

      .cls-5, .cls-6, .cls-7 {
        stroke: #666;
      }

      .cls-7 {
        fill: #f2f2f2;
      }

      .cls-8 {
        fill: #4d4d4d;
      }

      .cls-9 {
        fill: lime;
        opacity: 0.17;
      }

      .cls-10 {
        stroke: #0cf;
        stroke-dasharray: 20;
      }
    </style>
  </defs>
  <title>analiz_vtorichka_gistogramma</title>
  <g id="scale">
    <line class="cls-1" x1="69.667" y1="8.256" x2="732.167" y2="8.256"/>
    <line class="cls-1" x1="69.667" y1="132.256" x2="732.167" y2="132.256"/>
    <line class="cls-1" x1="69.667" y1="380.256" x2="732.167" y2="380.256"/>
    <text class="cls-2" transform="translate(0 384.089)">55 000 ₽</text>
    <line class="cls-1" x1="69.667" y1="256.256" x2="732.167" y2="256.256"/>
    <text class="cls-2" transform="translate(0 260.089)">59 000 ₽</text>
    <line class="cls-1" x1="69.667" y1="318.256" x2="732.167" y2="318.256"/>
    <text class="cls-2" transform="translate(0 322.089)">57 000 ₽</text>
    <line class="cls-1" x1="69.667" y1="194.256" x2="732.167" y2="194.256"/>
    <text class="cls-2" transform="translate(0 198.089)">61 000 ₽</text>
    <text class="cls-3" transform="translate(71 403.089)">12.18</text>
    <text class="cls-3" transform="translate(582 403.089)">11.19</text>
    <text class="cls-3" transform="translate(535 403.089)">10.19</text>
    <text class="cls-3" transform="translate(646 403.089)">12.19</text>
    <text class="cls-3" transform="translate(256 403.089)">04.19</text>
    <text class="cls-3" transform="translate(303 403.089)">05.19</text>
    <text class="cls-3" transform="translate(209 403.089)">03.19</text>
    <text class="cls-3" transform="translate(164 403.089)">02.19</text>
    <text class="cls-3" transform="translate(117 403.089)">01.19</text>
    <text class="cls-3" transform="translate(488 403.089)">09.19</text>
    <text class="cls-3" transform="translate(443 403.089)">08.19</text>
    <text class="cls-3" transform="translate(395 403.089)">07.19</text>
    <text class="cls-3" transform="translate(349 402.089)">06.19</text>
    <text class="cls-2" transform="translate(0 137.089)">63 000 ₽</text>
    <line class="cls-1" x1="69.667" y1="70.256" x2="732.167" y2="70.256"/>
    <text class="cls-2" transform="translate(0 75.089)">65 000 ₽</text>
    <text class="cls-2" transform="translate(0 12.089)">67 000 ₽</text>
  </g>
  <g id="chartP">
    <line class="cls-4" x1="684.667" y1="61.756" x2="677.167" y2="54.256"/>
    <line class="cls-4" x1="684.667" y1="75.756" x2="663.167" y2="54.256"/>
    <line class="cls-4" x1="684.667" y1="123.756" x2="644.667" y2="83.756"/>
    <line class="cls-4" x1="684.667" y1="108.756" x2="644.667" y2="68.756"/>
    <line class="cls-4" x1="684.667" y1="91.756" x2="647.167" y2="54.256"/>
    <line class="cls-4" x1="684.667" y1="138.756" x2="644.667" y2="98.756"/>
    <line class="cls-4" x1="684.667" y1="153.756" x2="644.667" y2="113.756"/>
    <line class="cls-4" x1="684.667" y1="168.756" x2="644.667" y2="128.756"/>
    <line class="cls-4" x1="684.667" y1="183.756" x2="644.667" y2="143.756"/>
    <line class="cls-4" x1="684.667" y1="198.756" x2="644.667" y2="158.756"/>
    <line class="cls-4" x1="684.667" y1="213.756" x2="644.667" y2="173.756"/>
    <line class="cls-4" x1="684.667" y1="228.756" x2="644.667" y2="188.756"/>
    <line class="cls-4" x1="684.667" y1="243.756" x2="644.667" y2="203.756"/>
    <line class="cls-4" x1="684.667" y1="258.756" x2="644.667" y2="218.756"/>
    <line class="cls-4" x1="684.667" y1="273.756" x2="644.667" y2="233.756"/>
    <line class="cls-4" x1="684.667" y1="288.756" x2="644.667" y2="248.756"/>
    <line class="cls-4" x1="684.667" y1="303.756" x2="644.667" y2="263.756"/>
    <line class="cls-4" x1="684.667" y1="318.756" x2="644.667" y2="278.756"/>
    <line class="cls-4" x1="684.667" y1="333.756" x2="644.667" y2="293.756"/>
    <line class="cls-4" x1="684.667" y1="348.756" x2="644.667" y2="308.756"/>
    <line class="cls-4" x1="684.667" y1="363.756" x2="644.667" y2="323.756"/>
    <line class="cls-4" x1="685.297" y1="379.386" x2="644.667" y2="338.756"/>
    <line class="cls-4" x1="670.297" y1="379.386" x2="644.667" y2="353.756"/>
    <line class="cls-4" x1="655.297" y1="379.386" x2="644.667" y2="368.756"/>
    <rect class="cls-5" x="603.5" y="218.5" width="140" height="26" transform="translate(433.667 900.756) rotate(-90)"/>
    <rect class="cls-6" x="644.667" y="54.256" width="40" height="325.17"/>
  </g>
  <g id="chart">
    <rect class="cls-7" x="72.167" y="267.256" width="34" height="112.13"/>
    <rect class="cls-7" x="119.167" y="235.256" width="34" height="144.13"/>
    <rect class="cls-7" x="165.167" y="219.256" width="34" height="160.331"/>
    <rect class="cls-7" x="212.167" y="189.256" width="34" height="190.13"/>
    <rect class="cls-7" x="258.167" y="199.256" width="34" height="180.13"/>
    <rect class="cls-7" x="304.167" y="186.256" width="34" height="193.13"/>
    <rect class="cls-7" x="351.167" y="176.256" width="34" height="203.13"/>
    <rect class="cls-7" x="397.167" y="155.256" width="34" height="224.13"/>
    <rect class="cls-7" x="444.167" y="129.256" width="34" height="250.13"/>
    <rect class="cls-7" x="490.167" y="114.256" width="34" height="265.13"/>
    <rect class="cls-7" x="537.167" y="76.256" width="34" height="303.13"/>
    <rect class="cls-7" x="583.167" y="50.256" width="34" height="329.13"/>
    <g>
      <path class="cls-8" d="M668.68,284.024c-.4,0-1.16.741-1.16,2.061a3.066,3.066,0,0,0,1.441,2.54c.939.721,2.779,1.1,5.541,1.141a5.471,5.471,0,0,1-1.66-3.662c0-2.419,1.2-4,3.74-4,3.022,0,5.141,1.96,5.141,4.2,0,1.68-1.241,4.48-6.481,4.48q-4.71,0-6.662-1.439a3.958,3.958,0,0,1-1.721-3.362c0-1.52,1.141-3.18,2.5-3.18a.684.684,0,1,1,0,1.36Zm6.642,5.742c4.9,0,5.782-2.162,5.782-3.461,0-1.4-1.161-3.2-4.522-3.2a2.773,2.773,0,0,0-3,3A6.167,6.167,0,0,0,675.322,289.766Z" transform="translate(-8.333 -4.244)"/>
      <path class="cls-8" d="M666.98,272.824l.5-.14.54.5V279.4l5.7.16a4.831,4.831,0,0,1-1.34-3.2c0-2.34,1.84-3.98,4.4-3.98a4.808,4.808,0,0,1,4.942,4.821c0,2.181-1.42,3.62-3.041,3.62a.649.649,0,0,1-.741-.679.659.659,0,0,1,.741-.681,1.716,1.716,0,0,1,.72.181.614.614,0,0,0,.26.059c.141,0,1.442-.26,1.442-2.5,0-2-1.622-3.8-4.323-3.8-1.058,0-3.7.36-3.7,3.141a3.517,3.517,0,0,0,1.68,3.02.3.3,0,0,1,.179.281c0,.1-.06.58-.48.58a.779.779,0,0,1-.279-.061,4.148,4.148,0,0,0-1.34-.3l-5.862-.2Z" transform="translate(-8.333 -4.244)"/>
      <path class="cls-8" d="M666.98,257.745l.5-.141.54.5v6.222l5.7.16a4.831,4.831,0,0,1-1.34-3.2c0-2.34,1.84-3.98,4.4-3.98a4.808,4.808,0,0,1,4.942,4.821c0,2.181-1.42,3.62-3.041,3.62a.65.65,0,0,1-.741-.68.658.658,0,0,1,.741-.679,1.726,1.726,0,0,1,.72.179.616.616,0,0,0,.26.06c.141,0,1.442-.26,1.442-2.5,0-2-1.622-3.8-4.323-3.8-1.058,0-3.7.36-3.7,3.141a3.517,3.517,0,0,0,1.68,3.02.3.3,0,0,1,.179.281c0,.1-.06.58-.48.58a.779.779,0,0,1-.279-.061,4.148,4.148,0,0,0-1.34-.3l-5.862-.2Z" transform="translate(-8.333 -4.244)"/>
      <path class="cls-8" d="M668.68,248.846c-.4,0-1.16.74-1.16,2.06a3.066,3.066,0,0,0,1.441,2.54c.939.721,2.779,1.1,5.541,1.141a5.471,5.471,0,0,1-1.66-3.661c0-2.42,1.2-4,3.74-4,3.022,0,5.141,1.961,5.141,4.2,0,1.681-1.241,4.481-6.481,4.481q-4.71,0-6.662-1.44a3.956,3.956,0,0,1-1.721-3.361c0-1.521,1.141-3.181,2.5-3.181a.684.684,0,1,1,0,1.36Zm6.642,5.741c4.9,0,5.782-2.161,5.782-3.461,0-1.4-1.161-3.2-4.522-3.2a2.772,2.772,0,0,0-3,3A6.165,6.165,0,0,0,675.322,254.587Z" transform="translate(-8.333 -4.244)"/>
      <path class="cls-8" d="M666.84,241.105c0-2.459,3-4.08,7.582-4.08,5.16,0,7.3,2.3,7.3,4.2,0,2.06-2.241,4.121-7.422,4.121C669.74,245.347,666.84,243.446,666.84,241.105Zm7.461,3.221a11.034,11.034,0,0,0,5.461-1.04,2.5,2.5,0,0,0,1.342-2.06c0-1.72-2.342-3.181-6.682-3.181-3.342,0-6.961.86-6.961,3.06a2.365,2.365,0,0,0,1.119,2.021C669.781,243.927,671.66,244.326,674.3,244.326Z" transform="translate(-8.333 -4.244)"/>
      <path class="cls-8" d="M670.121,223.586a4.146,4.146,0,0,1-1.381-2.82c0-2.7,2.561-4.081,4.7-4.081,2.42,0,4.741,1.4,4.741,4.021a3.924,3.924,0,0,1-1.42,2.88h2.1c.94,0,1.02-.72,1.02-1.6h.58v3.781h-.58c0-.781-.18-1.04-1.02-1.04h-7.842c-.781,0-.88.339-.88,1.04h-.561a10.465,10.465,0,0,0-.619-1.741v-.44Zm5.961,0a4.247,4.247,0,0,0,1.52-2.88c0-1.56-1.741-2.881-4.161-2.881-2.961,0-4.14,1.62-4.14,2.941a4,4,0,0,0,1.381,2.82Z" transform="translate(-8.333 -4.244)"/>
      <path class="cls-8" d="M676.063,201.146l2.179,1.36a2.629,2.629,0,0,1,1.442,2.48,1.056,1.056,0,0,1-1.041,1.16.746.746,0,0,1-.8-.8.937.937,0,0,1,.5-.7c.361-.219.541-.419.541-.56a.929.929,0,0,0-.141-.46l-.5-.56-2.179-1.34-6.643,3.561a1.953,1.953,0,0,0-1.119,1.96h-.321v-4.641h.561c0,1.18.059,1.7.479,1.7a.683.683,0,0,0,.4-.141l5.5-3.02-5.6-3.481a.585.585,0,0,0-.34-.14c-.259,0-.439.36-.439.96v.7h-.561v-3.921h.561a2.083,2.083,0,0,0,.779,1.82Z" transform="translate(-8.333 -4.244)"/>
      <path class="cls-8" d="M671.621,183.626a3.227,3.227,0,0,1-1.24-2.48c0-1.521,1.621-3.921,5.182-3.921,2.7,0,5.16,1.961,5.16,3.921,0,1.46-1.461,3.96-5.16,3.96-5.743,0-7.163-2.94-7.4-4.56a2.62,2.62,0,0,0-2.14-2.141v-.6a3.951,3.951,0,0,1,2.2.8,3.444,3.444,0,0,1,1.08,1.941c.619,2.9,2.42,3.56,3.16,3.721Zm8.541-2.48c0-1.541-2.519-2.761-4.6-2.761-2.481,0-4.622,1.541-4.622,2.761,0,1.26,2.1,2.8,4.622,2.8C677.861,183.986,680.162,182.586,680.162,181.146Z" transform="translate(-8.333 -4.244)"/>
      <path class="cls-8" d="M680.6,167.707a.949.949,0,0,1,.919.94.864.864,0,0,1-.919.861.81.81,0,0,1-.881-.861A.858.858,0,0,1,680.6,167.707Z" transform="translate(-8.333 -4.244)"/>
    </g>
  </g>
  <g id="standard_deviation">
    <rect class="cls-9" x="68.667" y="104.756" width="550" height="122"/>
    <line class="cls-10" x1="619.167" y1="166.256" x2="69.167" y2="166.256"/>
  </g>
</svg>
