<svg xmlns="http://www.w3.org/2000/svg" viewBox="0 0 712.6001 396.33398">
  <defs>
    <style>
      .a, .d {
        fill: none;
      }

      .a {
        stroke: #b3b3b3;
        stroke-width: 0.75px;
      }

      .a, .d, .e {
        stroke-miterlimit: 10;
      }

      .b, .c {
        font-size: 14px;
        font-family: Verdana;
      }

      .b, .c, .f {
        fill: #666;
      }

      .c {
        letter-spacing: 0.09999em;
      }

      .d, .e {
        stroke: gray;
      }

      .d {
        stroke-width: 7px;
        opacity: 0.3;
      }

      .e {
        fill: #d3ffff;
        stroke-width: 2px;
      }

      .f {
        font-size: 18px;
        font-family: TimesNewRomanPSMT, Times New Roman;
      }

      .g {
        letter-spacing: -0.05518em;
      }
    </style>
  </defs>
  <title>analiz_vtorichka_leen_zavisimost</title>
  <g>
    <line class="a" x1="68.6665" y1="371.25586" x2="702.1665" y2="371.25586"/>
    <line class="a" x1="68.6665" y1="298.25586" x2="702.1665" y2="298.25586"/>
    <line class="a" x1="68.4165" y1="371.75586" x2="68.4165" y2="6.75586"/>
    <line class="a" x1="166.1665" y1="371.75586" x2="166.1665" y2="6.75586"/>
    <line class="a" x1="116.1665" y1="371.75586" x2="116.1665" y2="6.75586"/>
    <line class="a" x1="214.1665" y1="371.75586" x2="214.1665" y2="6.75586"/>
    <line class="a" x1="263.1665" y1="371.75586" x2="263.1665" y2="6.75586"/>
    <line class="a" x1="312.1665" y1="371.75586" x2="312.1665" y2="6.75586"/>
    <line class="a" x1="654.1665" y1="371.75586" x2="654.1665" y2="6.75586"/>
    <line class="a" x1="604.1665" y1="371.75586" x2="604.1665" y2="6.75586"/>
    <line class="a" x1="556.1665" y1="371.75586" x2="556.1665" y2="6.75586"/>
    <line class="a" x1="507.1665" y1="371.75586" x2="507.1665" y2="6.75586"/>
    <line class="a" x1="458.1665" y1="371.75586" x2="458.1665" y2="6.75586"/>
    <line class="a" x1="409.1665" y1="371.75586" x2="409.1665" y2="6.75586"/>
    <line class="a" x1="361.1665" y1="371.75586" x2="361.1665" y2="6.75586"/>
    <line class="a" x1="702.1665" y1="371.75586" x2="702.1665" y2="6.75586"/>
    <line class="a" x1="68.6665" y1="226.25586" x2="702.1665" y2="226.25586"/>
    <line class="a" x1="68.6665" y1="153.25586" x2="702.1665" y2="153.25586"/>
    <line class="a" x1="68.6665" y1="80.25586" x2="702.1665" y2="80.25586"/>
    <line class="a" x1="68.6665" y1="7.25586" x2="702.1665" y2="7.25586"/>
    <text class="b" transform="translate(0 375.08887)">56 000 ₽</text>
    <text class="c" transform="translate(63 392.08887)">0</text>
    <text class="c" transform="translate(111 392.08887)">1</text>
    <text class="c" transform="translate(161 392.08887)">2</text>
    <text class="c" transform="translate(209 392.08887)">3</text>
    <text class="c" transform="translate(258 392.08887)">4</text>
    <text class="c" transform="translate(307 392.08887)">5</text>
    <text class="c" transform="translate(692 392.08887)">13</text>
    <text class="c" transform="translate(643 392.08887)">12</text>
    <text class="c" transform="translate(594 392.08887)">11</text>
    <text class="c" transform="translate(545 392.08887)">10</text>
    <text class="c" transform="translate(502 392.08887)">9</text>
    <text class="c" transform="translate(453 392.08887)">8</text>
    <text class="c" transform="translate(404 392.08887)">7</text>
    <text class="c" transform="translate(356 392.08887)">6</text>
    <text class="b" transform="translate(0 302.08887)">58 000 ₽</text>
    <text class="b" transform="translate(0 84.08887)">64 000 ₽</text>
    <text class="b" transform="translate(0 12.08887)">66 000 ₽</text>
    <text class="b" transform="translate(0 157.08887)">62 000 ₽</text>
    <text class="b" transform="translate(0 230.08887)">60 000 ₽</text>
  </g>
  <line class="d" x1="116.1665" y1="286.25586" x2="654.1665" y2="72.25586"/>
  <g>
    <circle class="e" cx="263.1665" cy="218.25586" r="5.5"/>
    <circle class="e" cx="312.1665" cy="183.25586" r="5.5"/>
    <circle class="e" cx="458.1665" cy="168.25586" r="5.5"/>
    <circle class="e" cx="409.1665" cy="180.25586" r="5.5"/>
    <circle class="e" cx="361.1665" cy="195.25586" r="5.5"/>
    <circle class="e" cx="507.1665" cy="144.25586" r="5.5"/>
    <circle class="e" cx="654.1665" cy="52.25586" r="5.5"/>
    <circle class="e" cx="604.1665" cy="96.25586" r="5.5"/>
    <circle class="e" cx="556.1665" cy="112.25586" r="5.5"/>
    <circle class="e" cx="116.1665" cy="290.25586" r="5.5"/>
    <circle class="e" cx="214.1665" cy="237.25586" r="5.5"/>
    <circle class="e" cx="166.1665" cy="275.25586" r="5.5"/>
    <text class="f" transform="translate(74.27051 24.4917)"><tspan class="g">Y</tspan><tspan x="12.00586" y="0">i=Xi*534+57809</tspan><tspan x="0" y="21.6001">r = 0.98</tspan></text>
  </g>
</svg>
