<svg xmlns="http://www.w3.org/2000/svg" viewBox="0 0 712.6 396.334">
  <defs>
    <style>
      .cls-1, .cls-4 {
        fill: none;
      }

      .cls-1 {
        stroke: #b3b3b3;
        stroke-width: 0.75px;
      }

      .cls-1, .cls-4, .cls-5 {
        stroke-miterlimit: 10;
      }

      .cls-2, .cls-3 {
        font-size: 14px;
        font-family: Verdana;
      }

      .cls-2, .cls-3, .cls-6 {
        fill: #666;
      }

      .cls-3 {
        letter-spacing: 0.1em;
      }

      .cls-4, .cls-5 {
        stroke: gray;
      }

      .cls-4 {
        stroke-width: 7px;
        opacity: 0.3;
      }

      .cls-5 {
        fill: #d3ffff;
        stroke-width: 2px;
      }

      .cls-6 {
        font-size: 18px;
        font-family: TimesNewRomanPSMT, Times New Roman;
      }

      .cls-7 {
        letter-spacing: -0.055em;
      }
    </style>
  </defs>
  <title>analiz_vtorichka_leen_zavisimost</title>
  <g id="scale">
    <line class="cls-1" x1="68.667" y1="371.256" x2="702.167" y2="371.256"/>
    <line class="cls-1" x1="68.667" y1="280.256" x2="702.167" y2="280.256"/>
    <line class="cls-1" x1="68.667" y1="326.256" x2="702.167" y2="326.256"/>
    <line class="cls-1" x1="68.417" y1="371.756" x2="68.417" y2="6.756"/>
    <line class="cls-1" x1="166.167" y1="371.756" x2="166.167" y2="6.756"/>
    <line class="cls-1" x1="117.167" y1="371.756" x2="117.167" y2="6.756"/>
    <line class="cls-1" x1="215.167" y1="371.756" x2="215.167" y2="6.756"/>
    <line class="cls-1" x1="264.167" y1="371.756" x2="264.167" y2="6.756"/>
    <line class="cls-1" x1="312.167" y1="371.756" x2="312.167" y2="6.756"/>
    <line class="cls-1" x1="654.167" y1="371.756" x2="654.167" y2="6.756"/>
    <line class="cls-1" x1="605.167" y1="371.756" x2="605.167" y2="6.756"/>
    <line class="cls-1" x1="557.167" y1="371.756" x2="557.167" y2="6.756"/>
    <line class="cls-1" x1="507.167" y1="371.756" x2="507.167" y2="6.756"/>
    <line class="cls-1" x1="459.167" y1="371.756" x2="459.167" y2="6.756"/>
    <line class="cls-1" x1="410.167" y1="371.756" x2="410.167" y2="6.756"/>
    <line class="cls-1" x1="361.167" y1="371.756" x2="361.167" y2="6.756"/>
    <line class="cls-1" x1="702.167" y1="371.756" x2="702.167" y2="6.756"/>
    <line class="cls-1" x1="68.667" y1="235.256" x2="702.167" y2="235.256"/>
    <line class="cls-1" x1="68.667" y1="144.256" x2="702.167" y2="144.256"/>
    <line class="cls-1" x1="68.667" y1="189.256" x2="702.167" y2="189.256"/>
    <line class="cls-1" x1="68.667" y1="52.256" x2="702.167" y2="52.256"/>
    <line class="cls-1" x1="68.667" y1="98.256" x2="702.167" y2="98.256"/>
    <line class="cls-1" x1="68.667" y1="7.256" x2="702.167" y2="7.256"/>
    <text class="cls-2" transform="translate(0 375.089)">58 000 ₽</text>
    <text class="cls-3" transform="translate(63 392.089)">0</text>
    <text class="cls-3" transform="translate(111 392.089)">1</text>
    <text class="cls-3" transform="translate(161 392.089)">2</text>
    <text class="cls-3" transform="translate(209 392.089)">3</text>
    <text class="cls-3" transform="translate(258 392.089)">4</text>
    <text class="cls-3" transform="translate(307 392.089)">5</text>
    <text class="cls-3" transform="translate(692 392.089)">13</text>
    <text class="cls-3" transform="translate(643 392.089)">12</text>
    <text class="cls-3" transform="translate(594 392.089)">11</text>
    <text class="cls-3" transform="translate(545 392.089)">10</text>
    <text class="cls-3" transform="translate(502 392.089)">9</text>
    <text class="cls-3" transform="translate(453 392.089)">8</text>
    <text class="cls-3" transform="translate(404 392.089)">7</text>
    <text class="cls-3" transform="translate(356 392.089)">6</text>
    <text class="cls-2" transform="translate(0 330.089)">59 000 ₽</text>
    <text class="cls-2" transform="translate(0 57.089)">65 000 ₽</text>
    <text class="cls-2" transform="translate(0 102.089)">64 000 ₽</text>
    <text class="cls-2" transform="translate(0 12.089)">66 000 ₽</text>
    <text class="cls-2" transform="translate(0 148.089)">63 000 ₽</text>
    <text class="cls-2" transform="translate(0 193.089)">62 000 ₽</text>
    <text class="cls-2" transform="translate(0 239.089)">61 000 ₽</text>
    <text class="cls-2" transform="translate(0 284.089)">60 000 ₽</text>
  </g>
  <g id="trend">
    <line class="cls-4" x1="117.167" y1="333.256" x2="653.167" y2="54.256"/>
  </g>
  <g id="circle">
    <circle class="cls-5" cx="263.167" cy="227.256" r="5.5"/>
    <circle class="cls-5" cx="312.167" cy="242.256" r="5.5"/>
    <circle class="cls-5" cx="458.167" cy="177.256" r="5.5"/>
    <circle class="cls-5" cx="409.167" cy="207.256" r="5.5"/>
    <circle class="cls-5" cx="361.167" cy="223.256" r="5.5"/>
    <circle class="cls-5" cx="507.167" cy="139.256" r="5.5"/>
    <circle class="cls-5" cx="654.167" cy="24.256" r="5.5"/>
    <circle class="cls-5" cx="605.167" cy="62.256" r="5.5"/>
    <circle class="cls-5" cx="556.167" cy="117.256" r="5.5"/>
    <circle class="cls-5" cx="116.167" cy="343.256" r="5.5"/>
    <circle class="cls-5" cx="214.167" cy="271.256" r="5.5"/>
    <circle class="cls-5" cx="166.167" cy="296.256" r="5.5"/>
    <text class="cls-6" transform="translate(74.271 24.492)"><tspan class="cls-7">Y</tspan><tspan x="12.006" y="0">i=Xi*563+58245</tspan><tspan x="0" y="21.6">r = 0.98</tspan></text>
  </g>
</svg>
